<?xml version="1.0" encoding="UTF-8" standalone="no"?>
<!-- Created with Inkscape (http://www.inkscape.org/) -->

<svg
   version="1.1"
   id="svg1"
   width="500"
   height="500"
   viewBox="0 0 500 500"
   xml:space="preserve"
   xmlns="http://www.w3.org/2000/svg"
   xmlns:svg="http://www.w3.org/2000/svg"><defs
     id="defs1" /><g
     id="g1"><g
       id="g125"
       transform="translate(-313.45095,-1058.2219)"><path
         style="fill:#9d2907;stroke-width:0.273653"
         d="m 704.68316,1392.1005 c -0.79551,-0.082 -3.07354,-0.3243 -5.06228,-0.5391 -1.98875,-0.2146 -5.24307,-0.7177 -7.23184,-1.1179 -1.98875,-0.4001 -5.21219,-1.2268 -7.16322,-1.8366 -1.95102,-0.61 -4.99461,-1.7482 -6.76355,-2.5295 -1.76893,-0.7812 -4.56597,-2.2544 -6.21565,-3.2739 -1.64969,-1.0197 -4.30115,-2.923 -5.89216,-4.2297 -1.59099,-1.307 -4.20223,-3.8436 -5.80272,-5.6368 -1.6005,-1.7933 -4.36773,-5.0003 -6.1494,-7.1265 -1.78166,-2.1264 -5.12563,-6.2683 -7.43103,-9.2047 -2.30541,-2.9361 -6.22197,-8.0721 -8.70349,-11.4135 -2.48151,-3.3413 -6.30106,-8.643 -8.48787,-11.7818 -2.18681,-3.1386 -5.92953,-8.6892 -8.31716,-12.3341 -2.38763,-3.645 -6.25263,-9.7413 -8.58887,-13.5474 -2.33626,-3.8064 -4.65445,-7.8569 -5.15151,-9.0013 -0.51555,-1.1868 -0.98977,-3.1255 -1.10399,-4.5125 -0.13842,-1.6812 -0.0203,-3.0616 0.38251,-4.4729 0.3205,-1.1225 1.38131,-3.2676 2.35737,-4.767 0.97606,-1.4994 2.86837,-3.9686 4.20516,-5.4873 1.33679,-1.5189 3.36519,-3.9214 4.50756,-5.3387 1.14238,-1.4175 3.09655,-4.1513 4.34262,-6.0749 1.24606,-1.9238 3.29778,-5.6198 4.55938,-8.2137 1.26161,-2.5937 2.96601,-6.8185 3.78755,-9.3887 0.82156,-2.5699 1.79257,-6.081 2.15782,-7.8023 0.36524,-1.7213 0.8594,-4.8685 1.09813,-6.9937 0.26248,-2.3369 0.35541,-6.1202 0.2351,-9.5728 -0.10942,-3.1395 -0.47049,-7.1168 -0.80238,-8.8379 -0.33188,-1.7214 -1.09519,-4.7036 -1.69622,-6.6274 -0.60105,-1.9236 -1.79348,-4.9408 -2.64984,-6.705 -0.85637,-1.764 -2.42308,-4.4976 -3.48159,-6.075 -1.05851,-1.5771 -3.32523,-4.2928 -5.03715,-6.035 -1.71189,-1.7419 -4.60748,-4.1698 -6.43461,-5.3955 -1.82712,-1.2257 -4.82213,-2.8969 -6.65556,-3.7139 -1.83343,-0.817 -4.7931,-1.9149 -6.57706,-2.4399 -1.78394,-0.5249 -4.71284,-1.204 -6.50864,-1.5093 -1.79581,-0.3053 -5.62449,-0.6521 -8.50818,-0.7708 -3.50808,-0.144 -5.75318,-0.074 -6.7846,0.2141 -0.84782,0.236 -2.136,0.961 -2.86264,1.6104 -0.72661,0.6499 -1.6421,1.9201 -2.03441,2.8233 -0.55831,1.2852 -0.77473,2.925 -0.99603,7.5475 -0.15551,3.2483 -0.47928,12.616 -0.71949,20.8173 -0.24021,8.2012 -0.45641,22.3669 -0.48042,31.4794 -0.0241,9.1126 0.0723,17.9765 0.21406,19.6979 0.24217,2.9403 0.22672,2.8957 -0.25559,-0.7364 -0.28234,-2.1265 -0.66119,-4.1973 -0.8419,-4.6023 -0.18071,-0.405 -1.57783,-2.3105 -3.10471,-4.2342 -1.52689,-1.9236 -4.43699,-5.2215 -6.46689,-7.3281 -2.02988,-2.1071 -4.99244,-4.9469 -6.58344,-6.3113 -1.591,-1.3642 -4.68261,-3.7087 -6.87023,-5.2099 -2.18763,-1.5009 -5.52332,-3.5029 -7.41263,-4.4483 -3.11791,-1.5603 -3.78572,-1.751 -7.23183,-2.0648 -3.79671,-0.3457 -3.79671,-0.3457 -0.33924,-0.1648 2.61258,0.1369 3.55198,0.061 3.84425,-0.3084 0.21272,-0.2691 0.6496,-2.7378 0.97082,-5.4861 0.32121,-2.7482 0.76523,-8.0329 0.9867,-11.744 0.29922,-5.0139 0.29645,-8.0758 -0.0108,-11.9184 -0.22742,-2.8437 -0.71953,-6.5985 -1.09357,-8.3436 -0.37405,-1.7448 -1.17969,-4.4883 -1.7903,-6.0965 -0.61062,-1.6078 -1.77297,-3.9536 -2.58299,-5.2126 -0.81002,-1.2593 -2.4464,-3.1867 -3.63639,-4.2831 -1.18998,-1.0966 -3.18568,-2.506 -4.43484,-3.1322 -1.24919,-0.6262 -3.25156,-1.3942 -4.44975,-1.7067 -1.1982,-0.3127 -3.68175,-0.7096 -5.51902,-0.8822 -2.29646,-0.2159 -3.5267,-0.5035 -3.93628,-0.9205 -0.45773,-0.4662 -0.50458,-0.7546 -0.20218,-1.2442 0.31318,-0.5073 1.16175,-0.6895 4.15218,-0.8922 2.0672,-0.14 8.23325,-0.5094 13.70232,-0.8208 5.46906,-0.3113 15.23203,-0.7568 21.69549,-0.9903 6.91148,-0.2495 17.78338,-0.3352 26.39616,-0.2076 8.05444,0.1191 17.32927,0.3949 20.61071,0.6128 3.28143,0.2178 8.35491,0.6408 11.27441,0.9398 2.91947,0.2993 7.3128,0.8891 9.76295,1.3115 2.45016,0.4221 6.57014,1.311 9.15551,1.9752 2.58538,0.6643 6.32785,1.8293 8.31661,2.5891 1.98875,0.7597 5.08035,2.128 6.87024,3.0407 1.78987,0.9128 4.60485,2.5745 6.2555,3.6924 1.65065,1.118 4.54261,3.518 6.4266,5.3334 1.88398,1.8154 4.4835,4.7306 5.77671,6.4785 1.29321,1.7475 3.14704,4.8343 4.11961,6.8593 0.97257,2.025 2.09957,4.7917 2.50445,6.1485 0.40487,1.3567 0.99338,3.8418 1.3078,5.5227 0.34338,1.8357 0.57794,5.1141 0.58742,8.2106 0.01,2.9614 -0.22097,6.6426 -0.5407,8.6523 -0.30607,1.9235 -0.97763,5.1544 -1.49238,7.1796 -0.51475,2.0248 -1.6808,5.587 -2.59121,7.9157 -0.91041,2.329 -2.46613,5.8911 -3.45715,7.916 -0.99102,2.025 -2.85201,5.4635 -4.13553,7.641 -1.28354,2.1773 -3.72614,5.9052 -5.42802,8.2839 -1.70188,2.3788 -4.25397,5.7245 -5.67132,7.4351 -1.41735,1.7104 -4.81436,5.4683 -7.54889,8.3505 -4.76995,5.0276 -4.97189,5.3025 -4.97189,6.7751 0,0.8442 0.24428,2.0589 0.54283,2.6996 0.29858,0.6406 3.33802,4.8907 6.75434,9.4442 3.41634,4.5539 9.0021,11.8418 12.41282,16.1955 3.41071,4.3537 9.11725,11.4706 12.68119,15.8153 3.56395,4.3445 9.97743,11.9658 14.2522,16.9363 4.27476,4.9705 10.29526,11.6678 13.37889,14.883 3.08361,3.2154 7.15238,7.1658 9.0417,8.7783 1.88931,1.613 5.06226,4.0416 7.05103,5.3972 1.98874,1.3558 5.29202,3.3402 7.3406,4.41 2.0486,1.0699 5.38429,2.5799 7.41265,3.3554 2.02835,0.7759 5.31507,1.8505 7.30383,2.3881 1.98874,0.538 4.06544,1.1553 4.61488,1.372 0.58266,0.2297 1.09218,0.772 1.22262,1.3013 0.15418,0.6254 0.0116,1.1232 -0.45882,1.6022 -0.55709,0.5673 -1.77812,0.8014 -6.6465,1.2741 -3.28021,0.3185 -10.27601,0.6375 -15.54619,0.7089 -5.27018,0.073 -10.23303,0.063 -11.02855,-0.017 z"
         id="path126" /><path
         style="fill:#211611;stroke-width:0.273653"
         d="m 602.35279,1449.6212 c -0.79549,-0.069 -2.82945,-0.2991 -4.51989,-0.5116 -1.69043,-0.2123 -4.29389,-0.633 -5.78545,-0.935 -1.49157,-0.3018 -4.3391,-1.0485 -6.32785,-1.6594 -1.98875,-0.6107 -5.73124,-2.1694 -8.31661,-3.4634 -2.96344,-1.4834 -6.10385,-3.4309 -8.4974,-5.2693 -2.08818,-1.6039 -5.10144,-4.3037 -6.69613,-5.9999 -1.59467,-1.6955 -5.50438,-6.3968 -8.68824,-10.4468 -3.18386,-4.0499 -8.15877,-10.5115 -11.05536,-14.3592 -2.89658,-3.8472 -7.33823,-9.9474 -9.87034,-13.5555 -2.53209,-3.608 -6.77045,-9.9038 -9.41855,-13.9907 -2.6481,-4.087 -6.52992,-10.354 -8.62626,-13.9265 -2.09634,-3.5724 -4.32826,-7.5376 -4.95986,-8.8117 -0.98233,-1.9815 -1.12698,-2.6171 -1.00052,-4.3972 0.0883,-1.2425 0.53598,-2.8886 1.11137,-4.0861 0.52997,-1.1028 2.13345,-3.4082 3.56331,-5.1232 1.42985,-1.715 3.90524,-4.7749 5.50084,-6.7999 1.59561,-2.0249 4.35034,-5.9185 6.12159,-8.6521 1.77127,-2.7337 4.3947,-7.3762 5.82987,-10.3168 1.43515,-2.9403 3.20121,-7.1651 3.92456,-9.3885 0.72335,-2.2235 1.68196,-5.7822 2.13025,-7.9085 0.69172,-3.2806 0.81719,-5.008 0.82926,-11.4136 0.0109,-5.8015 -0.13487,-8.3142 -0.63017,-10.8614 -0.35439,-1.8224 -0.97747,-4.556 -1.38459,-6.0747 -0.40712,-1.519 -1.37548,-4.4184 -2.15192,-6.4434 -0.77644,-2.025 -2.11877,-4.8887 -2.98295,-6.364 -0.86419,-1.4749 -2.6039,-4.0168 -3.86604,-5.6484 -1.26211,-1.6317 -3.58765,-4.0929 -5.16783,-5.4698 -1.58018,-1.3771 -4.12982,-3.2646 -5.66587,-4.1951 -1.53605,-0.9304 -3.93167,-2.1848 -5.32361,-2.7881 -1.39195,-0.6031 -3.95524,-1.5167 -5.69624,-2.0307 -1.74099,-0.5136 -5.02635,-1.1822 -7.30081,-1.486 -2.27446,-0.3036 -5.74589,-0.5518 -7.71427,-0.5518 -1.96837,0 -5.49856,0.2561 -7.84484,0.5693 -2.3463,0.3132 -4.62693,0.8102 -5.06809,1.1046 -0.44115,0.2942 -0.97493,0.8638 -1.18615,1.2658 -0.2543,0.4837 -0.5747,14.5732 -0.94823,41.6965 -0.54274,39.4105 -0.59091,41.0103 -1.26849,42.1347 -0.38738,0.6431 -1.68001,2.0888 -2.8725,3.2128 -1.19251,1.1242 -2.91655,2.4906 -3.83121,3.0365 -0.91465,0.5457 -2.69236,1.3728 -3.95046,1.8377 -1.2581,0.465 -3.31692,0.9528 -4.57516,1.084 -1.35422,0.1413 -3.16809,0.057 -4.44524,-0.2092 -1.18662,-0.2466 -2.93434,-0.8741 -3.88377,-1.3947 -0.94945,-0.5206 -2.46596,-1.7518 -3.37002,-2.736 -0.90406,-0.9842 -2.04526,-2.6823 -2.53599,-3.7738 -0.49073,-1.0915 -1.11884,-3.1157 -1.39581,-4.4982 -0.27696,-1.3829 -0.75806,-5.4139 -1.06911,-8.9572 -0.31104,-3.544 -0.75543,-9.6743 -0.98753,-13.623 -0.23392,-3.9795 -0.44093,-17.7638 -0.46447,-30.9271 -0.0423,-23.6837 -0.0447,-23.7535 -0.85208,-25.8115 -0.44529,-1.1351 -1.32181,-2.8512 -1.94782,-3.8135 -0.62602,-0.9623 -1.96554,-2.4209 -2.97673,-3.2412 -1.01119,-0.8202 -3.1678,-2.1294 -4.79248,-2.9097 -1.62467,-0.7799 -5.12307,-2.0026 -7.77421,-2.7171 -2.65114,-0.7143 -5.30504,-1.4218 -5.89757,-1.5725 -0.60667,-0.154 -1.31331,-0.7017 -1.61753,-1.2537 -0.29712,-0.539 -0.42773,-1.0944 -0.29025,-1.2345 0.13748,-0.1401 4.44512,-0.3027 9.57253,-0.3614 5.12742,-0.059 17.27251,-0.2736 26.98909,-0.4771 11.08947,-0.2321 23.67611,-0.2477 33.8088,-0.042 8.87825,0.1805 19.15251,0.5022 22.83172,0.7149 3.6792,0.2125 10.02511,0.6472 14.10205,0.9665 4.07695,0.3191 9.53382,0.7806 12.12639,1.0253 4.66329,0.4406 4.75232,0.4662 8.31661,2.4011 1.98154,1.0758 5.14862,3.0382 7.03795,4.3607 1.88931,1.3227 4.73685,3.5159 6.32785,4.8736 1.591,1.358 4.55356,4.1926 6.58344,6.2994 2.0299,2.1068 4.92324,5.384 6.42963,7.2822 1.50642,1.8984 2.89254,3.7438 3.0803,4.1009 0.18775,0.3574 0.60287,2.7805 0.92248,5.3849 0.33517,2.7314 0.58464,7.5402 0.58944,11.3626 0.005,4.2172 -0.20999,8.22 -0.59199,11.0065 -0.33019,2.4085 -1.08057,6.2755 -1.66752,8.5934 -0.58696,2.318 -1.72478,5.9269 -2.52851,8.0201 -0.80373,2.0931 -2.28146,5.4334 -3.28386,7.4224 -1.00239,1.9892 -3.04956,5.522 -4.54928,7.8507 -1.49972,2.3288 -3.55224,5.3111 -4.56115,6.6275 -1.00891,1.3162 -3.221,4.0499 -4.91572,6.0749 -1.69474,2.0248 -5.70976,6.4154 -8.92229,9.7566 -3.21252,3.3415 -5.95679,6.459 -6.09837,6.9281 -0.18654,0.6182 0.0166,1.2772 0.7376,2.3934 0.54725,0.8469 5.98849,8.3329 12.09162,16.6353 6.10313,8.3026 13.82898,18.5749 17.16854,22.8275 3.33958,4.2525 7.75722,9.7503 9.817,12.2172 2.05978,2.4672 5.99852,7.0236 8.75276,10.1251 2.75425,3.1017 7.38468,7.9847 10.28986,10.8508 2.90521,2.8667 7.28735,6.8523 9.73812,8.8576 2.45076,2.0051 6.3221,4.9069 8.60296,6.4484 2.28088,1.5417 5.85558,3.7189 7.94377,4.8385 2.08818,1.1196 5.50169,2.7227 7.58554,3.563 2.08386,0.8398 5.39608,1.9559 7.36048,2.4802 2.91263,0.7773 3.64316,1.1128 3.95913,1.819 0.30432,0.68 0.26534,0.9903 -0.18172,1.4454 -0.46735,0.4759 -2.1121,0.6346 -9.19432,0.8874 -4.74382,0.1692 -12.61168,0.2887 -17.48412,0.2654 -4.87245,-0.023 -9.50986,-0.099 -10.30536,-0.1673 z"
         id="path125" /></g></g></svg>
