<?xml version="1.0" encoding="UTF-8" standalone="no"?>
<!-- Created with Inkscape (http://www.inkscape.org/) -->

<svg
   version="1.1"
   id="svg1"
   width="25"
   height="25"
   viewBox="0 0 500 500"
   xml:space="preserve"
   xmlns="http://www.w3.org/2000/svg"
   xmlns:svg="http://www.w3.org/2000/svg"><defs
     id="defs1" /><g
     id="g1"><g
       id="g125"
       transform="translate(-313.45095,-1058.2219)"><path
         style="fill:#9d2907;stroke-width:0.388908"
         d="m 739.88993,1433.1251 c -1.09155,-0.1204 -4.21729,-0.4774 -6.94609,-0.7933 -2.7288,-0.3158 -7.19413,-1.0563 -9.92297,-1.6453 -2.72881,-0.5892 -7.15177,-1.8058 -9.82882,-2.7035 -2.67704,-0.8978 -6.85324,-2.5732 -9.28042,-3.7232 -2.4272,-1.1498 -6.26508,-3.3186 -8.52866,-4.8193 -2.26356,-1.5007 -5.9017,-4.3024 -8.08475,-6.226 -2.18305,-1.9237 -5.76598,-5.6573 -7.96206,-8.297 -2.19608,-2.6398 -5.99306,-7.3603 -8.43773,-10.4901 -2.44467,-3.1298 -7.033,-9.2266 -10.1963,-13.5487 -3.16329,-4.322 -8.53731,-11.8822 -11.94226,-16.8005 -3.40495,-4.9181 -8.64583,-12.7222 -11.6464,-17.3423 -3.00058,-4.6201 -8.13605,-12.79 -11.41217,-18.1553 -3.27613,-5.3653 -8.57938,-14.339 -11.78501,-19.9415 -3.20563,-5.6026 -6.38646,-11.5648 -7.0685,-13.2494 -0.7074,-1.7472 -1.35809,-4.6004 -1.51481,-6.6423 -0.18993,-2.4746 -0.0279,-4.5068 0.52485,-6.5838 0.43977,-1.6524 1.89534,-4.81 3.23461,-7.017 1.33927,-2.207 3.93577,-5.8417 5.77,-8.0773 1.83423,-2.2355 4.61745,-5.7717 6.18494,-7.8583 1.56748,-2.0865 4.24885,-6.1105 5.95859,-8.9421 1.70975,-2.8317 4.52497,-8.2722 6.25604,-12.09 1.73108,-3.8178 4.06973,-10.0366 5.19699,-13.8197 1.12727,-3.783 2.45962,-8.9512 2.96079,-11.4849 0.50116,-2.5336 1.17921,-7.166 1.50677,-10.2943 0.36017,-3.4397 0.48766,-9.0088 0.32258,-14.0907 -0.15013,-4.6215 -0.64556,-10.4758 -1.10094,-13.0095 -0.45539,-2.5336 -1.50275,-6.9234 -2.32745,-9.7551 -0.8247,-2.8316 -2.46086,-7.2729 -3.63589,-9.8694 -1.17505,-2.5966 -3.32477,-6.6205 -4.77718,-8.9422 -1.45241,-2.3217 -4.56262,-6.3191 -6.91158,-8.8832 -2.34895,-2.564 -6.32204,-6.138 -8.82909,-7.9421 -2.50704,-1.804 -6.61655,-4.2641 -9.13225,-5.4668 -2.5157,-1.2027 -6.57674,-2.8187 -9.02454,-3.5913 -2.44779,-0.7726 -6.46659,-1.7723 -8.93066,-2.2217 -2.46407,-0.4494 -7.71749,-0.9599 -11.67428,-1.1345 -4.8135,-0.2124 -7.89407,-0.1082 -9.30929,0.3149 -1.16332,0.3478 -2.93088,1.4147 -3.9279,2.3708 -0.99701,0.9563 -2.25318,2.8262 -2.79148,4.1554 -0.76605,1.8916 -1.06302,4.3058 -1.36667,11.1099 -0.21338,4.7813 -0.65763,18.5703 -0.98722,30.6422 -0.3296,12.0719 -0.62625,32.9234 -0.65921,46.3367 -0.033,13.4132 0.0992,26.4607 0.29373,28.9942 0.33229,4.3282 0.31108,4.2627 -0.35071,-1.0839 -0.3874,-3.1298 -0.90724,-6.1782 -1.15518,-6.7743 -0.24796,-0.5962 -2.16498,-3.4008 -4.26006,-6.2325 -2.09508,-2.8316 -6.08808,-7.6858 -8.87336,-10.7869 -2.78526,-3.1012 -6.85025,-7.2816 -9.0333,-9.2897 -2.18305,-2.0082 -6.42512,-5.4592 -9.42681,-7.6688 -3.0017,-2.2097 -7.57866,-5.1563 -10.17104,-6.548 -4.27815,-2.2966 -5.19448,-2.5774 -9.92296,-3.0392 -5.20955,-0.5087 -5.20955,-0.5087 -0.46548,-0.2424 3.58478,0.2013 4.87376,0.09 5.27479,-0.454 0.29188,-0.3962 0.89132,-4.0301 1.33207,-8.0754 0.44075,-4.0452 1.05,-11.8243 1.35389,-17.2868 0.41057,-7.3804 0.40676,-11.8872 -0.0148,-17.5432 -0.31205,-4.1861 -0.98728,-9.7128 -1.50051,-12.2815 -0.51325,-2.5687 -1.61868,-6.6069 -2.45652,-8.9737 -0.83785,-2.3669 -2.43273,-5.8198 -3.54418,-7.6732 -1.11145,-1.8535 -3.35676,-4.6906 -4.98958,-6.3046 -1.6328,-1.614 -4.37113,-3.6887 -6.08514,-4.6104 -1.71403,-0.9217 -4.46155,-2.0522 -6.10561,-2.5122 -1.64407,-0.4601 -5.05182,-1.0445 -7.57279,-1.2986 -3.15102,-0.3176 -4.83906,-0.741 -5.40105,-1.3549 -0.62806,-0.686 -0.69233,-1.1104 -0.27741,-1.8312 0.42972,-0.7465 1.59406,-1.0149 5.6973,-1.3133 2.83646,-0.2064 11.29704,-0.7501 18.80128,-1.2083 7.50423,-0.4582 20.90023,-1.1141 29.76888,-1.4577 9.48341,-0.3674 24.40101,-0.4933 36.2188,-0.3057 11.0517,0.1754 23.7779,0.5814 28.28044,0.9021 4.50254,0.3208 11.46398,0.9434 15.46988,1.3836 4.00589,0.4401 10.03408,1.3087 13.39599,1.9301 3.36191,0.6213 9.01503,1.9298 12.56249,2.9077 3.54746,0.9778 8.68259,2.6927 11.4114,3.8109 2.72882,1.1181 6.97088,3.1324 9.42682,4.4759 2.45593,1.3436 6.31843,3.7894 8.58332,5.4349 2.26489,1.6456 6.23303,5.1784 8.81809,7.8507 2.58506,2.6724 6.15192,6.9635 7.92637,9.536 1.77445,2.5725 4.31812,7.116 5.65261,10.0967 1.33448,2.9807 2.88087,7.0534 3.43641,9.0504 0.55554,1.997 1.36305,5.6551 1.79445,8.1293 0.47118,2.7021 0.79302,7.5278 0.80603,12.0855 0.0124,4.3592 -0.30321,9.7779 -0.7419,12.7359 -0.41997,2.8316 -1.34144,7.5872 -2.04774,10.568 -0.7063,2.9807 -2.30625,8.224 -3.55546,11.6519 -1.24919,3.4279 -3.38383,8.6712 -4.74363,11.6519 -1.3598,2.9807 -3.91331,8.0419 -5.67447,11.2471 -1.76117,3.2052 -5.11271,8.6924 -7.4479,12.1939 -2.33519,3.5014 -5.83698,8.4263 -7.78176,10.9441 -1.94479,2.5178 -6.60589,8.049 -10.35801,12.2915 -6.54496,7.4004 -6.82204,7.8054 -6.82204,9.9729 0,1.2426 0.33518,3.0307 0.74483,3.9737 0.40967,0.943 4.58017,7.1988 9.26779,13.9017 4.68763,6.7028 12.35197,17.4304 17.0319,23.839 4.67993,6.4086 12.51001,16.8843 17.40018,23.2795 4.89017,6.3952 13.69026,17.6135 19.55577,24.9297 5.86551,7.3161 14.12637,17.1743 18.35749,21.9073 4.23109,4.7328 9.81395,10.5475 12.40633,12.9213 2.59236,2.374 6.94605,5.949 9.67489,7.9445 2.7288,1.9956 7.2613,4.9167 10.07222,6.4912 2.81093,1.5747 7.38789,3.7973 10.17106,4.9391 2.78314,1.1419 7.29293,2.7238 10.02174,3.5154 2.7288,0.7916 5.57831,1.7003 6.33221,2.0192 0.79947,0.3382 1.4986,1.1364 1.67758,1.9155 0.21155,0.9207 0.016,1.6533 -0.62957,2.3584 -0.76439,0.835 -2.43979,1.1795 -9.11981,1.8753 -4.50086,0.4688 -14.09996,0.9385 -21.33129,1.0438 -7.23135,0.1053 -14.04098,0.093 -15.13254,-0.027 z"
         id="path126" /><path
         style="fill:#211611;stroke-width:0.388908"
         d="m 599.48002,1517.7935 c -1.09153,-0.1014 -3.88236,-0.44 -6.20185,-0.7528 -2.3195,-0.3126 -5.89176,-0.9319 -7.93836,-1.3762 -2.04662,-0.4442 -5.95378,-1.5433 -8.6826,-2.4425 -2.72881,-0.8992 -7.86395,-3.1934 -11.41141,-5.0984 -4.0662,-2.1835 -8.37523,-5.0499 -11.65948,-7.7561 -2.86525,-2.3609 -6.99981,-6.3349 -9.18791,-8.8312 -2.18809,-2.4962 -7.5527,-9.4163 -11.92135,-15.3776 -4.36865,-5.9615 -11.19484,-15.4727 -15.16931,-21.1361 -3.97447,-5.6634 -10.06897,-14.6423 -13.54332,-19.9532 -3.47436,-5.3109 -9.2899,-14.5783 -12.92343,-20.5941 -3.63352,-6.0158 -8.95985,-15.2404 -11.83629,-20.4991 -2.87643,-5.2585 -5.93892,-11.0953 -6.80554,-12.9705 -1.34788,-2.9167 -1.54635,-3.8524 -1.37284,-6.4725 0.12112,-1.829 0.73544,-4.252 1.52495,-6.0146 0.72717,-1.6235 2.92735,-5.0171 4.88929,-7.5413 1.96194,-2.5242 5.35847,-7.0283 7.54784,-10.009 2.18938,-2.9807 5.96919,-8.7119 8.39958,-12.7358 2.43039,-4.024 6.03006,-10.8575 7.99928,-15.1857 1.96922,-4.3282 4.39247,-10.5471 5.38499,-13.8197 0.99253,-3.2727 2.30787,-8.5111 2.92296,-11.6409 0.94912,-4.8292 1.1213,-7.3717 1.13785,-16.8004 0.015,-8.5397 -0.18505,-12.2384 -0.86466,-15.9875 -0.48628,-2.6827 -1.34121,-6.7066 -1.89982,-8.9422 -0.55862,-2.2355 -1.88734,-6.5034 -2.95271,-9.4841 -1.06538,-2.9807 -2.90721,-7.196 -4.09298,-9.3674 -1.18577,-2.1712 -3.57287,-5.9127 -5.30467,-8.3144 -1.7318,-2.4016 -4.92271,-6.0248 -7.09091,-8.0515 -2.16821,-2.0267 -5.66663,-4.8055 -7.77428,-6.1749 -2.10764,-1.3694 -5.39474,-3.2162 -7.30465,-4.104 -1.90993,-0.8878 -5.42709,-2.2328 -7.81595,-2.9891 -2.38884,-0.756 -6.89677,-1.7403 -10.01761,-2.1873 -3.12084,-0.4469 -7.88406,-0.8124 -10.58492,-0.8124 -2.70086,0 -7.54472,0.3771 -10.76411,0.8381 -3.2194,0.461 -6.34871,1.1926 -6.95403,1.6258 -0.60531,0.4333 -1.33772,1.2717 -1.62755,1.8633 -0.34892,0.7122 -0.78856,21.451 -1.30109,61.3758 -0.74471,58.0107 -0.81079,60.3655 -1.74052,62.0208 -0.53153,0.9462 -2.30518,3.0743 -3.94143,4.7291 -1.63626,1.6547 -4.00186,3.6659 -5.25689,4.4693 -1.25502,0.8034 -3.69426,2.0207 -5.42053,2.7052 -1.72626,0.6844 -4.55122,1.4025 -6.27768,1.5957 -1.85816,0.208 -4.347,0.082 -6.09941,-0.3081 -1.6282,-0.3627 -4.02627,-1.2865 -5.32902,-2.0529 -1.30276,-0.7664 -3.3836,-2.5786 -4.62407,-4.0273 -1.24049,-1.4486 -2.80635,-3.9482 -3.4797,-5.5548 -0.67334,-1.6066 -1.53519,-4.5862 -1.91522,-6.6216 -0.38002,-2.0353 -1.04015,-7.9684 -1.46695,-13.1846 -0.4268,-5.2163 -1.03655,-14.2398 -1.35502,-20.0522 -0.32096,-5.8578 -0.605,-26.1477 -0.63731,-45.5237 -0.0581,-34.8614 -0.0613,-34.964 -1.16917,-37.9936 -0.61099,-1.6708 -1.81367,-4.1967 -2.67264,-5.6132 -0.85897,-1.4165 -2.69696,-3.5634 -4.08444,-4.7708 -1.38748,-1.2074 -4.34662,-3.1347 -6.57587,-4.2829 -2.22925,-1.1482 -7.02948,-2.9479 -10.66717,-3.9995 -3.63771,-1.0515 -7.27919,-2.0931 -8.0922,-2.3147 -0.83243,-0.2269 -1.80202,-1.0331 -2.21945,-1.8455 -0.40769,-0.7934 -0.58691,-1.6112 -0.39826,-1.8172 0.18864,-0.2061 6.09925,-0.4456 13.1347,-0.5321 7.03544,-0.087 23.70001,-0.4026 37.03235,-0.7021 15.21613,-0.3418 32.48655,-0.3645 46.38985,-0.061 12.18206,0.266 26.27963,0.7395 31.32794,1.0523 5.04831,0.3128 13.7557,0.953 19.34976,1.4227 5.59408,0.4698 13.08158,1.1491 16.63891,1.5094 6.39862,0.6483 6.52076,0.6861 11.4114,3.5343 2.71894,1.5835 7.06457,4.472 9.65695,6.4189 2.59237,1.9469 6.49954,5.1751 8.68259,7.1737 2.18305,1.9986 6.24804,6.1713 9.0333,9.2724 2.78528,3.1012 6.75529,7.9248 8.82225,10.7191 2.06698,2.7943 3.96892,5.5107 4.22654,6.0366 0.25762,0.5258 0.82721,4.0926 1.26576,7.9262 0.4599,4.0203 0.8022,11.0987 0.80879,16.7253 0.007,6.2074 -0.28813,12.0993 -0.81229,16.201 -0.45305,3.5452 -1.48267,9.2374 -2.28804,12.6493 -0.80537,3.4119 -2.36661,8.7243 -3.46943,11.8053 -1.10282,3.081 -3.13045,7.9976 -4.50586,10.9255 -1.3754,2.928 -4.18438,8.1282 -6.24218,11.556 -2.0578,3.4279 -4.87411,7.8177 -6.25846,9.7551 -1.38435,1.9375 -4.4196,5.9615 -6.74497,8.9422 -2.32539,2.9807 -7.8345,9.4435 -12.24248,14.3616 -4.40798,4.9183 -8.17346,9.5073 -8.36772,10.1979 -0.25596,0.9098 0.0227,1.8798 1.01207,3.5227 0.7509,1.2468 8.21695,12.2659 16.5912,24.4868 8.37425,12.221 18.97507,27.3415 23.55736,33.601 4.58231,6.2594 10.64386,14.3521 13.47014,17.9836 2.82628,3.6315 8.23072,10.3381 12.00987,14.9036 3.77916,4.5655 10.13269,11.753 14.11897,15.9721 3.98629,4.2193 9.99913,10.0862 13.36188,13.0378 3.36275,2.9515 8.67471,7.2229 11.80434,9.492 3.12965,2.269 8.03457,5.4739 10.89982,7.1219 2.86526,1.648 7.549,4.008 10.4083,5.2445 2.85931,1.2364 7.40409,2.8794 10.0995,3.651 3.99648,1.1441 4.99885,1.6381 5.4324,2.6774 0.41757,1.0012 0.36408,1.4576 -0.24934,2.1276 -0.64127,0.7006 -2.89806,0.9341 -12.61573,1.3062 -6.50912,0.2491 -17.30479,0.425 -23.99038,0.3906 -6.6856,-0.034 -13.0487,-0.1451 -14.14022,-0.2464 z"
         id="path125" /></g></g></svg>
