<?xml version="1.0" encoding="UTF-8" standalone="no"?>
<!-- Created with Inkscape (http://www.inkscape.org/) -->

<svg
   version="1.1"
   id="svg1"
   width="1196.0525"
   height="1045.3047"
   viewBox="0 0 1196.0525 1045.3047"
   xml:space="preserve"
   xmlns="http://www.w3.org/2000/svg"
   xmlns:svg="http://www.w3.org/2000/svg"><defs
     id="defs1" /><g
     id="g1"
     transform="translate(-11.32175,179.5787)"><g
       id="g125"
       transform="translate(-311.45095,-1056.2219)"><g
         id="g126"
         transform="translate(2604.0508,233.41711)"><path
           id="path127"
           style="fill:#9e2907"
           d="m -1734.241,643.22609 -43.334,1.53711 -43.332,1.53711 -36.668,2.05078 -36.666,2.04883 -13.8593,0.92383 -13.8594,0.92187 -1.4512,2.30859 -1.4512,2.3086 2.1954,2.19726 2.1972,2.19532 12.3184,1.13672 12.3183,1.13671 8.0332,2.0586 8.0332,2.05859 8.3731,4.12305 8.375,4.12305 7.9785,7.21875 7.9785,7.2207 5.4317,8.29101 5.4296,8.28907 4.0938,10.58789 4.0937,10.58789 2.5079,11.49023 2.5078,11.49024 1.5254,18.72461 1.5234,18.72656 -1.4844,24.43555 -1.4843,24.43359 -2.1348,18.0957 -2.1348,18.09571 -1.7441,1.83593 -1.7461,1.83789 -0.1055,-0.01 c -0.1034,0.18831 -0.2081,0.37601 -0.3066,0.5664 -0.1449,0.2728 -0.2961,0.54123 -0.4668,0.79883 -0.027,0.0383 -0.056,0.0743 -0.084,0.11133 l 0.4531,0.0391 5.7149,0.47461 10.9511,5.65039 10.9532,5.65235 14.666,9.72461 14.6679,9.72461 12.6661,10.61328 12.666,10.61328 12.6679,13.20898 12.6661,13.21094 9.0957,11.30664 9.0957,11.30664 1.8632,3.51953 1.8614,3.51953 0.027,0.26563 c 0.045,0.021 0.091,0.0406 0.1367,0.0606 0.5261,0.23898 1.0567,0.46655 1.5879,0.69335 l -0.748,-6.72656 0.8535,-60.8457 0.8555,-60.8457 1.3945,-45.82032 1.3945,-45.82031 1.0996,-23.38281 1.0996,-23.38281 2.6309,-5.95118 2.6328,-5.95117 4.8711,-4.27539 4.8711,-4.27734 5.6856,-1.55664 5.6835,-1.55469 19.334,0.7793 19.3321,0.78125 12.041,2.00976 12.039,2.01172 11.961,3.45508 11.959,3.45508 12.2929,5.38086 12.291,5.3789 12.25,8.07032 12.25,8.07031 11.4766,11.46875 11.4785,11.4707 7.0957,10.38477 7.0977,10.38476 5.7402,11.61524 5.7422,11.61523 4.0293,12.66602 4.0293,12.66601 2.2266,11.33399 2.2246,11.33398 0.7324,20.67383 0.7344,20.67187 -1.6016,13.99414 -1.5996,13.99219 -2.4492,11.33399 -2.4473,11.33398 -5.5098,16.92188 -5.5078,16.92187 -8.457,17.07813 -8.459,17.07805 -8.3535,12.666 -8.3535,12.6661 -7.6602,9.3339 -7.6582,9.334 -8.9629,10 -8.9629,10 -6.5429,9.8712 -6.543,9.8731 -2.1504,7.3906 -2.1484,7.3925 0.7383,8.8066 0.7382,8.8047 3.3321,7.5371 3.334,7.5352 15.6621,25.0605 15.664,25.0606 16.0078,24 16.0079,24 14.6601,20.6679 14.6621,20.666 16.6367,22 16.6368,22 15.457,19.334 15.4551,19.3321 11.9453,14 11.9453,14 10.7305,11.8085 10.7304,11.8087 10.666,8.6054 10.6661,8.6035 11.0605,6.7129 11.0606,6.7129 11.8593,5.1445 11.8594,5.1447 13.0801,4.0155 13.0801,4.0156 13.3339,2.6348 13.334,2.6348 14,1.7461 14,1.7461 38.666,-0.098 38.6661,-0.1 23.3203,-2.2578 23.3183,-2.2598 2.5235,-2.5215 2.5215,-2.5215 -0.8243,-3.2871 -0.8242,-3.2852 -3.6836,-1.4277 -3.6836,-1.4277 -13.334,-3.541 -13.3339,-3.5391 -13.5977,-5.1074 -13.5996,-5.1075 -13.7344,-7.0469 -13.7344,-7.041 -13.3339,-8.9257 -13.3321,-8.9277 -12.6679,-10.6193 -12.6661,-10.619 -20.6738,-21.17 -20.6738,-21.1719 -28.6602,-32.7266 -28.6582,-32.7246 -23.8945,-28.6074 -23.8945,-28.6074 -22.8672,-28.666 -22.8653,-28.668 -22.9042,-29.9824 -22.9043,-29.9844 -2.002,-4.2168 -2.002,-4.2207 v -5.5586 -5.5566 l 18.334,-18.9766 18.3321,-18.9785 9.5039,-11.2617 9.5019,-11.2637 11.4102,-15.6621 11.4101,-15.66209 8.6055,-14.33789 8.6035,-14.33789 6.6446,-13.33203 6.6445,-13.33398 6.1035,-15.33399 6.1035,-15.33203 3.4512,-13.33398 3.4512,-13.33399 2.0527,-12.66601 2.0508,-12.66602 -0.061,-18.66797 -0.062,-18.66601 -2.1074,-11.06641 -2.1074,-11.06836 -2.7149,-8.93164 -2.7148,-8.93359 -6.5215,-13.33399 -6.5195,-13.33203 -8.6699,-11.50781 -8.67,-11.50781 -12.6308,-11.95313 -12.6309,-11.95312 -11.0664,-7.36133 -11.0664,-7.36133 -12,-6.00976 -12,-6.00977 -13.334,-5.00195 -13.334,-5.00196 -17.332,-4.375 -17.334,-4.37304 -16.4277,-2.7793 -16.4258,-2.7793 -19.5742,-1.9707 -19.5723,-1.96875 -22,-1.43359 -22,-1.43555 -54,-0.78516 z" /><path
           id="path126"
           style="fill:#0a0706"
           d="m -2031.3796,866.83546 -90.6661,1.1211 -90.666,1.12109 -32.7656,0.16992 -32.7637,0.16797 -1.5195,0.9375 -1.5176,0.93946 1.5,3.29296 1.5,3.29297 4.7832,1.25196 4.7832,1.2539 13.9668,3.50586 13.9688,3.50586 10.2246,3.94336 10.2246,3.94336 7.8066,5.07227 7.8086,5.07226 5.5703,6.08594 5.5723,6.08594 2.6152,5.13281 2.6133,5.13086 2.252,7.33398 2.2519,7.33399 -0.1523,78.00002 -0.1543,78 1.3965,28.666 1.3965,28.666 2.082,24.668 2.084,24.666 1.8047,10.3945 1.8046,10.3926 3.9317,8.2734 3.9336,8.2735 4.7305,5.4258 4.7304,5.4277 8.4356,4.5195 8.4336,4.5215 12.8183,0.5332 12.8164,0.5332 7.8496,-2.2656 7.8496,-2.2676 9.25,-4.8457 9.252,-4.8437 8.9512,-8.9493 8.9492,-8.9511 1.3516,-4.42 1.3515,-4.4179 1.4981,-140.668 1.498,-140.66601 0.6992,-6.90234 0.6992,-6.90039 3.3243,-3.32422 3.3222,-3.32422 9.5938,-1.77344 9.5937,-1.77539 h 28 28 l 13.8907,3.10938 13.8925,3.11133 9.4414,3.37109 9.4414,3.37109 11.7891,6.05078 11.7891,6.05079 8.2109,6.02929 8.2109,6.0293 8.4747,8.10547 8.4746,8.10547 7.6015,10.07617 7.6035,10.07422 6.7735,13.25783 6.7734,13.2578 3.4551,9.6699 3.4551,9.668 2.6386,10.3398 2.6407,10.3399 2.1543,13.3242 2.1543,13.3242 0.033,19.3965 0.031,19.3965 -1.5683,10.6035 -1.5664,10.6035 -3.3379,13.334 -3.336,13.334 -4.7285,12.666 -4.7305,12.666 -6.0097,12 -6.0098,12 -7.9414,13.1543 -7.9414,13.1523 -8.0352,11.3047 -8.0332,11.3047 -10.3574,12.877 -10.3555,12.875 -7.5156,8.666 -7.5156,8.666 -4.3066,8.6484 -4.3086,8.6465 0.059,8.0196 0.058,8.0195 9.129,16 9.1269,16 12.6973,20.666 12.6953,20.668 15.6523,23.332 15.6543,23.334 14.3086,20 14.3067,20 16.7265,22 16.7266,22 26.0351,32.666 26.0332,32.668 10.7286,10.7051 10.7285,10.705 12,8.918 12,8.9199 15.4297,8 15.4277,8 13.9043,4.6328 13.9043,4.6348 13.4609,2.7246 13.461,2.7266 13.207,1.3496 13.2051,1.3496 6.666,0.4258 6.668,0.4277 17.5566,0.2402 17.5566,0.2403 40.4434,-1.3535 40.4434,-1.3536 3,-0.6718 3,-0.6719 v -3.1445 -3.1446 l -1.6661,-1.3222 -1.6679,-1.3223 -7.3321,-1.6895 -7.3339,-1.6914 -15.0079,-5.291 -15.0058,-5.2929 -16.3262,-8.2559 -16.3262,-8.2559 -15.3339,-10.0468 -15.334,-10.0469 -13.6719,-10.6875 -13.6738,-10.6856 -17.1875,-15.6699 -17.1875,-15.6679 -14.5645,-15.5352 -14.5644,-15.5332 -11.9082,-13.334 -11.9102,-13.332 -16.7187,-20 -16.7188,-20 -10.7031,-13.334 -10.7051,-13.334 -18.5234,-24 -18.5235,-24 -33.0527,-44.5625 -33.0527,-44.5644 v -3.1582 -3.1583 l 20.832,-21.6113 20.834,-21.6113 12.6679,-14.666 12.6661,-14.668 7.8183,-10.2324 7.8164,-10.2344 9.4239,-14.4336 9.4238,-14.4316 8.4941,-17.334 8.4942,-17.334 5.3027,-16 5.3047,-16 2.7754,-14 2.7773,-14 1.3399,-12 1.3418,-12 0.01,-19.0371 0.012,-19.0371 -2.041,-19.4434 -2.0429,-19.44138 -1.8633,-3.51953 -1.8613,-3.52148 -9.0958,-11.30664 -9.0957,-11.30664 -12.666,-13.21094 -12.6679,-13.20898 -12.6661,-10.61329 -12.666,-10.61132 -14.6679,-9.72461 -14.6661,-9.72461 -10.9531,-5.65235 -10.9512,-5.65234 -5.7148,-0.47266 -5.7148,-0.47461 -32,-2.66015 -32,-2.65821 -20.6661,-1.3125 -20.666,-1.31054 -45.334,-1.56446 z" /></g></g></g></svg>
