<svg
   version="1.1"
   id="svg1"
   width="39"
   height="11"
   viewBox="0 0 3851.6191 1078.6058"
   xml:space="preserve"
   xmlns="http://www.w3.org/2000/svg"
   xmlns:svg="http://www.w3.org/2000/svg"><defs
     id="logo-name" /><g
     id="g1"
     transform="translate(-1455.519,177.5494)"><g
       id="g125"
       transform="translate(-313.45095,-1058.2219)"><g
         id="g126"
         transform="translate(2604.0508,233.41711)"><path
           id="path127"
           style="fill:#9e2907"
           d="m 527.56372,647.25539 -4.89844,0.68164 -4.89843,0.68164 -67.33399,24.42383 -67.33398,24.42187 -3,2.99609 -3,2.99805 v 4.78711 4.78711 l 3,2.99414 3,2.99414 18.13086,9.56445 18.13086,9.56446 1.47656,1.77929 1.47656,1.7793 2.70899,45.93555 2.70898,45.93555 1.51758,38 1.51758,38 -0.78125,36 -0.78321,36 -1.43164,18 -1.43164,17.99999 -2.73633,21.332 -2.73632,21.334 -1.56836,3.334 -1.56836,3.332 -21.1836,14.1309 -21.18554,14.1309 -1.79688,2.457 -1.79687,2.459 v 1.8476 1.8477 l 3.89648,3.8965 3.89844,3.8984 H 480.3313 581.09888 l 2.66797,-2.668 2.66601,-2.666 v -2.8965 -2.8984 l -19.13672,-18.7695 -19.13672,-18.7696 -4.88281,-10 -4.88086,-10 -2.31445,-10 -2.31445,-10 0.23632,-128.66598 0.23438,-128.66601 1.5332,-50.1504 1.53125,-50.14843 -1.52734,-5.67188 -1.52734,-5.66992 -3.3418,-3.3418 z m -203.33594,0.32422 -67.89648,24.125 -67.89844,24.12695 -4.21094,1.9668 -4.20898,1.96679 -1.58203,3.81836 -1.58203,3.81836 0.88672,4.0332 0.88476,4.03125 4.44531,3.9043 4.44532,3.90234 13.12695,5.00196 13.12891,5.0039 2.59961,2.45313 2.59765,2.45312 2.3125,43.69141 2.31055,43.69141 -2.11719,2.33789 -2.11719,2.33984 h -2.95898 -2.95898 l -5.83399,-2.08203 -5.83398,-2.08203 -10.66797,-2.55274 -10.66602,-2.55273 -14.82422,-1.29688 -14.82422,-1.29882 -13.17578,1.31836 -13.17578,1.3164 -12.49414,3.29297 -12.494139,3.29297 -11.142578,5.2207 -11.142578,5.22266 -9.802734,6.77734 -9.802735,6.77539 -10.664062,10.99024 -10.666016,10.99219 -5.380859,8 -5.38086,8 -4.6875,9.33203 -4.6875,9.33398 -4.009765,12.66602 -4.0078128,12.66797 -1.6699218,11.46289 -1.6699219,11.46484 0.7636719,20.53516 0.7617187,20.53711 2.2011719,9.99999 2.199219,10 2.625,8 2.625,8 5.921875,12 5.923828,12 6.753906,8.9629 6.753906,8.9648 7.585938,7.7032 7.58789,7.7031 8.341797,6.418 8.34375,6.4179 11.044922,5.875 11.044922,5.875 5.945317,2.1621 5.94531,2.1602 11.33398,2.5391 11.33399,2.5371 14.66797,-0.5547 14.66601,-0.5547 8,-2.1465 8,-2.1484 9.6582,-4.5547 9.65821,-4.5547 5.98828,-4.1191 5.98633,-4.1192 7.5625,-6.6172 7.56054,-6.6172 h 1.69727 1.69726 l 2.09571,2.0957 2.0957,2.0957 0.006,8.2383 0.008,8.2383 1.3711,4.9395 1.37304,4.9394 3.4668,2.7266 3.4668,2.7265 h 3.12304 3.12305 l 55.69727,-17.5097 55.69726,-17.5098 4.48047,-1.4258 4.48047,-1.4258 3.85156,-3.5996 3.85352,-3.5996 v -3.4004 -3.4023 l -1.53321,-3.3672 -1.5332,-3.3652 -15.17187,-8.9551 -15.17383,-8.9551 -0.57227,-2.7422 -0.57226,-2.7422 -0.59766,-146.66598 -0.5957,-146.66601 -1.58008,-48 -1.57813,-48 -1.91015,-3 -1.9082,-3 h -3.07227 z m 1350.42772,2 -7.1113,0.20312 -7.1113,0.20313 -52,19.2871 -52,19.28516 -13.6934,5.00195 -13.6953,5.00196 -2.6387,3.35547 -2.6387,3.35351 v 3.64063 3.64062 l 2.5528,3.24805 2.5547,3.24609 16.9199,7.10547 16.9199,7.10547 1.6836,4.16016 1.6856,4.16211 2.4179,43.83984 2.416,43.8418 -2.2734,1.66015 -2.2715,1.66211 -14.9707,-5.0664 -14.9687,-5.06641 -12,-2.30859 -12,-2.3086 -17.334,0.0449 -17.3321,0.0449 -9.4023,2.08593 -9.4023,2.08789 -6.5977,2.17383 -6.5977,2.17383 -10.705,5.22852 -10.7051,5.22656 -11.9629,9.08008 -11.9609,9.07812 -9.3653,10.86719 -9.3633,10.86523 -6.373,10.54102 -6.3711,10.54101 -5.4121,12.51954 -5.4121,12.51953 -3.1719,12.45507 -3.1738,12.45704 -1.5059,12.21093 -1.5058,12.21094 0.7226,14.66602 0.7246,14.66791 2.2149,10.666 2.2148,10.6661 4.3653,11.6563 4.3671,11.6562 6.5215,10.8203 6.5235,10.8204 10.2324,10.955 10.2324,10.9532 9.7676,6.7343 9.7676,6.7364 10.6972,5.3632 10.6953,5.3633 11.3047,3.5 11.3028,3.5 8,1.2285 8,1.2286 12.1836,-0.6076 12.1855,-0.6074 10.0488,-2.5703 10.0508,-2.5703 9.9746,-4.1524 9.9766,-4.1542 12.248,-8.2598 12.2481,-8.2598 3.1328,-1.9648 3.1328,-1.9649 0.8574,0.8575 0.8574,0.8574 3.3086,13.1075 3.3106,13.1074 2.0547,3.1738 2.0527,3.1758 7.5215,-0.7988 7.5215,-0.7988 23.334,-5.9492 23.3339,-5.9473 18.9864,-6.1426 18.9863,-6.1406 15.0137,-6.0352 15.0136,-6.0332 3,-2.8183 3,-2.8164 v -3.0547 -3.0547 l -4.0546,-4.6172 -4.0528,-4.6172 -13.1308,-6.7441 -13.1289,-6.7442 -0.8985,-2.3398 -0.8984,-2.3399 -0.6172,-170.01173 -0.6211,-170.01171 -0.7812,-24.43165 -0.7813,-24.43164 -3.0723,-3.56836 z m -2268.32029,17.63867 -90.95118,0.79492 -90.95117,0.79297 -24.99023,1.34765 -24.99024,1.34766 -3.91601,2.02344 -3.91406,2.02539 -0.85157,2.67969 -0.85156,2.68164 0.82031,2.58398 0.82032,2.58203 6.04687,4.00586 6.04688,4.00391 14.88867,6.25781 14.89062,6.25586 6.23828,3.12891 6.24024,3.13086 0.83398,1.35156 0.83594,1.35156 3.27734,16.76367 3.2793,16.76172 1.9375,14.24414 1.9375,14.2461 1.71094,17.33203 1.70898,17.33398 -0.11523,62 -0.11328,62 -2.875,49.33399 -2.875,49.33199 -1.88868,6.9922 -1.88671,6.9922 -2.84571,5.8789 -2.8457,5.877 -6.43359,6.0175 -6.4336,6.0176 -6.54297,3.3164 -6.54492,3.3164 -9.90625,3.0098 -9.90625,3.0078 -3.06055,3.0606 -3.06054,3.0605 v 5.2129 5.2148 l 2.85156,3.6231 2.85156,3.625 2.81446,1.1387 2.8164,1.1367 118.39453,0.084 118.39453,0.086 3.27149,-3.2734 3.27344,-3.2735 -0.006,-3.7265 -0.004,-3.7266 -2.54883,-4.1816 -2.54883,-4.1797 -6.44726,-2.3047 -6.44531,-2.3047 -8.2461,-3.8887 -8.24804,-3.8886 -6.08789,-6.7735 -6.0879,-6.7715 -4.05859,-8.5039 -4.05859,-8.5019 -2.55469,-10.3516 -2.55664,-10.3496 -1.38477,-12.9473 -1.38476,-12.94918 0.0625,-15.71875 0.0625,-15.71875 1.74804,-22.96875 1.74805,-22.96875 1.82813,-2.20117 1.82617,-2.20117 9.58594,0.72656 9.58593,0.72461 5.93946,2.62695 5.9414,2.62696 5.61524,5.07421 5.61718,5.07422 3.70508,5.41016 3.70508,5.41016 40.28125,79.33199 40.28125,79.334 3.31836,3.0078 3.31641,3.0078 72.25,-0.7187 72.25,-0.7207 12.41015,-0.752 12.41016,-0.7519 3.52344,-3.0293 3.52148,-3.0313 v -4.7734 -4.7715 l -2.41992,-2.6758 -2.42188,-2.6777 -8.17968,-2.7402 -8.17774,-2.7422 -9.33398,-5.2207 -9.33203,-5.2188 -11.0918,-8.9297 -11.0918,-8.9296 -11.39453,-12.7969 -11.39453,-12.7989 -9.0625,-12.7011 -9.06445,-12.7012 -7.9336,-12.66796 -7.93359,-12.66602 -9.66211,-17.70703 -9.66016,-17.70508 -9.85546,-21.39258 -9.85547,-21.39257 v -2.62891 -2.63086 l 4.14062,-2.27148 4.14258,-2.27149 11.27734,-6.61914 11.2793,-6.62109 10.625,-9.86914 10.625,-9.8711 5.79688,-8.17578 5.79882,-8.17773 4.24805,-8.47461 4.24805,-8.47461 2.61914,-10.19141 2.61914,-10.1914 v -13.33399 -13.33398 l -2.66602,-10.375 -2.66601,-10.375 -5.59961,-11.30078 -5.59961,-11.29883 -6.14453,-7.62696 -6.14258,-7.625 -7.94727,-6.40234 -7.94922,-6.4043 -12.68554,-6.47851 -12.6875,-6.48047 -10,-3.58008 -10,-3.57812 -15.76953,-3.85547 -15.77149,-3.85742 -17.5625,-2.64063 -17.5625,-2.64062 -19.04883,-1.58594 z m 1.57226,33.69336 9.13867,2.08007 9.13868,2.07813 7.79101,4.66797 7.79102,4.66601 6.25976,6.13282 6.25977,6.13086 3.94531,7.45507 3.94727,7.45704 2.12695,7.24218 2.12695,7.24024 v 35.47851 35.47852 l -2.04297,7.8457 -2.04492,7.84766 -3.57617,6.57226 -3.57813,6.57227 -5.04296,5.73047 -5.04493,5.73047 -7.00195,4.60742 -7.00195,4.60742 -8,3.01563 -8,3.01367 -15.33203,0.57226 -15.33399,0.57032 -5.48828,-2.58399 -5.48828,-2.58398 -3.8457,-5.04102 -3.84375,-5.04101 -0.4043,-72.77149 -0.4043,-72.77148 1.4043,-4.81836 1.40234,-4.82032 2.89649,-3.68164 2.89453,-3.68164 5.43945,-2.46875 5.4375,-2.4707 11.73633,-0.0293 z m 1665.18363,112 -63.6621,24.66211 -63.66215,24.66015 -3.25,2.41992 -3.25,2.41993 -1.12696,3.38476 -1.1289,3.38281 1.32617,3.48633 1.32617,3.48828 6.94141,3.51758 6.9414,3.51563 6.91407,6.54101 6.91601,6.54102 4.19336,8.32422 4.19141,8.32422 2.73437,10.66601 2.73438,10.66602 1.07422,16.07031 1.07421,16.07031 -1.04492,19.26563 -1.04492,19.26371 -3.4375,26.4062 -3.43945,26.4063 -2.64258,5.1816 -2.64453,5.1816 -4.3457,3.2461 -4.34571,3.2461 -5.15625,1.6524 -5.15429,1.6523 -6.45508,-0.6191 -6.45508,-0.6211 -4.39063,-3.5293 -4.38867,-3.5313 -4.98242,-4.2226 -4.98242,-4.2227 -5.6836,1.8848 -5.68554,1.8867 -6.31641,-0.2012 -6.3164,-0.2011 -4.21094,-2.4649 -4.21094,-2.4668 -2.80469,-3.7617 -2.80664,-3.7617 -0.86523,-61.57228 -0.86328,-61.57031 -1.4961,-14.66797 -1.49609,-14.66602 -2.10547,-12.66601 -2.10547,-12.66797 -3.89453,-12.22071 -3.89453,-12.2207 -5.52734,-8.27734 -5.52735,-8.27735 -7.8125,-5.75195 -7.8125,-5.75195 -7.39258,-2.76563 -7.39453,-2.76562 -12.23828,-2.13086 -12.24023,-2.12891 -26,0.68359 -26,0.68165 -11.08203,2.08203 -11.08204,2.08203 -12.49414,3.32617 -12.49414,3.32422 -13.09179,4.89062 -13.08985,4.89063 -11.92969,5.97656 -11.92968,5.97852 -8.20313,5.18164 -8.20508,5.18164 -6.9375,7.33594 -6.93945,7.33593 -3.45703,7.55078 -3.45703,7.55274 v 8.84765 8.84961 l 3.69531,8.23243 3.69531,8.23437 7.16407,6.77539 7.16406,6.77539 7.66992,3.54688 7.66992,3.54883 10.66602,0.0469 10.66797,0.0469 7.62304,-3.57422 7.625,-3.57422 6.53516,-6.11328 6.53711,-6.11328 4.06836,-8.3125 4.07031,-8.3125 5.60547,-15.33399 5.60547,-15.33398 4.38476,-8.74219 4.38672,-8.74414 5.36524,-4.84766 5.36718,-4.84765 4.83008,-0.90625 4.83008,-0.90625 5.22656,0.70117 5.22657,0.70117 6.17382,2.98828 6.17383,2.98828 2.48633,5.47461 2.48633,5.47461 0.0293,35.5918 0.0293,35.59179 -3,3.32227 -3,3.32031 -18.66601,4.65625 -18.66797,4.6543 -16,5.26562 -16,5.26563 -17.33203,6.92969 -17.33399,6.92968 -18.66601,9.07032 -18.66797,9.07031 -8.01758,6.04106 -8.01953,6.043 -4.13086,5.791 -4.13086,5.791 -2.39063,4.666 -2.39257,4.666 -1.77539,6.668 -1.77735,6.666 -0.0156,7.3867 -0.0156,7.3868 1.98828,7.6347 1.99024,7.6367 3.42773,6.7637 3.42774,6.7656 5.58203,6.0977 5.58398,6.0977 7.94531,5.1601 7.94336,5.1621 9.06641,2.7539 9.06445,2.7539 12.32422,0.8672 12.32227,0.8672 8.66797,-0.3984 8.66601,-0.3965 10.66602,-2.0235 10.66797,-2.0234 11.82617,-3.9414 11.82617,-3.9395 15.36914,-7.3066 15.36719,-7.3047 h 2.59961 2.59961 l 11.20703,7.4571 11.20898,7.4589 10.34375,4.3614 10.34375,4.3632 9.58399,2.1797 9.58398,2.1797 h 12.64844 12.65039 l 9.08789,-1.9336 9.08594,-1.9336 7.33398,-2.6035 7.33399,-2.6035 8.9707,-4.1309 8.9707,-4.1289 h 4.67383 4.67578 l 19.6875,3.9395 19.6875,3.9394 18,2.0079 18,2.0097 19.33398,0.8711 19.3321,0.8711 22.3984,-1.5566 22.3965,-1.5567 17.2324,-2.5293 17.2324,-2.5293 2.7032,-1.4453 2.705,-1.4472 v -3.3067 -3.3047 l -5.8535,-7.1855 -5.8515,-7.1856 -5.4551,-10.8984 -5.4551,-10.8984 -2.6387,-8.8965 -2.6386,-8.8985 -1.9532,-11.332 -1.955,-11.334 -0.9219,-14 -0.9238,-14.00003 1.5507,-19.33398 1.5528,-19.33203 2.5879,-18 2.5879,-18 4.2402,-8.66797 4.2383,-8.66602 9.4433,-9.36328 9.4453,-9.36133 7.9415,-3.8125 7.9414,-3.81445 8.0605,-0.64649 8.0625,-0.64648 4.9141,2.05273 4.914,2.05274 4.0977,5.65625 4.0957,5.65625 2.6953,8.72461 2.6953,8.72461 1.9063,12.05468 1.9082,12.05665 0.8691,20 0.8711,20 -1.5098,27.33203 -1.5097,27.33401 -2.0469,19.8828 -2.0449,19.8828 -1.4766,2.7832 -1.4766,2.7852 -12.455,15.1445 -12.4532,15.1446 v 3.7793 3.7793 l 2.9629,2.0761 2.9629,2.0762 h 90.2227 90.2226 l 2.9375,-2.3789 2.9375,-2.3809 0.1426,-4.9902 0.1406,-4.9922 -3.2636,-3.2051 -3.2657,-3.2031 -17.6777,-9.5312 -17.6758,-9.5313 -1.2285,-2.293 -1.2265,-2.2949 -0.834,-15.9336 -0.834,-15.9336 -1.2383,-51.33204 -1.2402,-51.33399 -2.6875,-15.13086 -2.6875,-15.13086 -4.0664,-12.20312 -4.0684,-12.20117 -5.6016,-9.99415 -5.6015,-9.99414 -11.3321,-11.4707 -11.3339,-11.46875 -8.5391,-4.94922 -8.5371,-4.94726 -10.1289,-3.46094 -10.1289,-3.46094 -12.666,-0.0137 -12.6661,-0.0137 -11.3339,2.95703 -11.334,2.95703 -14.666,7.06836 -14.6661,7.06836 -17.832,10.75586 -17.832,10.75586 -1.8457,-0.70899 -1.8477,-0.70898 -0.6406,-2.85156 -0.6387,-2.85352 -2.7187,-16.66601 -2.7188,-16.66797 -3.3711,-3 -3.3711,-3 h -1.9296 z m -1252.58597,4.00586 -14.70313,1.35156 -14.70312,1.34961 -13.68555,3.38867 -13.6875,3.38867 -11.64648,4.66992 -11.64649,4.66797 -9.33398,5.44922 -9.33203,5.44922 -8.66797,6.35937 -8.66602,6.35938 -10.05664,10.44727 -10.05469,10.44726 -4.79296,6.66602 -4.79102,6.66797 -4.85156,9.55273 -4.85157,9.55273 -2.68164,7.7793 -2.68164,7.78125 -1.95117,11.17383 -1.95312,11.17578 v 9.0625 9.06055 l 1.42968,10.28125 1.42969,10.28125 3.31055,11.48242 3.3125,11.4824 6.61328,13.8809 6.61133,13.8828 7.64648,11.4453 7.64649,11.4453 12.66601,12.7031 12.66602,12.7012 10.35547,7.0645 10.35547,7.0664 12.3125,5.8242 12.31054,5.8242 10.5586,2.8906 10.56054,2.8907 6.10742,1.0332 6.10743,1.0351 16.1582,0.1563 16.1582,0.1562 11.23633,-1.959 11.23633,-1.9589 9.27148,-2.8067 9.27149,-2.8047 16,-7.8457 15.999998,-7.8457 14,-10.5508 14,-10.5488 11,-10.6094 11,-10.6113 v -5.623 -5.6231 l -3.271484,-3.2734 -3.273438,-3.2715 h -4.107422 -4.107422 l -13.61914,7.209 -13.621094,7.209 -12.724608,4.7089 -12.72266,4.709 -13.48633,2.7481 -13.48437,2.748 -15.125,-0.019 -15.12305,-0.02 -8.35937,-1.9707 -8.35742,-1.9707 -6.86524,-3.4786 -6.86328,-3.4785 -7.1543,-6.7656 -7.15429,-6.7676 -3.80079,-8.0976 -3.79882,-8.0977 -1.82227,-7.334 -1.82422,-7.334 0.125,-17.33199 0.125,-17.33399 1.67969,-5.98828 1.67969,-5.98828 2.64062,-3.70899 2.64063,-3.70898 5.55468,-2.96875 5.55469,-2.9707 79.33399,-0.66602 79.332028,-0.66601 4.154297,-2.2754 4.154297,-2.27539 2.179687,-4.59179 2.179688,-4.59375 v -6.10157 -6.10156 l -3.154297,-8.38086 -3.15625,-8.38281 -4.363281,-8.64844 -4.365235,-8.64843 -6.302734,-9.33399 -6.302734,-9.33398 -6.511719,-7.24219 -6.511719,-7.24219 -9.566406,-7.60937 -9.56836,-7.60938 -9.765622,-5.3418 -9.76563,-5.34179 -10,-3.56641 -10,-3.56836 -8.34961,-1.93945 -8.35156,-1.9375 -13.61328,-1.29688 z m -1.4336,35.7207 5.40039,0.60742 5.40235,0.60938 4.66406,2.21289 4.66406,2.21484 4.95118,4.08008 4.94921,4.07812 3.33399,5.68946 3.33398,5.68945 1.47852,7.36328 1.47851,7.36524 -2.27148,7.81445 -2.27148,7.8164 -5.54297,5.49805 -5.54297,5.5 -18.54297,0.86719 -18.54297,0.86719 h -11.56836 -11.56641 l -0.88867,-0.88868 -0.88867,-0.88867 0.008,-6.11133 0.01,-6.11132 2.69726,-11.25 2.69727,-11.25 4.17969,-8.49024 4.17969,-8.49023 6.57031,-5.90821 6.57226,-5.9082 5.5293,-1.48828 z m 370.83789,1.60742 6.92579,3.45117 6.92578,3.45117 4.5957,5.3711 4.59766,5.37109 2.11914,6.17774 2.11914,6.17773 2.51953,17.33399 2.51758,17.33203 1.62695,15.33398 1.62891,15.33399 0.0176,24.66601 0.0176,24.66602 -1.62109,10.66796 -1.62305,10.666 -2.60156,9.7324 -2.60352,9.7325 -4.02539,7.9726 -4.02539,7.9746 -4.95312,5.4825 -4.95313,5.4843 -4.80273,3.0313 -4.80274,3.0312 -7.11328,2.1133 -7.11328,2.1113 -6.75781,-0.1328 -6.75781,-0.1347 -5.15625,-1.211 -5.15625,-1.2109 -4.36719,-2.0723 -4.36524,-2.0703 -3.70898,-8.25 -3.70703,-8.25 -4.4668,-13.2695 -4.46484,-13.2696 -2.62305,-12.873 -2.625,-12.875 -1.5625,-16.99805 -1.56445,-16.99609 1.58203,-19.52735 1.58008,-19.52539 2.54883,-12.41601 2.54882,-12.41602 3.89258,-8.25 3.89453,-8.25195 6.17188,-8.1543 6.17187,-8.1543 7.05664,-5.44336 7.05469,-5.44336 5.96485,-2.70507 5.96679,-2.70704 8.73828,-0.0293 z m 1321.18948,2 h 12 12 l 7.3945,3.46875 7.3945,3.4668 5.0176,4.40625 5.0176,4.40625 2.6016,5.09765 2.5996,5.09766 1.9316,8.36133 1.9336,8.36133 1.5684,18.66797 1.5683,18.66601 -0.8125,26.83594 -0.8144,26.83398 -1.4414,19.16606 -1.4434,19.164 -1.8906,7.6465 -1.8926,7.6465 -3.4766,6.8613 -3.4765,6.8613 -6.2227,6.2149 -6.2226,6.2168 -6.418,3.1035 -6.4199,3.1035 -8.2481,0.4707 -8.248,0.4727 -3.3418,-1.0977 -3.3418,-1.0957 -4.0332,-2.0859 -4.0332,-2.086 -6.1797,-6.6054 -6.1777,-6.6055 -3.295,-6.5117 -3.2949,-6.5098 -4.0215,-11.4082 -4.0234,-11.4101 -2.7031,-12.5899 -2.7051,-12.59178 -1.6074,-14 -1.6075,-14 0.7598,-17.33398 0.7598,-17.33203 2.1172,-10 2.1171,-10 2.8047,-8.66797 2.8047,-8.66602 4.4961,-8.66601 4.4981,-8.66797 5.7675,-7.33203 5.7676,-7.33399 7.2363,-4 z m -748.69143,121.07422 3.00586,1.49805 3.00586,1.5 0.84961,3.96289 0.84961,3.96484 0.15625,16.38868 0.1582,16.3906 -2.09179,10.2774 -2.08985,10.2773 -3.04492,6.7266 -3.04297,6.7285 -4.25781,4.8476 -4.25586,4.8496 -5.60938,2.627 -5.60742,2.627 -6,0.6738 -6,0.6719 -4.99023,-1.3399 -4.99219,-1.3398 -3.30859,-3.9336 -3.31055,-3.9317 -2.03125,-6.8457 -2.0332,-6.8457 v -10.1445 -10.1445 l 2.05664,-7.9473 2.05664,-7.9473 4.27539,-7.1504 4.27734,-7.15034 5.33399,-4.68165 5.33203,-4.68164 8,-3.78125 8,-3.7832 7.65429,-1.18164 z M 1901.7395,1316.8218 c -0.1414,0.096 -0.2945,0.1928 -0.4355,0.2891 l 0.1074,2.0449 -1.0703,3.6797 c 0.4777,0.267 0.9422,0.5338 1.416,0.8007 z" /><path
           id="path126"
           style="fill:#0a0706"
           d="m 1848.6204,1254.9683 -9.334,1.4883 -9.334,1.4863 -6.9219,3.3555 -6.9238,3.3535 -6.7227,6.0429 -6.7226,6.045 -4.9297,9.9765 -4.9317,9.9785 -0.58,11.0391 -0.5801,11.041 2.2656,7.877 2.2637,7.8789 3.9648,6.2304 3.9668,6.2325 5.793,5.3398 5.7949,5.3399 5.7988,2.996 5.7989,2.9961 6.666,1.6524 6.668,1.6523 5.5996,0.1133 5.6015,0.1133 7.0664,-1.4981 7.0645,-1.5 6.5117,-3.2793 6.5098,-3.2792 6.4453,-6.0293 6.4473,-6.0293 3.246,-5.543 3.2481,-5.541 2.2852,-7.8614 2.2871,-7.8613 -0.5801,-11.041 -0.5801,-11.0391 -4.8887,-9.8945 -4.8906,-9.8926 -5.7715,-5.3203 -5.7715,-5.3183 -6.1035,-3.5782 -6.1035,-3.5761 -9.8105,-2.0723 z m -2560.95707,18.8945 -32.85547,1.4277 -32.85547,1.4278 -23,1.7441 -23.00195,1.7442 -1.99805,1.6582 -2,1.6582 v 1.7695 l -0.20516,4.0262 2.15703,8.4652 10.75636,6.4265 22.72368,11.8734 17.54407,9.2708 5.39053,6.5471 1.28561,14.0523 1.14281,153.3717 0.86914,162.127 -3.83204,4.1171 -3.83203,4.1153 -25.72265,11.6172 -25.72266,11.6152 -1.27734,2.3848 -1.27735,2.3867 v 3.9238 3.9238 l 1.92188,1.5938 1.91992,1.5937 9.08008,1.2696 9.07812,1.2675 52.66797,1.1856 52.66602,1.1836 54,-0.6563 54,-0.6582 5.95898,-1.1093 5.95899,-1.1075 2.375,-2.9316 2.37304,-2.9316 v -4.5801 -4.5801 l -3.18359,-3.1836 -3.18359,-3.1836 -5.15039,-0.8437 -5.14844,-0.8418 -6.58594,-2.0235 -6.58594,-2.0215 -5.51758,-3.7949 -5.51757,-3.7969 -3.66993,-4.8125 -3.66992,-4.8105 -3.73047,-8.2832 -3.73242,-8.2832 -2.25586,-10 -2.25586,-10 -1.07617,-16.543 -1.07617,-16.5429 1.17773,-21.0801 1.17579,-21.0781 1.86718,-14.3301 1.86719,-14.3301 2.88867,-2.3379 2.88672,-2.3379 4.58399,-0.8613 4.58398,-0.8594 7.24805,3.5469 7.24609,3.5449 9.20898,9.8594 9.20704,9.8594 8.03515,11.7461 8.03711,11.7441 10.23828,17.834 10.23828,17.832 10.6543,21.2754 10.65234,21.2754 13.37305,29.5586 13.3711,29.5586 2.61718,2.666 2.61914,2.668 44.94727,-0.3282 44.94922,-0.3281 39.84961,-1.3066 39.85156,-1.3047 3.14844,-2.0645 3.15039,-2.0625 v -5.0957 -5.0976 l -2.33399,-2.0742 -2.33203,-2.0743 -10.26367,-3.9629 -10.26172,-3.9609 -11.40625,-7.5898 -11.4082,-7.5899 -11.42578,-10.8144 -11.42383,-10.8164 -10.82031,-13.4317 -10.82227,-13.4316 -10.86328,-16.666 -10.86523,-16.668 -6.71094,-12 -6.71094,-12 -9.31641,-18.666 -9.3164,-18.666 -4.90235,-10.9297 -4.90234,-10.9297 0.88867,-3.5391 0.88672,-3.5371 18.82227,-12.3086 18.82226,-12.3105 8.26172,-6.9453 8.26367,-6.9473 6.22071,-8.2754 6.2207,-8.2773 4.42383,-8.7813 4.42187,-8.7832 2.09375,-8.0781 2.09375,-8.0762 v -12.5273 -12.5274 l -2.04297,-7.9472 -2.04101,-7.9473 -4.66797,-9.8926 -4.66602,-9.8945 -6.6875,-9.0195 -6.6875,-9.0215 -7.95117,-7.3614 -7.95117,-7.3613 -8.51758,-6.0781 -8.51758,-6.0781 -12.46875,-5.8536 -12.46875,-5.8554 -11.33203,-2.7852 -11.33398,-2.7871 -14,-1.9238 -14,-1.9258 -20.66602,-1.4277 -20.66797,-1.4278 -29.33203,-1.3066 -29.33398,-1.3066 -41.8125,-0.014 z m 87.86463,29.8949 12.75842,-0.5379 17.24536,1.0055 9.14999,1.9082 9.71084,2.8916 9.02662,3.703 9.30705,5.3835 7.95858,6.6966 7.8164,7.8184 5.25,10.4883 5.25,10.4882 1.60352,9.5079 1.60351,9.5078 -0.54687,29.623 -0.54492,29.6211 -3.30274,8.6875 -3.30273,8.6875 -5.07617,7.6484 -5.07618,7.6485 -6,5.2812 -6,5.2813 -5.93359,3.4765 -5.93359,3.4786 -7.60352,2.7558 -7.60156,2.7559 -22,0.5469 -22,0.5488 -1.58399,-1.0918 -1.58203,-1.0918 -1.41797,-3.7266 -1.41601,-3.7265 v -85.2461 l -0.56087,-80.8994 2.52579,-5.0497 z m 2238.30134,40.7731 -6.7168,4.332 -6.7167,4.334 -67.6934,48.5801 -67.6953,48.58 -2.0391,4.2793 -2.041,4.2793 0.9141,3.6446 0.916,3.6445 3.8281,3.8301 3.8301,3.8281 h 17.3613 17.3613 l 3.2559,3 3.2539,3 1.5527,43.9629 1.5528,43.9629 1.9218,27.3711 1.92,27.3711 1.4101,10.666 1.4121,10.666 3.2149,12.2539 3.2148,12.252 4.3633,8.9472 4.3613,8.9473 6.0176,6.6934 6.0156,6.6914 6.9043,4.416 6.9024,4.416 10.0859,3.3848 10.086,3.3847 11.6835,1.1465 11.6856,1.1445 13.334,-0.6347 13.334,-0.6348 13.332,-2.6269 13.334,-2.625 12.666,-4.9786 12.668,-4.9785 9.6152,-5.6289 9.6172,-5.6289 9.918,-7.8808 9.916,-7.8809 1.5429,-4.6758 1.543,-4.6738 -2.0273,-3.9199 -2.0274,-3.92 -2.1582,-0.8281 -2.1582,-0.8281 h -4.498 -4.4981 l -12.3926,5.4922 -12.3925,5.4941 -9.334,3.3496 -9.334,3.3496 -9.332,0.5547 -9.334,0.5567 -5.2852,-3.0821 -5.2871,-3.08 -3.7891,-6.1289 -3.789,-6.129 -2.1348,-11.1894 -2.1328,-11.1875 -0.09,-52 -0.09,-52 2.3692,-23.2207 2.3711,-23.2207 1.3085,-2.4473 1.3086,-2.4453 1.6211,-0.094 1.6192,-0.092 45.6328,-2.2735 45.6328,-2.2734 1.4453,-1.4434 1.4434,-1.4453 -2.2969,-16.2344 -2.2969,-16.2363 -1.4472,-1.9453 -1.4473,-1.9473 -45.1895,-2.5664 -45.1894,-2.5683 -2.7344,-2.7344 -2.7324,-2.7324 2.2441,-34.1289 2.2461,-34.127 -1.8886,-3.6523 -1.8887,-3.6524 -3.4961,-1.5937 -3.4961,-1.5918 h -2.9981 z m 872.8633,71.9902 -65.0351,23.2246 -65.0371,23.2246 -2.3829,0.9375 -2.3828,0.9375 -1.9511,3.7715 -1.9493,3.7715 v 4.0664 4.0664 l 2.4766,2.4785 2.4785,2.4785 9.8555,3.6856 9.8555,3.6855 2.9824,1.8555 2.9824,1.8555 2.7715,5.4297 2.7695,5.4316 1.9141,10.0039 1.914,10.002 2.2188,16.8808 2.2187,16.8789 0.049,26.668 0.049,26.666 -2.2559,12.2598 -2.2558,12.2597 -3.8926,10.668 -3.8926,10.666 -4.9414,7.4434 -4.9394,7.4453 -5.5137,4.4727 -5.5117,4.4746 -8.3828,4.1992 -8.3828,4.2012 -1.375,3.6152 -1.375,3.6152 2.0839,4.3711 2.084,4.3692 3.2539,1.2363 3.252,1.2383 18.4219,1.3925 18.4199,1.3946 36.8945,0.01 36.8965,0.01 25.1035,-2.0176 25.1055,-2.0195 4.3574,-0.8008 4.3555,-0.8008 2.7636,-3.5136 2.7637,-3.5118 -0.7012,-4.3281 -0.7031,-4.3262 -5.3574,-6.3554 -5.3574,-6.3535 -3.5039,-9.3086 -3.5039,-9.3067 -2.6543,-12.0117 -2.6543,-12.0117 -0.7051,-27.334 -0.7051,-27.332 2.1582,-20.3281 2.1563,-20.3282 2.6679,-15.5996 2.668,-15.6015 3.2383,-7.0743 3.2383,-7.0761 6.9277,-7.3223 6.9258,-7.3242 6.8125,-3.3262 6.8125,-3.3242 6.0136,-0.8184 6.0137,-0.8183 5.7285,1.5429 5.7286,1.5411 5.3535,4.8378 5.3554,4.8379 2.5821,5.0625 2.584,5.0625 1.9179,8.3614 1.9199,8.3613 2.336,19.334 2.3359,19.332 0.039,32 0.041,32 -2.4102,14.668 -2.4082,14.666 -3.9765,12 -3.9785,12 -3.4493,6 -3.4511,6 -7.1368,7.5684 -7.1386,7.5664 v 3.8457 3.8437 l 1.7031,2.3301 1.7051,2.3301 5.2949,1.1504 5.2969,1.1503 22,1.4825 22,1.4804 6,0.4883 6,0.4766 44.6679,-0.4824 44.6661,-0.4825 14,-1.3398 14,-1.3398 2.2089,-2.7012 2.211,-2.6992 -0.709,-2.7071 -0.707,-2.707 -18.3008,-12.666 -18.3008,-12.6641 -3.0391,-3.2344 -3.0371,-3.2343 -1.0918,-10.3985 -1.0898,-10.3984 -0.072,-29.7188 -0.072,-29.7187 -1.3926,-22.9473 -1.3945,-22.9492 -2.6036,-18.1113 -2.6054,-18.1113 -2.625,-10.2676 -2.627,-10.2656 -5.1738,-10.9551 -5.1738,-10.9551 -6.3301,-8.3555 -6.3321,-8.3554 -7.7988,-6 -7.7988,-6.002 -8.3477,-3.9473 -8.3476,-3.9472 -9.8926,-2.2012 -9.8906,-2.2012 -16.8321,0.7149 -16.8339,0.7168 -10,2.8828 -10,2.8847 -10.9903,5.1465 -10.9902,5.1485 -9.5391,6.3984 -9.5371,6.4004 -9.664,9.0254 -9.6641,9.0234 h -1.9981 -1.998 l -0.8105,-2.1074 -0.8086,-2.1094 v -22.5586 -22.5566 l -2.6661,-2.668 -2.6679,-2.666 h -1.2969 z m -590.4804,1.3418 -71.1289,25.2637 -71.1309,25.2637 -3,3.4785 -3,3.4765 v 5.3203 5.3204 l 3.2187,3.2168 3.2188,3.2187 3.1152,0.6484 3.1153,0.6485 6.3379,0.8222 6.3359,0.8204 5.5703,4.2519 5.5684,4.25 3.1211,6.2637 3.121,6.2617 3.2813,20.9648 3.2832,20.9649 1.3809,19.5586 1.3828,19.5605 -1.3125,14.9414 -1.3106,14.9414 -2.1738,8.9395 -2.1738,8.9375 -5.3028,11.1211 -5.3047,11.123 -8.2695,8.211 -8.2715,8.2109 -8.6308,4.6895 -8.6328,4.6894 -0.4102,5.6289 -0.4082,5.6289 3.3477,3.3496 3.3496,3.3477 h 94.9746 94.9746 l 3.0859,-2.8984 3.086,-2.9004 v -3.1875 -3.1895 l -1.211,-2.2441 -1.209,-2.2461 -19.4121,-13.334 -19.4121,-13.334 -0.8105,-2 -0.8086,-2 -0.7578,-120 -0.7559,-120 -1.1113,-3 -1.1133,-3 h -3.9023 z m -1756.92582,0.01 -17.33399,4.5898 -17.33203,4.5899 -17.999998,6.1679 -18,6.166 -15.84375,6.6504 -15.841796,6.6504 -16.824219,8.4375 -16.8242189,8.4375 -2.53710935,2.8145 -2.53906255,2.8164 1.32617192,3.0019 1.328125,3.002 15.21093788,10.7246 15.210937,10.7246 1.539063,3.2754 1.539062,3.2754 2.75,19.334 2.75,19.332 1.443359,20.668 1.441407,20.666 -0.828125,14 -0.828125,14 -1.935547,12 -1.933594,12 -2.132812,6.666 -2.132813,6.668 -4.693359,9.0469 -4.691407,9.0468 -6.509765,5.8535 -6.509766,5.8516 -7.6328123,2.541 -7.6347656,2.541 -0.3886719,11.0215 -0.390625,11.0215 1.6914063,2.0391 1.6914062,2.0449 46.0312503,-0.9004 46.03125,-0.8984 39.908206,-1.2618 39.9082,-1.2597 3.0918,-2.9063 3.09179,-2.9043 v -4.3496 -4.3476 l -7.21875,-10.7871 -7.21875,-10.7872 -3.96679,-10.9648 -3.96485,-10.9648 -1.61914,-10.0547 -1.61914,-10.0547 0.625,-43.9453 0.625,-43.9453 2.13477,-12 2.13281,-12 2.53516,-7.3653 2.53711,-7.3633 3.37109,-6.6367 3.37109,-6.6347 4.87891,-5.0118 4.88086,-5.0117 5.31445,-2.7109 5.31445,-2.711 7.34571,-1.3574 7.3457,-1.3594 7.16797,1.4883 7.16602,1.4883 5.20507,3.7715 5.20703,3.7695 2.33985,4.9336 2.33984,4.9317 1.79297,12.2226 1.79297,12.2227 1.38477,17.334 1.38476,17.332 0.79883,20.668 0.79883,20.666 -1.36914,22.666 -1.3711,22.668 -2.74218,10.666 -2.74219,10.666 -4.48242,9.4629 -4.48243,9.4609 -4.83007,7.0215 -4.83008,7.0215 v 3.7754 3.7754 l 3.21679,3.7422 3.21875,3.7402 82.44922,0.3789 82.44922,0.3789 3.08399,-0.7598 3.08398,-0.7578 1.76172,-4.1933 1.76367,-4.1934 -1.32031,-3.7871 -1.32031,-3.7871 -19.13868,-10.75 -19.13867,-10.752 -0.61133,-2.2207 -0.61132,-2.2226 0.0664,-47.334 0.0664,-47.332 -1.55859,-17.334 -1.5586,-17.334 -1.99609,-12.666 -1.9961,-12.666 -3.32812,-13.211 -3.32813,-13.2109 -4.02929,-10.0606 -4.02735,-10.0605 -4.85156,-7.9883 -4.85156,-7.9863 -7.79297,-7.6719 -7.79297,-7.6738 -9.2832,-4.6426 -9.28125,-4.6445 -10.09961,-2.2461 -10.09766,-2.2481 -16.90625,0.6602 -16.90625,0.6582 -10.08398,2.7812 -10.08203,2.7832 -9.70313,4.1289 -9.70312,4.129 -9.34375,5.5839 -9.34571,5.586 -8.71093,7.334 -8.70899,7.332 -1.82617,1.3262 -1.82617,1.3261 -2.33399,-1.4668 -2.33203,-1.4668 -0.76758,-19.1914 -0.76757,-19.1933 -1.61329,-3 -1.61328,-3 h -2.28515 z m 1196.00002,0.6523 -22.666,0.029 -22.668,0.031 -15.1992,3.0488 -15.1992,3.0488 -15.8555,5.2051 -15.8555,5.207 -16.9453,8.7227 -16.9453,8.7246 -14,10.4219 -14,10.4238 -4.9414,5.5098 -4.9434,5.5078 -3.0176,5.7265 -3.0175,5.7266 v 9.334 9.332 l 2.9687,5.6309 2.9707,5.6328 4.6289,4.6289 4.6289,4.6289 5.7286,3.3574 5.7265,3.3555 8.6133,2.207 8.6133,2.2071 7.9765,-0.834 7.9766,-0.834 8.4121,-3.9356 8.4102,-3.9355 6.5234,-6.6973 6.5234,-6.6972 3.4239,-7.0235 3.4238,-7.0234 3.3711,-15.334 3.3711,-15.334 3.418,-7.0097 3.4179,-7.0118 4.2305,-3.1933 4.2305,-3.1953 7.2421,-2.127 7.2403,-2.1289 4.7597,0.01 4.7579,0.01 4.914,1.3653 4.9141,1.3652 3.3379,3.9668 3.3379,3.9668 0.6894,5.6602 0.6895,5.6601 2.1367,27.334 2.1348,27.334 0.7558,5.5605 0.7559,5.5606 -3.166,3.1386 -3.168,3.1407 -31.332,8.4863 -31.334,8.4863 -18.9531,6.4492 -18.9551,6.4473 -12.5645,5.8711 -12.5664,5.873 -9.8144,6.3184 -9.8125,6.3184 -7.0957,6.0254 -7.0938,6.0234 -6.4238,9.1484 -6.4238,9.1465 -2.3379,8.6387 -2.3379,8.6406 0.7011,11.2363 0.7012,11.2383 3.5469,7.75 3.5488,7.75 5.4004,7.1543 5.4024,7.1524 8.1503,5.2695 8.1504,5.2676 8.961,2.7207 8.959,2.7226 9.0957,1.0567 9.0957,1.0508 2,0.1718 2,0.17 15.2539,-1.4297 15.2539,-1.4278 14.914,-3.7675 14.9141,-3.7657 12.498,-4.9726 12.4981,-4.9727 5.4512,-3.1601 5.4511,-3.1622 h 3.9551 3.9551 l 6.5937,4.2149 6.5938,4.2148 12,5.6856 12,5.6855 8.668,2.4121 8.666,2.4102 20,-0.07 20,-0.07 11.957,-3.6524 11.957,-3.6523 11.0215,-5.3848 11.0215,-5.3847 5.3984,-3.9102 5.3985,-3.9121 2.6191,-4.293 2.6172,-4.293 0.01,-4.2812 v -4.2813 l -2.9727,-2.7695 -2.9746,-2.7715 -3.2812,-0.8222 -3.2813,-0.8243 -6.0781,1.834 -6.0781,1.834 -6,0.039 -6,0.039 -4.2188,-3.0078 -4.2187,-3.0058 -2.9278,-6.0469 -2.9277,-6.0449 -1.2344,-24.9453 -1.2363,-24.9434 0.3808,-54 0.3829,-54 -3.0118,-10.3887 -3.0117,-10.3886 -4.834,-9.6114 -4.8359,-9.6113 -10.1543,-10.1504 -10.1523,-10.1484 -12.668,-6.0489 -12.666,-6.0488 -10,-2.4687 z m 805.9922,0.9453 -14.0879,1.127 -14.0879,1.1289 -10.9082,2.2246 -10.9082,2.2246 -11.334,3.9981 -11.332,3.996 -9.334,4.6583 -9.334,4.6582 -11.2891,7.4668 -11.289,7.4648 -11.4493,11.3906 -11.4511,11.3887 -6.2442,8.8144 -6.2441,8.8125 -5.2598,10.5196 -5.2597,10.5195 -3.2852,10.084 -3.2871,10.082 -1.6406,10.1719 -1.6407,10.1738 0.6739,19.0782 0.6758,19.0781 3.5566,12 3.5586,12 5.8613,12.1133 5.8613,12.1152 7.8614,10.5527 7.8613,10.5508 10.5488,10.0293 10.5489,10.0273 11.4882,7.6426 11.4883,7.6446 9.9336,4.5878 9.9317,4.5899 10.1289,3.4004 10.1289,3.4004 9.7832,2.0898 9.7832,2.0899 10.666,1.0683 10.668,1.0664 4.666,0.1817 4.666,0.1797 14.668,-1.3692 14.666,-1.3691 13.7871,-3.2989 13.789,-3.3007 12.3692,-5.168 12.3711,-5.1699 9.459,-5.5235 9.457,-5.5234 9.7168,-7.75 9.7168,-7.752 8.7109,-9.2695 8.709,-9.2695 6.3379,-9.5352 6.3398,-9.5351 5.1543,-11.0821 5.1563,-11.082 2.7676,-10 2.7676,-10 1.5761,-13.8906 1.5762,-13.8926 -1.6094,-13.8359 -1.6074,-13.8379 -3.2793,-11.3125 -3.2793,-11.3145 -5.4941,-10.957 -5.4942,-10.959 -6.5937,-9.5605 -6.5918,-9.5606 -12.5449,-12.1367 -12.545,-12.1367 -12.2461,-7.9199 -12.248,-7.92 -12.5274,-5.4941 -12.5292,-5.4941 -15.293,-3.8633 -15.291,-3.8614 -15.2989,-1.2226 z m -1565.88285,0.7754 -16.15234,1.5176 -16.15234,1.5195 -10.69727,2.5547 -10.69727,2.5547 -8.53906,2.9043 -8.53711,2.9023 -11.79101,6.0313 -11.78907,6.0312 -8.21093,6.043 -8.20899,6.043 -7.15039,6.7578 -7.15039,6.7578 -7.55469,10.0254 -7.55664,10.0254 -6.20508,12.0137 -6.20507,12.0136 -3.54883,10.5762 -3.55078,10.5762 -2.53907,13.0996 -2.53906,13.0996 0.0176,17.6191 0.0176,17.6192 2.48828,12 2.49023,12 4.14063,10.6992 4.14062,10.6992 6.55274,9.9668 6.55273,9.9668 8.4668,8.457 8.46484,8.459 9.94336,6.6524 9.94141,6.6523 12.05859,5.7461 12.05664,5.7461 10,3.5723 10,3.5722 13.3125,3.3672 13.3125,3.3692 12.6875,1.8242 12.6875,1.8242 23.33399,-0.5566 23.33398,-0.5547 10,-2.1621 10,-2.1602 12,-3.9883 12,-3.9902 10.44727,-5.5664 10.44726,-5.5645 10.33789,-8.2715 10.33594,-8.2695 7.38672,-9.0781 7.38672,-9.0801 5.03516,-7.9238 5.0332,-7.9238 4.32226,-9.4083 4.32032,-9.4101 3.55468,-11.3281 3.55469,-11.3282 1.91211,-12.6718 1.91016,-12.6719 0.002,-10.666 0.002,-10.668 -1.95117,-12.0293 -1.95117,-12.0293 -3.37305,-10.3359 -3.375,-10.336 -4.16797,-8.3007 -4.16796,-8.3008 -6.16797,-9.2461 -6.16797,-9.2442 -10.28516,-10.2929 -10.28711,-10.2949 -10.23828,-6.8477 -10.24023,-6.8496 -10.93946,-5.2207 -10.9414,-5.2207 -10.42383,-3.5 -10.42383,-3.4981 -11.61133,-2.5351 -11.61328,-2.5352 -16.44336,-1.5 z m 2347.89065,1.1797 -20,0.012 -20,0.012 -11.4278,2.2051 -11.4277,2.2071 -9.416,3.2011 -9.416,3.2032 -9.7461,4.8906 -9.7461,4.8926 -4.0781,2.8046 -4.0762,2.8047 -9.0391,7.2871 -9.039,7.2852 -7.9961,9.9414 -7.9981,9.9414 -2.7324,5.3555 -2.7324,5.3574 -1.8672,8.9492 -1.8652,8.9492 1.2617,7.752 1.2617,7.7539 4.0332,8.6191 4.0352,8.6211 6.9316,8.7129 6.9336,8.7129 10.0723,8.625 10.0742,8.625 16.666,11.0742 16.668,11.0762 22,12.3027 22,12.3047 5.332,3.6699 5.334,3.6719 5.1308,5.1426 5.1309,5.1426 2.5352,4.9472 2.5371,4.9454 v 6.0976 6.0957 l -2.0293,4.8535 -2.0274,4.8555 -4.7461,5.7891 -4.7441,5.791 -4.1348,2.1367 -4.1328,2.1387 -14.7598,-0.5996 -14.7597,-0.5977 -8.3711,-3.4199 -8.3731,-3.4219 -7.4277,-4.4727 -7.4277,-4.4726 -10.8672,-10.1602 -10.8672,-10.1582 -17.9082,-20.1738 -17.9102,-20.1738 h -3.4902 -3.4902 l -1.5996,1.5996 -1.6016,1.5996 v 7.0684 7.0683 l 2.7051,26.9981 2.705,26.998 1.3868,6.9902 1.3886,6.9883 2.9082,2.0547 2.9063,2.0547 16.668,5.3457 16.666,5.3457 16,3.2363 16,3.2364 12.666,1.1933 12.6621,1.1934 10.666,0.1699 10.666,0.1699 12,-1.3633 12,-1.3632 11.1211,-2.6289 11.1192,-2.629 10.1914,-4.082 10.1933,-4.0801 10.9317,-7.2754 10.9336,-7.2734 7.5566,-8.3086 7.5566,-8.3066 5.8477,-9.9414 5.8477,-9.9414 3.6464,-10.7246 3.6465,-10.7266 v -12 -12 l -2.3652,-6.8926 -2.3652,-6.8926 -6.584,-9.373 -6.5821,-9.3731 -9.0117,-7.2441 -9.0136,-7.2441 -9.5293,-6.1329 -9.5274,-6.1308 -27.8301,-14.4531 -27.8281,-14.4532 -7.8359,-5.0117 -7.834,-5.0117 -7.2695,-6.875 -7.2696,-6.875 -3.2949,-5.6211 -3.2949,-5.623 -0.75,-7.2813 -0.752,-7.2812 2.9688,-6.1348 2.9707,-6.1328 6.0117,-3.5235 6.0137,-3.5253 9.5605,-0.6133 9.5625,-0.6133 7.5899,1.5762 7.5898,1.5761 7.832,3.9121 7.8321,3.9141 7.875,7.6836 7.875,7.6816 11.3281,14.6504 11.3262,14.6524 4.4941,5 4.4961,5 h 4.5117 4.5117 l 2.6661,-2.668 2.666,-2.666 0.012,-6.334 0.01,-6.332 -1.4141,-27.334 -1.4141,-27.334 -1.2031,-2.9355 -1.2051,-2.9356 -3.7226,-1.8887 -3.7246,-1.8886 -20,-4.8262 -20,-4.8242 -10.668,-1.5703 z m -3118.66604,1.2383 -13.53125,2.9316 -13.52929,2.9297 -13.70118,4.7695 -13.70312,4.7696 -8.84766,4.457 -8.84961,4.4551 -12.02148,8.041 -12.02149,8.041 -10.91211,10.9121 -10.91406,10.9141 -5.95898,8.9629 -5.95899,8.9629 -4.66992,9.8613 -4.67187,9.8594 -2.92969,10.666 -2.92774,10.666 -0.0586,20.668 -0.0605,20.666 2.44532,11.2793 2.44531,11.2793 3.35937,10.0547 3.36133,10.0527 5.68946,11.3652 5.68945,11.3653 7.91015,10.6347 7.91211,10.6348 8.87696,8.2734 8.8789,8.2735 8.17578,5.5527 8.17579,5.5508 13.72461,6.5566 13.72265,6.5547 12.72266,3.2266 12.7207,3.2285 9.72852,1.3145 9.72851,1.3086 16.88281,-0.5411 16.88282,-0.541 13.36718,-2.7246 13.36915,-2.7246 11.74804,-4.1445 11.75,-4.1446 9.33203,-4.6582 9.333988,-4.6582 10.945313,-7.2363 10.945312,-7.2363 7.291016,-6.6641 7.291015,-6.664 2.763672,-5.709 2.763672,-5.709 v -5.6387 -5.6406 l -3.273437,-3.2735 -3.271485,-3.2714 h -4.429687 -4.427735 l -9.568359,5.955 -9.568359,5.9532 -12.210938,6.1328 -12.212888,6.1328 -12.18555,4.0391 -12.18555,4.0371 -14.05468,0.7168 -14.05469,0.7168 -7.94531,-2.2793 -7.94532,-2.2813 -5.91601,-3.4297 -5.91406,-3.4316 -5.72266,-5.2735 -5.7207,-5.2734 -5.27149,-8.3457 -5.26953,-8.3457 -3.53906,-8.4062 -3.53906,-8.4063 -2.56836,-10.0469 -2.57032,-10.0449 -1.41797,-15.5449 -1.41796,-15.543 1.44336,-5.3574 1.4414,-5.3574 3.6582,-1.375 3.65821,-1.3731 65.28711,-1.5097 65.287107,-1.5098 21.929687,-0.8242 21.929688,-0.8262 2.394531,-2.3926 2.392578,-2.3945 -0.697265,-7.0547 -0.699219,-7.0566 -1.972656,-10.4297 -1.972657,-10.4297 -4.082031,-11.2871 -4.083984,-11.2871 -6.605469,-10.1153 -6.603516,-10.1172 -6.917968,-7.3222 -6.919922,-7.3223 -11.875,-7.8281 -11.876954,-7.8301 -10.71094,-4.1308 -10.71093,-4.1309 -12.08008,-2.8145 -12.07813,-2.8144 h -24 z m 1076,7.1894 -62.61719,1.0059 -62.61718,1.0039 -1.92188,3.4258 -1.92187,3.4258 0.97461,3.8789 0.97265,3.8769 5.24414,4.9883 5.2461,4.9902 14.98633,7.209 14.98632,7.211 2.88282,3.164 2.88281,3.1641 44.33008,84 44.33007,84 16.32032,30.666 16.31836,30.668 4.71289,5.457 4.71093,5.457 4.42188,2.1778 4.42383,2.1816 5.0664,0.029 5.06641,0.029 3.87109,-2 3.8711,-2.0019 3.89258,-5.6661 3.89453,-5.664 18.99804,-38 18.99607,-38 18.0157,-34.668 18.0136,-34.666 7.9824,-14 7.9805,-14 8.6602,-13.334 8.6601,-13.332 9.9785,-12.334 9.9786,-12.334 8.8711,-8.1953 8.8691,-8.1953 10.6816,-7.0137 10.6817,-7.0137 2.541,-2.8086 2.541,-2.8066 v -4.1914 -4.1914 l -4.2441,-3.791 -4.2422,-3.793 h -21.7617 -21.7618 l -42.33,0.8848 -42.32816,0.8847 -2.07227,3.1621 -2.07031,3.1602 1.18164,2.5234 1.18359,2.5215 18.66801,14.8418 18.666,14.8418 1.666,2.1778 1.668,2.1796 v 2.2559 2.2559 l -23.9981,52.1953 -23.99608,52.1933 -3.40039,6.7071 -3.39844,6.7089 -4.27148,-0.414 -4.26953,-0.4121 -15.37305,-30.668 -15.37305,-30.666 -8.89843,-22.291 -8.90039,-22.293 -1.63086,-7.8965 -1.63086,-7.8945 2.32617,-6.0938 2.32617,-6.0918 4.24414,-2.6171 4.24414,-2.6172 8,-2.9375 8,-2.9356 3,-2.7324 3,-2.7305 v -5.0273 -5.0254 l -3.21679,-3.7422 -3.2168,-3.7402 -35.7832,-0.3379 z m -1049.68945,17.377 3.96484,2.3164 3.96485,2.3164 5.88281,7.8027 5.88281,7.8028 2.84375,9.3633 2.84375,9.3613 -0.74609,9.8535 -0.74414,9.8516 -2.43555,4.9824 -2.43555,4.9824 -5.33203,2.668 -5.33398,2.666 -25.33399,0.4023 -25.33203,0.4024 -2.89453,-2.0703 -2.89453,-2.0703 -0.83203,-3.7872 -0.83203,-3.7871 1.41211,-9.2109 1.41211,-9.2129 5.22461,-10.6894 5.22656,-10.6895 6.26953,-6.3594 6.26953,-6.3613 5.83203,-3.418 5.83203,-3.4179 6.14258,-1.8477 z m 2308.14259,2.3496 6.7734,0.877 6.7735,0.8769 5.5371,2.6543 5.5351,2.6543 6.0176,6.4336 6.0195,6.4336 3.4278,6.7676 3.4297,6.7675 3.1875,11.0762 3.1855,11.0762 1.8301,12 1.8301,12 -0.066,35.334 -0.068,35.332 -2.3106,18.9609 -2.3105,18.959 -2.6523,10.3731 -2.6543,10.375 -3.7715,8.0625 -3.7735,8.0625 -4.1054,4.6758 -4.1035,4.6757 -6.8008,3.7012 -6.8047,3.7012 -9.625,0.5332 -9.625,0.5351 -7.6777,-1.9453 -7.6778,-1.9453 -3.8711,-2.0019 -3.8711,-2.002 -2.6855,-3.4141 -2.6875,-3.416 -2.7207,-11.6113 -2.7207,-11.6113 -3.3457,-19.334 -3.3457,-19.334 -2.0313,-19.6269 -2.0312,-19.629 0.01,-25.705 0.01,-25.7051 1.9453,-12.9043 1.9453,-12.9043 3.668,-11.0957 3.666,-11.0957 5.3887,-7.875 5.3887,-7.8731 6.3359,-4.3671 6.3379,-4.3672 7.5488,-1.5664 z m -1548.54493,1.2598 7.28906,3.5664 7.28906,3.5664 4.02344,6.0762 4.02539,6.0742 2.72461,8.2031 2.72265,8.2051 2.67579,12.2812 2.67578,12.2832 2.69922,20.3848 2.69921,20.3828 0.83204,27.4375 0.83203,27.4375 -1.67188,15.2305 -1.66992,15.2285 -3.11914,12.3379 -3.11914,12.3398 -4.30469,8.0782 -4.30664,8.0781 -6.47656,5.8222 -6.47461,5.8223 -6.29492,2.0293 -6.29297,2.0293 -4.66602,0.625 -4.66797,0.627 -5.60351,-1.1485 -5.60547,-1.1465 -3.0625,-1.5957 -3.06055,-1.5957 -6.28125,-4.5605 -6.28125,-4.5586 -5.92969,-8.9258 -5.92773,-8.9238 -2.67383,-8 -2.67187,-8 -2.26367,-14.668 -2.26368,-14.666 -0.6914,-28.8809 -0.69336,-28.8828 1.61719,-17.7851 1.61523,-17.7852 2.55469,-15.332 2.55664,-15.334 2.89258,-7.834 2.89062,-7.834 7.24805,-7.8281 7.25,-7.8301 9.74023,-4.8144 9.74024,-4.8145 8.74023,-0.7012 z m 707.03903,125.6914 4.8594,0.02 4.8594,0.021 1.9707,1.2461 1.9707,1.2461 0.5137,10.1582 0.5117,10.1601 -1.5528,14.9082 -1.5527,14.9063 -2.6016,12 -2.5996,12 -3.0703,5.9883 -3.0683,5.9883 -5.6524,3.9707 -5.6504,3.9726 -8.9414,0.4336 -8.9433,0.4316 -6.6758,-3.1796 -6.6778,-3.1817 -4.2968,-4.8965 -4.2989,-4.8964 -2.3476,-4.3145 -2.3457,-4.3145 -0.014,-11.3339 -0.012,-11.334 4.1113,-8.666 4.1094,-8.6661 6.793,-8.1582 6.7929,-8.1582 8.2305,-5.4961 8.2305,-5.496 8.6738,-2.6797 z" /></g></g></g></svg>
