<?xml version="1.0" encoding="UTF-8" standalone="no"?>
<!-- Created with Inkscape (http://www.inkscape.org/) -->

<svg
   version="1.1"
   id="svg1"
   width="5302.2368"
   height="1084.1392"
   viewBox="0 0 5302.2368 1084.1392"
   xml:space="preserve"
   xmlns="http://www.w3.org/2000/svg"
   xmlns:svg="http://www.w3.org/2000/svg"><defs
     id="defs1" /><g
     id="g1"
     transform="translate(-7.49365,181.95956)"><g
       id="g125"
       transform="translate(-313.45095,-1058.2219)"><g
         id="g126"
         transform="translate(2604.0508,233.41711)"><path
           id="path127"
           style="fill:#9e2907"
           d="m -1734.2411,643.22634 -43.334,1.53711 -43.332,1.53711 -36.668,2.05078 -36.666,2.04883 -13.8594,0.92383 -13.8594,0.92187 -1.4511,2.30859 -1.4512,2.3086 2.1953,2.19726 2.1973,2.19532 12.3183,1.13671 12.3184,1.13672 8.0332,2.0586 8.0332,2.05859 8.373,4.12305 8.375,4.12304 7.9786,7.21875 7.9785,7.22071 5.4316,8.29101 5.4297,8.28907 4.0937,10.58789 4.0938,10.58789 2.5078,11.49023 2.5078,11.49024 1.5254,18.72461 1.5235,18.72656 -1.4844,24.43554 -1.4844,24.4336 -2.1348,18.0957 -2.1347,18.0957 -1.7442,1.83594 -1.7461,1.83789 -0.1054,-0.01 c -0.1034,0.18831 -0.2082,0.37601 -0.3067,0.5664 -0.1449,0.2728 -0.2961,0.54123 -0.4668,0.79883 -0.027,0.0383 -0.056,0.0743 -0.084,0.11133 l 0.4532,0.0391 5.7148,0.47461 10.9512,5.65039 10.9531,5.65235 14.666,9.72461 14.668,9.7246 12.666,10.61329 12.666,10.61328 12.668,13.20898 12.666,13.21094 9.0957,11.30664 9.0957,11.30664 1.8633,3.51953 1.8613,3.51949 0.027,0.2657 c 0.045,0.021 0.091,0.04 0.1367,0.06 0.5261,0.239 1.0567,0.4665 1.5879,0.6933 l -0.7481,-6.72653 0.8535,-60.8457 0.8555,-60.8457 1.3945,-45.82032 1.3946,-45.82031 1.0996,-23.38281 1.0996,-23.38281 2.6309,-5.95118 2.6328,-5.95117 4.8711,-4.27539 4.8711,-4.27734 5.6855,-1.55664 5.6836,-1.55469 19.334,0.7793 19.332,0.78125 12.041,2.00976 12.0391,2.01172 11.9609,3.45508 11.959,3.45508 12.293,5.38086 12.291,5.3789 12.25,8.07031 12.25,8.07032 11.4766,11.46875 11.4785,11.4707 7.0957,10.38477 7.0976,10.38476 5.7403,11.61524 5.7422,11.61523 4.0293,12.66602 4.0293,12.66601 2.2265,11.33399 2.2246,11.33398 0.7324,20.67383 0.7344,20.67187 -1.6015,13.99414 -1.5997,13.99219 -2.4492,11.33399 -2.4472,11.33398 -5.5098,16.92188 -5.5078,16.92187 -8.457,17.07811 -8.459,17.07811 -8.3535,12.6661 -8.3536,12.666 -7.6601,9.334 -7.6582,9.3339 -8.9629,10 -8.9629,10 -6.543,9.8711 -6.5429,9.8731 -2.1504,7.3906 -2.1485,7.3926 0.7383,8.8066 0.7383,8.8047 3.332,7.5371 3.334,7.5352 15.6621,25.0605 15.6641,25.0606 16.0078,24 16.0078,24 14.6602,20.6679 14.6621,20.6661 16.6367,22 16.6367,22 15.457,19.3339 15.4551,19.3321 11.9453,14 11.9453,14 10.7305,11.8086 10.7305,11.8086 10.666,8.6054 10.666,8.6035 11.0606,6.7129 11.0605,6.7129 11.8594,5.1446 11.8594,5.1445 13.08,4.0156 13.0801,4.0156 13.334,2.6348 13.334,2.6348 14,1.7461 14,1.7461 38.666,-0.098 38.666,-0.098 23.3203,-2.2578 23.3184,-2.2597 2.5234,-2.5215 2.5215,-2.5215 -0.8242,-3.2871 -0.8243,-3.2852 -3.6835,-1.4277 -3.6836,-1.4258 -13.334,-3.541 -13.334,-3.541 -13.5977,-5.1074 -13.5996,-5.1075 -13.7344,-7.0449 -13.7343,-7.043 -13.334,-8.9257 -13.332,-8.9278 -12.668,-10.6191 -12.666,-10.6172 -20.6738,-21.1719 -20.6739,-21.1718 -28.6601,-32.7266 -28.6582,-32.7246 -23.8945,-28.6074 -23.8946,-28.6075 -22.8672,-28.666 -22.8652,-28.6679 -22.9043,-29.9825 -22.9043,-29.9843 -2.0019,-4.2168 -2.002,-4.2188 v -5.5586 -5.5586 l 18.334,-18.9765 18.332,-18.9786 9.5039,-11.2617 9.502,-11.2636 11.4101,-15.6622 11.4102,-15.66211 8.6055,-14.33785 8.6035,-14.33789 6.6445,-13.33204 6.6445,-13.33398 6.1035,-15.33398 6.1036,-15.33204 3.4511,-13.33398 3.4512,-13.33398 2.0527,-12.66602 2.0508,-12.66602 -0.059,-18.66796 -0.062,-18.66602 -2.1074,-11.06641 -2.1074,-11.06836 -2.7149,-8.93164 -2.7148,-8.93359 -6.5215,-13.33398 -6.5195,-13.33204 -8.6699,-11.50781 -8.67,-11.50781 -12.6308,-11.95313 -12.6309,-11.95312 -11.0664,-7.36133 -11.0664,-7.36133 -12,-6.00976 -12,-6.00977 -13.334,-5.00195 -13.334,-5.00195 -17.332,-4.375 -17.334,-4.37305 -16.4277,-2.7793 -16.4258,-2.77929 -19.5742,-1.97071 -19.5723,-1.96875 -22,-1.43359 -22,-1.43555 -54,-0.78515 z m 2261.80459,4.0293 -4.89844,0.68164 -4.89843,0.68164 -67.33399,24.42383 -67.33398,24.42187 -3,2.99609 -3,2.99805 v 4.78711 4.78711 l 3,2.99414 3,2.99414 18.13086,9.56445 18.13086,9.56446 1.47656,1.77929 1.47656,1.7793 2.70899,45.93555 2.70898,45.93554 1.51758,38 1.51758,38 -0.78125,36 -0.78321,36 -1.43164,18.00004 -1.43164,18.00001 -2.73633,21.332 -2.73632,21.334 -1.56836,3.334 -1.56836,3.332 -21.1836,14.1309 -21.18554,14.1308 -1.79688,2.4571 -1.79687,2.4589 v 1.8477 1.8476 l 3.89648,3.8965 3.89844,3.8985 h 100.76953 100.76758 l 2.66797,-2.668 2.66601,-2.666 v -2.8965 -2.8984 l -19.13672,-18.7696 -19.13672,-18.7695 -4.88281,-10 -4.88086,-10 -2.31445,-10 -2.31445,-10 0.23632,-128.66603 0.23438,-128.66602 1.5332,-50.15039 1.53125,-50.14843 -1.52734,-5.67188 -1.52734,-5.66992 -3.3418,-3.3418 z m -203.33594,0.32421 -67.89648,24.125 -67.89844,24.12696 -4.21094,1.96679 -4.20898,1.9668 -1.58203,3.81836 -1.58203,3.81836 0.88672,4.0332 0.88476,4.03125 4.44531,3.9043 4.44532,3.90234 13.12695,5.00196 13.12891,5.0039 2.59961,2.45313 2.59765,2.45312 2.3125,43.69141 2.31055,43.69141 -2.11719,2.33789 -2.11719,2.33984 h -2.95898 -2.95898 l -5.83399,-2.08203 -5.83398,-2.08203 -10.66797,-2.55274 -10.66602,-2.55273 -14.82422,-1.29688 -14.82422,-1.29882 -13.17578,1.31836 -13.17578,1.3164 -12.49414,3.29297 -12.494139,3.29297 -11.14258,5.2207 -11.142577,5.22266 -9.80273,6.77734 -9.80273,6.77539 -10.66407,10.99024 -10.66601,10.99218 -5.38086,8 -5.38086,8 -4.6875,9.33204 -4.6875,9.33398 -4.00977,12.66602 -4.0078102,12.66796 -1.66992,11.4629 -1.66992,11.46484 0.76367,20.53516 0.76172,20.53714 2.20117,10.00001 2.1992202,10 2.625,8 2.625,8 5.92187,12 5.92383,12 6.75391,8.9629 6.7539,8.9648 7.58594,7.7031 7.58789,7.7032 8.3418,6.4179 8.34375,6.418 11.04492,5.875 11.044917,5.875 5.945319,2.1621 5.94531,2.1602 11.33398,2.539 11.33399,2.5371 14.66797,-0.5547 14.66601,-0.5546 8,-2.1465 8,-2.1485 9.6582,-4.5547 9.65821,-4.5546 5.98828,-4.1192 5.98633,-4.1191 7.5625,-6.6172 7.56054,-6.6172 h 1.69727 1.69726 l 2.09571,2.0957 2.0957,2.0957 0.006,8.2383 0.008,8.2383 1.3711,4.9394 1.37304,4.9395 3.4668,2.7265 3.4668,2.7266 h 3.12304 3.12305 l 55.69727,-17.5098 55.69726,-17.5097 4.48047,-1.4258 4.48047,-1.4258 3.85156,-3.5996 3.85352,-3.5996 v -3.4004 -3.4023 l -1.53321,-3.3672 -1.5332,-3.3653 -15.17187,-8.955 -15.17383,-8.9551 -0.57227,-2.7422 -0.57226,-2.7422 -0.59766,-146.66603 -0.5957,-146.66602 -1.58008,-48 -1.57813,-48 -1.91015,-3 -1.9082,-3 h -3.07227 z m 1350.42785,2 -7.1114,0.20313 -7.1113,0.20312 -52,19.28711 -52,19.28516 -13.6933,5.00195 -13.6954,5.00196 -2.6386,3.35547 -2.6387,3.35351 v 3.64063 3.64062 l 2.5527,3.24805 2.5547,3.24609 16.9199,7.10547 16.92,7.10547 1.6836,4.16016 1.6855,4.1621 2.418,43.83985 2.416,43.8418 -2.2735,1.66015 -2.2714,1.66211 -14.9707,-5.06641 -14.9688,-5.0664 -12,-2.3086 -12,-2.30859 -17.334,0.0449 -17.332,0.0449 -9.4023,2.08594 -9.4024,2.08789 -6.5976,2.17383 -6.5977,2.17383 -10.7051,5.22851 -10.7051,5.22657 -11.9629,9.08008 -11.9609,9.07812 -9.3652,10.86719 -9.3633,10.86523 -6.3731,10.54102 -6.371,10.54101 -5.4122,12.51953 -5.4121,12.51954 -3.1718,12.45507 -3.1739,12.45704 -1.5058,12.21093 -1.5059,12.21094 0.7227,14.66606 0.7246,14.66791 2.2148,10.666 2.2149,10.6661 4.3652,11.6562 4.3672,11.6563 6.5215,10.8203 6.5234,10.8203 10.2324,10.9551 10.2325,10.9531 9.7675,6.7344 9.7676,6.7363 10.6973,5.3633 10.6953,5.3633 11.3047,3.5 11.3027,3.5 8,1.2285 8,1.2285 12.1836,-0.6074 12.1856,-0.6075 10.0488,-2.5703 10.0508,-2.5703 9.9746,-4.1523 9.9765,-4.1543 12.2481,-8.2598 12.248,-8.2598 3.1328,-1.9648 3.1329,-1.9648 0.8574,0.8574 0.8574,0.8574 3.3086,13.1074 3.3105,13.1074 2.0547,3.1739 2.0528,3.1758 7.5214,-0.7989 7.5215,-0.7988 23.334,-5.9492 23.334,-5.9473 18.9863,-6.1426 18.9864,-6.1406 15.0136,-6.0351 15.0137,-6.0332 3,-2.8184 3,-2.8164 v -3.0547 -3.0547 l -4.0547,-4.6172 -4.0527,-4.6172 -13.1309,-6.7441 -13.1289,-6.7441 -0.8984,-2.3399 -0.8985,-2.3398 -0.6172,-170.01177 -0.621,-170.01172 -0.7813,-24.43164 -0.7812,-24.43164 -3.0723,-3.56836 z m -2268.32042,17.63868 -90.95118,0.79492 -90.95117,0.79297 -24.99023,1.34765 -24.99024,1.34766 -3.91601,2.02344 -3.91406,2.02539 -0.85157,2.67969 -0.85156,2.68164 0.82031,2.58398 0.82032,2.58203 6.04687,4.00586 6.04688,4.00391 14.88867,6.25781 14.89062,6.25586 6.23828,3.12891 6.24024,3.13085 0.83398,1.35157 0.83594,1.35156 3.27734,16.76367 3.2793,16.76172 1.9375,14.24414 1.9375,14.24609 1.71094,17.33204 1.70898,17.33398 -0.11523,62 -0.11328,62 -2.875,49.33398 -2.875,49.33205 -1.88868,6.9922 -1.88671,6.9922 -2.84571,5.8789 -2.8457,5.8769 -6.43359,6.0176 -6.4336,6.0176 -6.54297,3.3164 -6.54492,3.3164 -9.90625,3.0098 -9.90625,3.0078 -3.06055,3.0605 -3.06054,3.0606 v 5.2129 5.2148 l 2.85156,3.6231 2.85156,3.625 2.81446,1.1386 2.8164,1.1367 118.39453,0.084 118.39453,0.086 3.27149,-3.2734 3.27344,-3.2734 -0.006,-3.7266 -0.004,-3.7266 -2.54883,-4.1816 -2.54883,-4.1797 -6.44726,-2.3047 -6.44531,-2.3047 -8.2461,-3.8886 -8.24804,-3.8887 -6.08789,-6.7734 -6.0879,-6.7715 -4.05859,-8.5039 -4.05859,-8.502 -2.55469,-10.3515 -2.55664,-10.3497 -1.38477,-12.9472 -1.38476,-12.94921 0.0625,-15.71879 0.0625,-15.71875 1.74804,-22.96875 1.74805,-22.96875 1.82813,-2.20117 1.82617,-2.20117 9.58594,0.72656 9.58593,0.72461 5.93946,2.62695 5.9414,2.62695 5.61524,5.07422 5.61718,5.07422 3.70508,5.41016 3.70508,5.41015 40.28125,79.33207 40.28125,79.334 3.31836,3.0078 3.31641,3.0078 72.25,-0.7188 72.25,-0.7207 12.41015,-0.7519 12.41016,-0.752 3.52344,-3.0293 3.52148,-3.0312 v -4.7735 -4.7714 l -2.41992,-2.6758 -2.42188,-2.6778 -8.17968,-2.7402 -8.17774,-2.7422 -9.33398,-5.2207 -9.33203,-5.2187 -11.0918,-8.9297 -11.0918,-8.9297 -11.39453,-12.7969 -11.39453,-12.7988 -9.0625,-12.7012 -9.06445,-12.7012 -7.9336,-12.66791 -7.93359,-12.66604 -9.66211,-17.70703 -9.66016,-17.70508 -9.85546,-21.39258 -9.85547,-21.39258 v -2.6289 -2.63086 l 4.14062,-2.27149 4.14258,-2.27148 11.27734,-6.61914 11.2793,-6.62109 10.625,-9.86914 10.625,-9.8711 5.79688,-8.17578 5.79882,-8.17773 4.24805,-8.47461 4.24805,-8.47461 2.61914,-10.19141 2.61914,-10.19141 v -13.33398 -13.33398 l -2.66602,-10.375 -2.66601,-10.375 -5.59961,-11.30079 -5.59961,-11.29882 -6.14453,-7.62696 -6.14258,-7.625 -7.94727,-6.40234 -7.94922,-6.4043 -12.68554,-6.47851 -12.6875,-6.48047 -10,-3.58008 -10,-3.57812 -15.76953,-3.85547 -15.77149,-3.85743 -17.5625,-2.64062 -17.5625,-2.64063 -19.04883,-1.58593 z m 1.57226,33.69336 9.13867,2.08007 9.13868,2.07813 7.79101,4.66797 7.79102,4.66601 6.25976,6.13282 6.25977,6.13086 3.94531,7.45507 3.94727,7.45703 2.12695,7.24219 2.12695,7.24024 v 35.47851 35.47852 l -2.04297,7.8457 -2.04492,7.84766 -3.57617,6.57226 -3.57813,6.57227 -5.04296,5.73047 -5.04493,5.73047 -7.00195,4.60742 -7.00195,4.60742 -8,3.01562 -8,3.01368 -15.33203,0.57226 -15.33399,0.57031 -5.48828,-2.58398 -5.48828,-2.58398 -3.8457,-5.04102 -3.84375,-5.04102 -0.4043,-72.77148 -0.4043,-72.77148 1.4043,-4.81836 1.40234,-4.82032 2.89649,-3.68164 2.89453,-3.68164 5.43945,-2.46875 5.4375,-2.4707 11.73633,-0.0293 z m 1665.18366,112 -63.6621,24.66211 -63.66218,24.66015 -3.25,2.41992 -3.25,2.41993 -1.127,3.38476 -1.1289,3.38281 1.3262,3.48633 1.3262,3.48828 6.9414,3.51758 6.9414,3.51563 6.9141,6.54101 6.916,6.54102 4.1933,8.32422 4.1914,8.32421 2.7344,10.66602 2.7344,10.66602 1.0742,16.07031 1.0742,16.07031 -1.0449,19.26568 -1.0449,19.26361 -3.4375,26.4063 -3.4395,26.4062 -2.6426,5.1817 -2.6445,5.1816 -4.3457,3.2461 -4.3457,3.2461 -5.1562,1.6523 -5.1543,1.6524 -6.4551,-0.6192 -6.4551,-0.6211 -4.3906,-3.5293 -4.3887,-3.5312 -4.9824,-4.2227 -4.9824,-4.2226 -5.6836,1.8848 -5.6856,1.8867 -6.3164,-0.2012 -6.3164,-0.2012 -4.2109,-2.4648 -4.211,-2.4668 -2.8046,-3.7617 -2.8067,-3.7618 -0.8652,-61.57221 -0.8633,-61.57034 -1.4961,-14.66796 -1.4961,-14.66602 -2.1055,-12.66602 -2.1054,-12.66796 -3.8946,-12.22071 -3.8945,-12.2207 -5.5273,-8.27734 -5.5274,-8.27735 -7.8125,-5.75195 -7.8125,-5.75195 -7.3926,-2.76563 -7.3945,-2.76562 -12.2383,-2.13086 -12.2402,-2.12891 -26,0.68359 -26,0.68164 -11.08203,2.08204 -11.08204,2.08203 -12.49414,3.32617 -12.49414,3.32422 -13.09179,4.89062 -13.08985,4.89063 -11.92969,5.97656 -11.92968,5.97852 -8.20313,5.18164 -8.20508,5.18164 -6.9375,7.33593 -6.93945,7.33594 -3.45703,7.55078 -3.45703,7.55274 v 8.84765 8.84961 l 3.69531,8.23243 3.69531,8.23437 7.16407,6.77539 7.16406,6.77539 7.66992,3.54688 7.66992,3.54882 10.66602,0.0469 10.66797,0.0469 7.62304,-3.57421 7.625,-3.57422 6.53516,-6.11328 6.53711,-6.11329 4.06836,-8.3125 4.07031,-8.3125 5.60547,-15.33398 5.60547,-15.33398 4.38476,-8.74219 4.38672,-8.74414 5.36524,-4.84766 5.36718,-4.84765 4.83008,-0.90625 4.83008,-0.90625 5.22656,0.70117 5.22657,0.70117 6.17382,2.98828 6.17383,2.98828 2.48633,5.47461 2.48633,5.47461 0.0293,35.5918 0.0293,35.59179 -3,3.32227 -3,3.32031 -18.66601,4.65625 -18.66797,4.6543 -16,5.26562 -16,5.26563 -17.33203,6.92969 -17.33399,6.92968 -18.66601,9.07033 -18.66797,9.0703 -8.01758,6.04101 -8.01953,6.043 -4.13086,5.791 -4.13086,5.791 -2.39063,4.666 -2.39257,4.6661 -1.77539,6.6679 -1.77735,6.666 -0.0156,7.3868 -0.0156,7.3867 1.98828,7.6347 1.99024,7.6368 3.42773,6.7636 3.42774,6.7657 5.58203,6.0976 5.58398,6.0977 7.94531,5.1601 7.94336,5.1621 9.06641,2.7539 9.06445,2.7539 12.32422,0.8672 12.32227,0.8672 8.66797,-0.3984 8.66601,-0.3965 10.66602,-2.0234 10.66797,-2.0235 11.82617,-3.9414 11.82617,-3.9394 15.36914,-7.3067 15.36719,-7.3047 h 2.59961 2.59961 l 11.20703,7.4571 11.20898,7.459 10.3438,4.3613 10.3437,4.3633 9.584,2.1796 9.584,2.1797 h 12.6484 12.6504 l 9.0879,-1.9336 9.0859,-1.9336 7.334,-2.6035 7.334,-2.6035 8.9707,-4.1308 8.9707,-4.1289 h 4.6738 4.6758 l 19.6875,3.9394 19.6875,3.9395 18,2.0078 17.99997,2.0097 19.33405,0.8711 19.332,0.8711 22.3985,-1.5566 22.3964,-1.5567 17.2325,-2.5293 17.2324,-2.5293 2.7031,-1.4453 2.7051,-1.4472 v -3.3067 -3.3047 l -5.8535,-7.1855 -5.8516,-7.1856 -5.4551,-10.8984 -5.455,-10.8984 -2.6387,-8.8965 -2.6387,-8.8984 -1.9531,-11.3321 -1.9551,-11.334 -0.9219,-14 -0.9238,-14.00001 1.5508,-19.33395 1.5527,-19.33204 2.5879,-18 2.5879,-18 4.2402,-8.66796 4.2383,-8.66602 9.4434,-9.36328 9.4453,-9.36133 7.9414,-3.8125 7.9414,-3.81445 8.0606,-0.64649 8.0625,-0.64648 4.914,2.05273 4.9141,2.05274 4.0976,5.65625 4.0957,5.65625 2.6954,8.72461 2.6953,8.72461 1.9062,12.05468 1.9082,12.05664 0.8692,20 0.8711,20 -1.5098,27.33209 -1.5098,27.33391 -2.0469,19.8828 -2.0449,19.8829 -1.4765,2.7832 -1.4766,2.7851 -12.4551,15.1446 -12.4531,15.1445 v 3.7793 3.7793 l 2.9629,2.0761 2.9629,2.0762 h 90.2226 90.2227 l 2.9375,-2.3789 2.9375,-2.3808 0.1426,-4.9903 0.1406,-4.9922 -3.2637,-3.205 -3.2656,-3.2032 -17.6777,-9.5312 -17.6758,-9.5313 -1.2285,-2.2929 -1.2266,-2.295 -0.834,-15.9336 -0.834,-15.9335 -1.2382,-51.3321 -1.2403,-51.33398 -2.6875,-15.13086 -2.6875,-15.13086 -4.0664,-12.20312 -4.0683,-12.20118 -5.6016,-9.99414 -5.6016,-9.99414 -11.332,-11.4707 -11.334,-11.46875 -8.5391,-4.94922 -8.5371,-4.94726 -10.1289,-3.46094 -10.1289,-3.46094 -12.666,-0.0137 -12.666,-0.0137 -11.334,2.95703 -11.334,2.95703 -14.666,7.06836 -14.666,7.06836 -17.832,10.75586 -17.8321,10.75586 -1.8457,-0.70899 -1.8476,-0.70898 -0.6407,-2.85156 -0.6386,-2.85352 -2.7188,-16.66602 -2.7187,-16.66796 -3.3711,-3 -3.3711,-3 h -1.9297 z m -1252.586,4.00586 -14.70312,1.35156 -14.70313,1.34961 -13.68555,3.38867 -13.6875,3.38867 -11.64648,4.66992 -11.64649,4.66797 -9.33398,5.44922 -9.33203,5.44922 -8.66797,6.35937 -8.66602,6.35938 -10.05664,10.44726 -10.05469,10.44727 -4.79296,6.66602 -4.79102,6.66796 -4.85156,9.55274 -4.85157,9.55273 -2.68164,7.7793 -2.68164,7.78125 -1.95117,11.17383 -1.95312,11.17578 v 9.0625 9.06055 l 1.42968,10.28125 1.42969,10.28121 3.31055,11.48251 3.3125,11.4824 6.61328,13.8808 6.61133,13.8829 7.64648,11.4453 7.64649,11.4453 12.66601,12.7031 12.66602,12.7012 10.35547,7.0644 10.35547,7.0664 12.3125,5.8243 12.31054,5.8242 10.5586,2.8906 10.56055,2.8906 6.10742,1.0332 6.10742,1.0352 16.1582,0.1562 16.15821,0.1563 11.23632,-1.959 11.23633,-1.959 9.27149,-2.8066 9.27148,-2.8047 16,-7.8457 16.000004,-7.8457 14,-10.5508 14,-10.5488 11,-10.6094 11,-10.6113 v -5.6231 -5.623 l -3.27149,-3.2735 -3.27343,-3.2714 h -4.10743 -4.10742 l -13.61914,7.2089 -13.62109,7.209 -12.724614,4.709 -12.72266,4.709 -13.48632,2.748 -13.48438,2.7481 -15.125,-0.02 -15.12305,-0.019 -8.35937,-1.9707 -8.35742,-1.9707 -6.86524,-3.4785 -6.86328,-3.4786 -7.15429,-6.7656 -7.1543,-6.7676 -3.80078,-8.0976 -3.79883,-8.0977 -1.82227,-7.334 -1.82422,-7.3339 0.125,-17.33211 0.125,-17.33396 1.67969,-5.98828 1.67969,-5.98828 2.64063,-3.70899 2.64062,-3.70898 5.55469,-2.96875 5.55469,-2.9707 79.33398,-0.66602 79.332034,-0.66602 4.15429,-2.27539 4.1543,-2.27539 2.17969,-4.59179 2.17969,-4.59375 v -6.10157 -6.10156 l -3.1543,-8.38086 -3.15625,-8.38281 -4.36328,-8.64844 -4.36524,-8.64844 -6.30273,-9.33398 -6.30273,-9.33398 -6.51172,-7.24219 -6.51172,-7.24219 -9.56641,-7.60937 -9.56836,-7.60938 -9.765624,-5.3418 -9.76563,-5.34179 -10,-3.56641 -10,-3.56836 -8.3496,-1.93945 -8.35157,-1.9375 -13.61328,-1.29688 z m -1.43359,35.7207 5.40039,0.60742 5.40234,0.60938 4.66406,2.21289 4.66407,2.21484 4.95117,4.08008 4.94922,4.07812 3.33398,5.68946 3.33399,5.68945 1.47851,7.36328 1.47852,7.36523 -2.27149,7.81446 -2.27148,7.8164 -5.54297,5.49805 -5.54297,5.5 -18.54297,0.86719 -18.54297,0.86719 h -11.56836 -11.5664 l -0.88867,-0.88868 -0.88868,-0.88867 0.008,-6.11133 0.01,-6.11132 2.69727,-11.25 2.69727,-11.25 4.17968,-8.49024 4.17969,-8.49023 6.57031,-5.90821 6.57227,-5.9082 5.5293,-1.48828 z m 370.83788,1.60742 6.92579,3.45117 6.92578,3.45117 4.5957,5.3711 4.59766,5.37109 2.11914,6.17774 2.11914,6.17773 2.51953,17.33398 2.51758,17.33204 1.62695,15.33398 1.62891,15.33398 0.0176,24.66602 0.0176,24.66602 -1.62109,10.66801 -1.62305,10.666 -2.60156,9.7324 -2.60352,9.7324 -4.02539,7.9727 -4.02539,7.9746 -4.95312,5.4824 -4.95313,5.4844 -4.80273,3.0312 -4.80274,3.0313 -7.11328,2.1133 -7.11328,2.1113 -6.75781,-0.1328 -6.75781,-0.1348 -5.15625,-1.2109 -5.15625,-1.211 -4.36719,-2.0722 -4.36524,-2.0703 -3.70898,-8.25 -3.70703,-8.25 -4.4668,-13.2696 -4.46484,-13.2695 -2.62305,-12.873 -2.625,-12.875 -1.5625,-16.9981 -1.56445,-16.9961 1.58203,-19.52734 1.58008,-19.52539 2.54883,-12.41602 2.54882,-12.41601 3.89258,-8.25 3.89453,-8.25195 6.17188,-8.1543 6.17187,-8.1543 7.05664,-5.44336 7.05469,-5.44336 5.96485,-2.70507 5.96679,-2.70704 8.73828,-0.0293 z m 1321.18951,2 h 12 12 l 7.3946,3.46875 7.3945,3.4668 5.0176,4.40625 5.0175,4.40625 2.6016,5.09765 2.5996,5.09766 1.9317,8.36133 1.9336,8.36133 1.5683,18.66796 1.5684,18.66602 -0.8125,26.83594 -0.8145,26.83398 -1.4414,19.16601 -1.4433,19.1641 -1.8907,7.6465 -1.8926,7.6465 -3.4765,6.8613 -3.4766,6.8613 -6.2226,6.2149 -6.2227,6.2168 -6.418,3.1035 -6.4199,3.1035 -8.248,0.4707 -8.2481,0.4726 -3.3418,-1.0976 -3.3418,-1.0957 -4.0332,-2.086 -4.0332,-2.0859 -6.1797,-6.6055 -6.1777,-6.6054 -3.2949,-6.5117 -3.2949,-6.5098 -4.0215,-11.4082 -4.0235,-11.4102 -2.7031,-12.5898 -2.7051,-12.59181 -1.6074,-14.00002 -1.6074,-14 0.7598,-17.33398 0.7597,-17.33204 2.1172,-10 2.1172,-10 2.8047,-8.66796 2.8047,-8.66602 4.4961,-8.66602 4.498,-8.66796 5.7676,-7.33204 5.7676,-7.33398 7.2363,-4 z m -748.69146,121.07422 3.00586,1.49805 3.00586,1.5 0.84961,3.96289 0.84961,3.96486 0.15625,16.38871 0.1582,16.3906 -2.09179,10.2773 -2.08985,10.2774 -3.04492,6.7265 -3.04297,6.7285 -4.25781,4.8477 -4.25586,4.8496 -5.60938,2.627 -5.60742,2.6269 -6,0.6738 -6,0.6719 -4.99023,-1.3398 -4.99219,-1.3399 -3.30859,-3.9336 -3.31055,-3.9316 -2.03125,-6.8457 -2.0332,-6.8457 v -10.1445 -10.1446 l 2.05664,-7.9472 2.05664,-7.9473 4.27539,-7.1504 4.27734,-7.15041 5.33399,-4.6816 5.33203,-4.6817 8,-3.78122 8,-3.7832 7.65429,-1.18164 z M 1901.7394,1316.8221 c -0.1414,0.096 -0.2946,0.1927 -0.4356,0.289 l 0.1074,2.0449 -1.0703,3.6797 c 0.4777,0.267 0.9422,0.5339 1.416,0.8008 z" /><path
           style="fill:#0a0706"
           d="m 2121.953,1724.4326 -10.6667,-1.0679 -9.7835,-2.09 -9.7835,-2.0901 -10.1281,-3.3999 -10.1282,-3.3999 -9.933,-4.5894 -9.9329,-4.5893 -11.4887,-7.6435 -11.4887,-7.6434 -10.5482,-10.0278 -10.5482,-10.0277 -7.8621,-10.5525 -7.862,-10.5524 -5.8607,-12.1142 -5.8608,-12.1142 -3.5581,-12 -3.558,-12 -0.6746,-19.0784 -0.6746,-19.0783 1.6409,-10.1721 1.641,-10.1721 3.2861,-10.0829 3.286,-10.0829 5.2594,-10.5199 5.2594,-10.52 6.2447,-8.8133 6.2446,-8.8134 11.4498,-11.3895 11.4498,-11.3894 11.2895,-7.4658 11.2894,-7.4658 9.3333,-4.6581 9.3334,-4.6581 11.3333,-3.9979 11.3333,-3.9978 10.908,-2.2245 10.908,-2.2245 14.0876,-1.1276 14.0877,-1.1276 15.2979,1.2225 15.2978,1.2225 15.2929,3.8622 15.293,3.8623 12.5283,5.4945 12.5283,5.4945 12.2463,7.9196 12.2463,7.9196 12.5451,12.1363 12.5452,12.1363 6.5926,9.5615 6.5926,9.5614 5.4948,10.9576 5.4947,10.9575 3.2786,11.3137 3.2785,11.3137 1.6085,13.8369 1.6084,13.8369 -1.5755,13.8919 -1.5755,13.8918 -2.7682,10 -2.7682,10 -5.155,11.0811 -5.155,11.0811 -6.339,9.5352 -6.339,9.5352 -8.7095,9.2702 -8.7095,9.2703 -9.717,7.7507 -9.717,7.7507 -9.4579,5.5237 -9.458,5.5238 -12.3705,5.1689 -12.3706,5.1688 -13.7879,3.3 -13.7878,3.2999 -14.6666,1.3691 -14.6667,1.3691 -4.6667,-0.1806 -4.6666,-0.1805 z m 38.05,-36.7248 6.8003,-3.7011 4.1046,-4.675 4.1047,-4.675 3.773,-8.0631 3.773,-8.0632 2.6531,-10.3741 2.6531,-10.3741 2.3106,-18.9593 2.3106,-18.9592 0.067,-35.3333 0.067,-35.3333 -1.8298,-12 -1.8298,-12 -3.1866,-11.0767 -3.1866,-11.0766 -3.4291,-6.7671 -3.4292,-6.7671 -6.0179,-6.4336 -6.0179,-6.4337 -5.5366,-2.654 -5.5365,-2.6541 -6.773,-0.8769 -6.773,-0.8769 -7.5483,1.567 -7.5483,1.5671 -6.3367,4.3667 -6.3366,4.3668 -5.3887,7.8746 -5.3886,7.8745 -3.667,11.0954 -3.667,11.0955 -1.9452,12.9045 -1.9453,12.9046 -0.01,25.7045 -0.01,25.7046 2.0315,19.6288 2.0314,19.6287 3.3456,19.3334 3.3455,19.3333 2.7212,11.6117 2.7212,11.6116 2.6862,3.415 2.6862,3.415 3.8708,2.0016 3.8708,2.0017 7.6781,1.9458 7.6782,1.9457 9.6248,-0.5347 9.6249,-0.5348 z m -1602.73798,33.5729 -12.68801,-1.8244 -13.31199,-3.3682 -13.31198,-3.3682 -10,-3.5725 -10,-3.5726 -12.05794,-5.746 -12.05795,-5.7461 -9.94205,-6.6524 -9.94206,-6.6524 -8.46633,-8.4571 -8.46632,-8.4571 -6.55265,-9.9671 -6.55264,-9.9672 -4.14044,-10.6995 -4.14043,-10.6995 -2.48974,-12 -2.48975,-12 -0.0175,-17.6194 -0.0175,-17.6194 2.53936,-13.0996 2.53935,-13.0996 3.55028,-10.5761 3.55028,-10.5761 6.20473,-12.0135 6.20474,-12.0135 7.55549,-10.0247 7.55548,-10.0248 7.15015,-6.7586 7.15014,-6.7587 8.21039,-6.0428 8.2104,-6.0429 11.7896,-6.0309 11.78961,-6.0308 8.5386,-2.9035 8.53861,-2.9035 10.69675,-2.5549 10.69676,-2.5548 16.15237,-1.5187 16.15238,-1.5186 16.4441,1.5006 16.4441,1.5006 11.61218,2.5344 11.61218,2.5344 10.42392,3.4992 10.42392,3.4991 10.94001,5.2215 10.94001,5.2214 10.23929,6.8485 10.23929,6.8485 10.28609,10.2938 10.2861,10.2938 6.16832,9.2448 6.16833,9.2448 4.16794,8.3011 4.16794,8.3011 3.37379,10.3354 3.3738,10.3353 1.95124,12.0302 1.95125,12.0302 -0.002,10.6667 -0.003,10.6667 -1.91033,12.6722 -1.91034,12.6722 -3.55483,11.3278 -3.55483,11.3278 -4.32115,9.4089 -4.32114,9.409 -5.03473,7.9244 -5.03472,7.9243 -7.38673,9.0787 -7.38674,9.0786 -10.33634,8.2701 -10.33635,8.2701 -10.44802,5.5659 -10.44803,5.5659 -12,3.9894 -12,3.9893 -10,2.1608 -10,2.1608 -23.33333,0.5559 -23.33333,0.5559 z m 36.315,-29.5763 6.29365,-2.0286 6.47611,-5.8226 6.4761,-5.8226 4.30578,-8.0784 4.30579,-8.0785 3.11838,-12.3383 3.11838,-12.3383 1.67084,-15.2295 1.67085,-15.2296 -0.83115,-27.4371 -0.83116,-27.4372 -2.69989,-20.3842 -2.69988,-20.3842 -2.67515,-12.2825 -2.67514,-12.2824 -2.72417,-8.2038 -2.72417,-8.2037 -4.0242,-6.0755 -4.0242,-6.0754 -7.28934,-3.5663 -7.28933,-3.5664 -8.7398,0.7016 -8.7398,0.7015 -9.74062,4.8141 -9.74062,4.8141 -7.24874,7.8295 -7.24873,7.8295 -2.89166,7.8337 -2.89167,7.8338 -2.55595,15.3333 -2.55595,15.3333 -1.61572,17.7851 -1.61572,17.7851 0.69199,28.8816 0.69198,28.8816 2.26386,14.6666 2.26386,14.6667 2.67241,8 2.6724,8 5.92924,8.925 5.92924,8.925 6.28079,4.5592 6.2808,4.5593 3.06205,1.5959 3.06205,1.5958 5.60461,1.1474 5.60462,1.1474 4.66666,-0.6262 4.66667,-0.6262 z m -798.68866,28.6902 -9.72837,-1.3156 -12.72124,-3.227 -12.72125,-3.227 -13.72393,-6.5558 -13.72394,-6.5558 -8.17557,-5.5519 -8.17558,-5.5519 -8.87848,-8.2729 -8.87847,-8.273 -7.91065,-10.6352 -7.91065,-10.6353 -5.68961,-11.3647 -5.68961,-11.3648 -3.3607,-10.054 -3.36071,-10.054 -2.44458,-11.2793 -2.44458,-11.2793 0.059,-20.6667 0.059,-20.6667 2.92872,-10.6666 2.92872,-10.6667 4.67145,-9.8598 4.67146,-9.8598 5.95895,-8.9635 5.95895,-8.9636 10.91277,-10.9127 10.91277,-10.9128 12.02113,-8.0408 12.02113,-8.0408 8.84941,-4.4565 8.84941,-4.4565 13.7014,-4.7691 13.7014,-4.7692 13.53035,-2.9308 13.53035,-2.9309 h 24 24 l 12.0792,2.8149 12.0792,2.8149 10.71083,4.1305 10.71083,4.1306 11.876634,7.829 11.876633,7.829 6.918695,7.3226 6.918695,7.3226 6.603942,10.1162 6.603941,10.1162 4.08389,11.2864 4.083891,11.2864 1.972317,10.4299 1.972317,10.4298 0.698321,7.0562 0.698321,7.0561 -2.393699,2.3937 -2.393699,2.3937 -21.929876,0.8244 -21.929875,0.8244 -65.286918,1.5098 -65.28693,1.5098 -3.65784,1.3741 -3.65785,1.374 -1.44274,5.3579 -1.44274,5.3579 1.4184,15.5434 1.4184,15.5433 2.56934,10.0461 2.56935,10.046 3.53811,8.4062 3.53811,8.4062 5.27077,8.3456 5.27078,8.3457 5.72142,5.2738 5.72142,5.2739 5.91587,3.4307 5.91587,3.4306 7.9453,2.2805 7.9453,2.2806 14.0547,-0.7168 14.0547,-0.7168 12.18565,-4.0379 12.18565,-4.038 12.211471,-6.133 12.211474,-6.1329 9.56839,-5.9546 9.56839,-5.9546 h 4.428425 4.428426 l 3.272727,3.2727 3.272727,3.2728 v 5.6396 5.6396 l -2.76383,5.7093 -2.76383,5.7094 -7.290651,6.6632 -7.290651,6.6632 -10.945518,7.237 -10.945519,7.237 -9.333331,4.6581 -9.33334,4.6581 -11.74879,4.1448 -11.74879,4.1448 -13.3684,2.7243 -13.3684,2.7244 -16.88281,0.5407 -16.8828,0.5407 z m 49.72837,-201.8642 5.33333,-2.6667 2.43484,-4.9826 2.43484,-4.9826 0.74513,-9.8524 0.74514,-9.8524 -2.84371,-9.3623 -2.8437,-9.3623 -5.88265,-7.8027 -5.88266,-7.8027 -3.96422,-2.3165 -3.96422,-2.3165 -6.14275,1.8487 -6.14275,1.8487 -5.83234,3.418 -5.83235,3.4179 -6.26998,6.3598 -6.26997,6.3599 -5.22493,10.69 -5.22493,10.69 -1.41215,9.2118 -1.41215,9.2118 0.83167,3.7866 0.83166,3.7865 2.89442,2.0705 2.89443,2.0705 25.33333,-0.4022 25.33333,-0.4021 z m 1090.24371,201.093 -4.42292,-2.1795 -4.71145,-5.4568 -4.71145,-5.4567 -16.31996,-30.6667 -16.31995,-30.6666 -44.32952,-84 -44.32952,-84 -2.88282,-3.1642 -2.88282,-3.1641 -14.9871,-7.2104 -14.9871,-7.2103 -5.2448,-4.9892 -5.24479,-4.9893 -0.97312,-3.8772 -0.97312,-3.8772 1.92107,-3.4257 1.92108,-3.4258 62.61727,-1.005 62.61728,-1.005 35.78398,0.3383 35.78398,0.3384 3.21602,3.741 3.21601,3.741 v 5.0266 5.0266 l -3,2.7312 -3,2.7313 -8,2.9366 -8,2.9365 -4.24334,2.6177 -4.24335,2.6178 -2.3267,6.0923 -2.3267,6.0924 1.63085,7.8958 1.63086,7.8959 8.89983,22.292 8.89983,22.292 15.3727,30.6666 15.37269,30.6667 4.27044,0.4131 4.27044,0.4131 3.39911,-6.7078 3.39911,-6.7078 23.99714,-52.194 23.9971,-52.194 v -2.2564 -2.2565 l -1.6667,-2.1783 -1.6666,-2.1783 -18.6667,-14.8421 -18.66667,-14.8421 -1.18334,-2.522 -1.18333,-2.522 2.07144,-3.1615 2.07144,-3.1614 42.32936,-0.8843 42.3293,-0.8844 h 21.7615 21.7616 l 4.2432,3.7914 4.2433,3.7913 v 4.1915 4.1914 l -2.5408,2.8075 -2.5407,2.8075 -10.6815,7.0142 -10.6815,7.0143 -8.8703,8.1948 -8.8704,8.1948 -9.9789,12.334 -9.9789,12.334 -8.6599,13.3333 -8.66,13.3334 -7.9811,14 -7.981,14 -18.0152,34.6666 -18.0151,34.6667 -18.99649,38 -18.99648,38 -3.8943,5.6649 -3.89429,5.665 -3.87093,2.0017 -3.87092,2.0017 -5.06622,-0.03 -5.06621,-0.03 z m 1925.08956,0.6847 -12.6667,-1.193 -16,-3.2362 -16,-3.2362 -16.6667,-5.3456 -16.6666,-5.3456 -2.9078,-2.0549 -2.9077,-2.0549 -1.3875,-6.989 -1.3874,-6.989 -2.7048,-26.9987 -2.7048,-26.9988 v -7.0679 -7.0679 l 1.6,-1.6 1.6,-1.6 h 3.4908 3.4908 l 17.9092,20.1736 17.9092,20.1737 10.8671,10.1597 10.8672,10.1597 7.4278,4.4728 7.4278,4.4728 8.3717,3.4205 8.3717,3.4205 14.7596,0.5986 14.7595,0.5986 4.1342,-2.1379 4.1343,-2.1379 4.7446,-5.7902 4.7446,-5.7901 2.0282,-4.8544 2.0283,-4.8544 v -6.0959 -6.0959 l -2.536,-4.9469 -2.536,-4.9469 -5.1307,-5.1423 -5.1306,-5.1423 -5.3333,-3.6714 -5.3334,-3.6714 -22,-12.3033 -22,-12.3034 -16.6666,-11.0753 -16.6667,-11.0752 -10.0734,-8.6254 -10.0734,-8.6253 -6.9328,-8.7125 -6.9327,-8.7125 -4.034,-8.6204 -4.034,-8.6205 -1.2617,-7.7523 -1.2617,-7.7522 1.8659,-8.9492 1.866,-8.9492 2.733,-5.3571 2.733,-5.3572 7.9968,-9.9406 7.9968,-9.9406 9.0394,-7.2868 9.0395,-7.2868 4.0765,-2.8046 4.0765,-2.8047 9.746,-4.8912 9.7461,-4.8912 9.416,-3.2026 9.416,-3.2026 11.4281,-2.2055 11.4281,-2.2054 20,-0.012 20,-0.012 10.6667,1.569 10.6666,1.5691 20,4.8255 20,4.8255 3.7245,1.8888 3.7245,1.8887 1.2041,2.9359 1.2041,2.9358 1.4132,27.3334 1.4133,27.3333 -0.01,6.3333 -0.01,6.3334 -2.6667,2.6666 -2.6666,2.6667 h -4.5115 -4.5116 l -4.4954,-5 -4.4955,-5 -11.3263,-14.6511 -11.3264,-14.6511 -7.8756,-7.6826 -7.8755,-7.6825 -7.8318,-3.9136 -7.8318,-3.9136 -7.59,-1.5757 -7.59,-1.5757 -9.5617,0.6137 -9.5617,0.6136 -6.0129,3.5238 -6.0129,3.5238 -2.9694,6.1339 -2.9693,6.134 0.7514,7.2811 0.7515,7.2811 3.295,5.6225 3.295,5.6224 7.269,6.8748 7.269,6.8747 7.8348,5.0118 7.8347,5.0119 27.8292,14.4528 27.8292,14.4528 9.5286,6.1318 9.5285,6.1319 9.0131,7.2447 9.013,7.2448 6.5821,9.3726 6.5821,9.3725 2.3661,6.8928 2.3661,6.8928 v 12 12 l -3.6472,10.7253 -3.6472,10.7253 -5.8476,9.9414 -5.8477,9.9413 -7.5562,8.3076 -7.5563,8.3077 -10.9329,7.2745 -10.933,7.2745 -10.1919,4.0811 -10.1919,4.081 -11.1198,2.6292 -11.1199,2.6292 -12,1.3633 -12,1.3633 -10.6667,-0.1703 -10.6667,-0.1703 z m -1664.4285,-1.1853 -9.0951,-1.0571 -8.9602,-2.7216 -8.9602,-2.7216 -8.1508,-5.2681 -8.1507,-5.268 -5.4012,-7.1539 -5.4012,-7.1538 -3.5481,-7.7501 -3.5481,-7.7501 -0.7011,-11.2373 -0.7011,-11.2372 2.3387,-8.6396 2.3386,-8.6396 6.4237,-9.147 6.4236,-9.147 7.0942,-6.0245 7.0942,-6.0245 9.8137,-6.3188 9.8138,-6.3188 12.5656,-5.8719 12.5657,-5.872 18.9539,-6.4478 18.954,-6.4477 31.3333,-8.4871 31.3333,-8.4871 3.1667,-3.1395 3.1667,-3.1395 -0.7556,-5.5606 -0.7556,-5.5606 -2.1361,-27.3333 -2.1361,-27.3334 -0.6891,-5.6603 -0.689,-5.6603 -3.3383,-3.9674 -3.3383,-3.9673 -4.9143,-1.3649 -4.9143,-1.3649 -4.758,-0.01 -4.758,-0.01 -7.242,2.1284 -7.242,2.1284 -4.2299,3.1939 -4.2298,3.1938 -3.4181,7.0111 -3.418,7.0111 -3.3709,15.3333 -3.3709,15.3334 -3.4242,7.0237 -3.4242,7.0237 -6.5233,6.6972 -6.5233,6.6973 -8.4108,3.9359 -8.4109,3.9359 -7.9766,0.8337 -7.9767,0.8337 -8.6134,-2.2066 -8.6133,-2.2066 -5.7279,-3.3568 -5.728,-3.3568 -4.6292,-4.6293 -4.6292,-4.6292 -2.9694,-5.6312 -2.9695,-5.6313 v -9.3333 -9.3334 l 3.0182,-5.7267 3.0181,-5.7268 4.9423,-5.5081 4.9422,-5.5082 14,-10.4235 14,-10.4235 16.9447,-8.7233 16.9446,-8.7233 15.8554,-5.2064 15.8554,-5.2065 15.2,-3.0487 15.1999,-3.0487 22.6667,-0.03 22.6666,-0.03 10,2.4685 10,2.4684 12.6667,6.0491 12.6667,6.049 10.1537,10.1492 10.1536,10.1491 4.8353,9.6114 4.8352,9.6113 3.0111,10.3887 3.0111,10.3886 -0.3816,54 -0.3816,54 1.2356,24.9442 1.2357,24.9442 2.927,6.0465 2.9271,6.0465 4.2189,3.0064 4.2189,3.0065 6,-0.039 6,-0.039 6.0787,-1.8336 6.0787,-1.8336 3.2812,0.8235 3.2811,0.8235 2.9735,2.7702 2.9734,2.7702 v 4.2814 l -0.01,4.2814 -2.6176,4.293 -2.6175,4.293 -5.3985,3.9107 -5.3985,3.9106 -11.0216,5.3846 -11.0216,5.3846 -11.9574,3.6529 -11.9574,3.6529 -20,0.07 -20,0.07 -8.6666,-2.4108 -8.6667,-2.4107 -12,-5.6861 -12,-5.686 -6.5944,-4.2143 -6.5943,-4.2143 h -3.9552 -3.9551 l -5.4505,3.1612 -5.4505,3.1613 -12.4985,4.9721 -12.4985,4.972 -14.9142,3.7667 -14.9142,3.7666 -15.254,1.4288 -15.2539,1.4289 -2,-0.1707 -2,-0.1707 z m 96.6315,-49.9783 5.6513,-3.9718 3.0693,-5.9878 3.0693,-5.9878 2.6009,-12 2.6009,-12 1.553,-14.9075 1.5531,-14.9075 -0.513,-10.1592 -0.513,-10.1593 -1.9707,-1.2462 -1.9707,-1.2462 -4.8596,-0.02 -4.8596,-0.02 -8.6736,2.679 -8.6737,2.6791 -8.2307,5.4962 -8.2307,5.4962 -6.7928,8.1581 -6.7929,8.1581 -4.1099,8.6666 -4.1099,8.6667 0.012,11.3333 0.012,11.3334 2.3467,4.3153 2.3468,4.3153 4.2986,4.896 4.2987,4.8959 6.6764,3.1811 6.6764,3.1811 8.9425,-0.4327 8.9426,-0.4327 z m 302.1117,47.2511 -11.6852,-1.1451 -10.0852,-3.3854 -10.0852,-3.3855 -6.9037,-4.4163 -6.9037,-4.4162 -6.0162,-6.6915 -6.0162,-6.6915 -4.3629,-8.9479 -4.3628,-8.9479 -3.2149,-12.2523 -3.2148,-12.2523 -1.4109,-10.6666 -1.4108,-10.6667 -1.921,-27.3708 -1.921,-27.3707 -1.5524,-43.9626 -1.5524,-43.9626 -3.2554,-3 -3.2554,-3 h -17.3615 -17.3615 l -3.8292,-3.8291 -3.8292,-3.8292 -0.9148,-3.6449 -0.9148,-3.6448 2.0407,-4.2794 2.0407,-4.2793 67.6939,-48.58 67.6938,-48.5799 6.7169,-4.3334 6.7168,-4.3333 h 2.9991 2.999 l 3.4961,1.5929 3.4961,1.5929 1.8887,3.6524 1.8887,3.6523 -2.2455,34.1276 -2.2455,34.1275 2.7339,2.734 2.7339,2.7339 45.1896,2.5676 45.1895,2.5676 1.4466,1.9461 1.4465,1.9462 2.2974,16.2355 2.2974,16.2356 -1.4442,1.4442 -1.4443,1.4443 -45.633,2.2729 -45.6331,2.2729 -1.6197,0.093 -1.6198,0.093 -1.309,2.4459 -1.3089,2.4459 -2.3706,23.2208 -2.3705,23.2208 0.09,52 0.09,52 2.1342,11.1889 2.1343,11.1889 3.789,6.1285 3.7889,6.1284 5.2862,3.0813 5.2861,3.0812 9.3334,-0.5558 9.3333,-0.5559 9.3333,-3.3492 9.3334,-3.3492 12.3931,-5.4936 12.3932,-5.4935 h 4.4978 4.4978 l 2.1583,0.8282 2.1584,0.8282 2.0271,3.9201 2.0272,3.9201 -1.5428,4.6746 -1.5428,4.6747 -9.9173,7.8809 -9.9173,7.881 -9.6164,5.6286 -9.6163,5.6286 -12.6667,4.9785 -12.6667,4.9784 -13.3333,2.626 -13.3333,2.6261 -13.3334,0.6347 -13.3333,0.6348 z m -1598.0691134,-2.9027 -1.6908869,-2.0374 0.3893444,-11.0219 0.3893444,-11.0219 7.6338936,-2.5408 7.6338939,-2.5409 6.509447,-5.8525 6.509448,-5.8526 4.692484,-9.0472 4.692484,-9.0473 2.13267,-6.6667 2.13267,-6.6666 1.934726,-12 1.934727,-12 0.828475,-14 0.828475,-14 -1.442677,-20.6667 -1.442677,-20.6667 -2.749975,-19.3333 -2.749975,-19.3333 -1.539045,-3.2759 -1.539046,-3.2759 -15.211336,-10.7241 -15.21133607,-10.7241 -1.32670595,-3.0022 -1.32670598,-3.0021 2.53804265,-2.8157 2.53804265,-2.8157 16.8243267,-8.437 16.824327,-8.437 15.842339,-6.6503 15.842339,-6.6503 17.999999,-6.1668 18.000001,-6.1669 17.33333,-4.5905 17.33333,-4.5904 h 2.28643 2.28642 l 1.61309,3 1.61309,3 0.76715,19.193 0.76716,19.1929 2.33333,1.4669 2.33333,1.4669 1.82608,-1.3265 1.82608,-1.3265 8.70968,-7.3333 8.70967,-7.3334 9.34552,-5.585 9.34551,-5.5851 9.703,-4.129 9.70299,-4.1289 10.0824,-2.7819 10.0824,-2.7819 16.90611,-0.6588 16.9061,-0.6588 10.09867,2.2467 10.09867,2.2467 9.28249,4.6439 9.28248,4.6438 7.79272,7.6727 7.79271,7.6727 4.85168,7.9867 4.85168,7.9867 4.02872,10.0612 4.02871,10.0613 3.32803,13.2102 3.32802,13.2102 1.99599,12.6666 1.99599,12.6667 1.55835,17.3333 1.55836,17.3334 -0.066,47.3333 -0.066,47.3333 0.6112,2.2222 0.6112,2.2222 19.13881,10.7505 19.1388,10.7505 1.32035,3.7875 1.32035,3.7876 -1.76315,4.1933 -1.76316,4.1933 -3.0839,0.7582 -3.0839,0.7582 -82.4493,-0.3784 -82.4493,-0.3784 -3.21736,-3.741 -3.21737,-3.741 v -3.7761 -3.776 l 4.82963,-7.021 4.82963,-7.0211 4.4825,-9.4619 4.48251,-9.4619 2.74233,-10.6667 2.74233,-10.6666 1.37055,-22.6667 1.37056,-22.6667 -0.79911,-20.6666 -0.79911,-20.6667 -1.38445,-17.3333 -1.38445,-17.3334 -1.79285,-12.2222 -1.79285,-12.2222 -2.34073,-4.9328 -2.34073,-4.9327 -5.20537,-3.7707 -5.20538,-3.7708 -7.16716,-1.4879 -7.16715,-1.4879 -7.34616,1.358 -7.34616,1.358 -5.31414,2.7111 -5.31414,2.7111 -4.87977,5.0112 -4.87978,5.0112 -3.37146,6.6367 -3.37146,6.6367 -2.53617,7.3633 -2.53617,7.3633 -2.13297,12 -2.13298,12 -0.62589,43.9458 -0.62589,43.9459 1.61959,10.0541 1.6196,10.0542 3.96536,10.9658 3.96535,10.9658 7.21961,10.7862 7.2196,10.7862 v 4.3489 4.3489 l -3.09227,2.905 -3.09228,2.9051 -39.90772,1.2608 -39.907728,1.2609 -46.031789,0.8998 -46.0317894,0.8998 z m 2625.0877134,0.9394 -6,-0.4875 -22,-1.4812 -22,-1.4813 -5.2962,-1.1508 -5.2963,-1.1508 -1.7037,-2.33 -1.7038,-2.33 v -3.8441 -3.8442 l 7.1382,-7.5677 7.1382,-7.5676 3.4502,-6 3.4502,-6 3.9767,-12 3.9766,-12 2.4092,-14.6667 2.4091,-14.6667 -0.04,-32 -0.04,-32 -2.3355,-19.3333 -2.3356,-19.3333 -1.9194,-8.3618 -1.9194,-8.3618 -2.5827,-5.0625 -2.5827,-5.0625 -5.3543,-4.8373 -5.3543,-4.8373 -5.7285,-1.5425 -5.7284,-1.5425 -6.0138,0.8181 -6.0138,0.8182 -6.8126,3.3257 -6.8127,3.3256 -6.9261,7.3234 -6.9262,7.3234 -3.2391,7.0751 -3.2391,7.0751 -2.6671,15.6009 -2.6671,15.6008 -2.1575,20.3276 -2.1575,20.3276 0.7051,27.3333 0.705,27.3334 2.6543,12.0112 2.6544,12.0112 3.5035,9.3079 3.5034,9.3079 5.3579,6.3541 5.3579,6.3541 0.7022,4.3272 0.7022,4.3272 -2.7637,3.5135 -2.7637,3.5134 -4.3568,0.8001 -4.3567,0.8001 -25.1048,2.0194 -25.1049,2.0193 -36.8951,-0.01 -36.8952,-0.01 -18.4205,-1.3941 -18.4206,-1.3941 -3.2532,-1.2368 -3.2533,-1.2369 -2.084,-4.3703 -2.0841,-4.3704 1.3747,-3.6156 1.3746,-3.6156 8.3832,-4.1997 8.3832,-4.1997 5.5123,-4.4741 5.5124,-4.4741 4.9408,-7.4437 4.9409,-7.4438 3.8929,-10.6668 3.8929,-10.6669 2.2552,-12.2599 2.2552,-12.26 -0.049,-26.6667 -0.049,-26.6666 -2.2181,-16.88 -2.2182,-16.88 -1.914,-10.0035 -1.9139,-10.0035 -2.7704,-5.4304 -2.7703,-5.4303 -2.9829,-1.8552 -2.9828,-1.8551 -9.8554,-3.6864 -9.8553,-3.6863 -2.478,-2.478 -2.478,-2.478 v -4.0662 -4.0662 l 1.9507,-3.7722 1.9507,-3.7723 2.3826,-0.9374 2.3827,-0.9375 65.0366,-23.2241 65.0366,-23.2241 h 1.2967 1.2967 l 2.6667,2.6667 2.6666,2.6666 v 22.5576 22.5577 l 0.8094,2.109 0.8093,2.1091 h 1.9984 1.9983 l 9.6641,-9.0252 9.664,-9.0251 9.5377,-6.3991 9.5378,-6.3991 10.9905,-5.1477 10.9905,-5.1477 10,-2.8841 10,-2.884 16.8333,-0.715 16.8332,-0.7149 9.8911,2.2005 9.8912,2.2006 8.3475,3.9478 8.3475,3.9477 7.799,6.0012 7.799,6.0012 6.3318,8.3548 6.3317,8.3547 5.1738,10.955 5.1737,10.9549 2.6258,10.267 2.6259,10.2669 2.6045,18.1115 2.6046,18.1114 1.3932,22.9485 1.3932,22.9484 0.072,29.7182 0.072,29.7182 1.0908,10.3991 1.0908,10.399 3.0382,3.2341 3.0383,3.2341 18.3009,12.6647 18.301,12.6648 0.7079,2.707 0.7079,2.707 -2.2098,2.7003 -2.2098,2.7004 -14,1.3396 -14,1.3397 -44.6666,0.4831 -44.6667,0.4832 z m -3374.66656,-1.9863 -52.66666,-1.184 -9.07941,-1.2685 -9.07941,-1.2684 -1.92059,-1.5939 -1.92059,-1.594 v -3.9244 -3.9244 l 1.27664,-2.3854 1.27664,-2.3854 25.72336,-11.6159 25.72336,-11.6159 3.83139,-4.1164 3.83138,-4.1165 -0.86878,-162.1279 -0.86878,-162.1279 -0.73905,-7.4846 -0.73905,-7.4845 -24.89022,-14.3968 -24.89022,-14.3967 -4.33334,-3.1866 -4.33333,-3.1865 v -1.7689 -1.7689 l 1.99884,-1.6589 1.99884,-1.6589 23.00116,-1.7438 23.00116,-1.7438 32.85496,-1.4272 32.85497,-1.4273 41.8117,0.013 41.8117,0.013 29.33333,1.3069 29.33333,1.307 20.66667,1.4275 20.66666,1.4274 14,1.9255 14,1.9254 11.33334,2.7857 11.33333,2.7856 12.46869,5.8547 12.46869,5.8547 8.5172,6.0777 8.5172,6.0778 7.95117,7.3614 7.95117,7.3614 6.68751,9.0209 6.68751,9.021 4.66664,9.8937 4.66664,9.8937 2.04212,7.9468 2.04212,7.9468 v 12.5274 12.5274 l -2.09296,8.077 -2.09297,8.077 -4.42292,8.7828 -4.42292,8.7827 -6.22143,8.2763 -6.22143,8.2764 -8.26268,6.9457 -8.26269,6.9458 -18.82181,12.3099 -18.82182,12.3099 -0.88787,3.5376 -0.88788,3.5376 4.902,10.9298 4.90199,10.9297 9.31642,18.6667 9.31642,18.6667 6.7113,12 6.71131,12 10.86456,16.6666 10.86457,16.6667 10.82072,13.4319 10.82073,13.4319 11.42519,10.8149 11.42518,10.8149 11.40722,7.5901 11.40722,7.5901 10.26227,3.9616 10.26228,3.9615 2.33333,2.0749 2.33334,2.0748 v 5.096 5.0959 l -3.14946,2.0636 -3.14946,2.0636 -39.85054,1.3055 -39.85054,1.3055 -44.94829,0.3283 -44.94829,0.3283 -2.61817,-2.6666 -2.61817,-2.6667 -13.37167,-29.5588 -13.37168,-29.5588 -10.65326,-21.2752 -10.65326,-21.2752 -10.23891,-17.8327 -10.23892,-17.8326 -8.0359,-11.7453 -8.03591,-11.7453 -9.20766,-9.8595 -9.20767,-9.8594 -7.24751,-3.5459 -7.24752,-3.5459 -4.58346,0.8599 -4.58346,0.8598 -2.88799,2.3386 -2.888,2.3385 -1.8669,14.3299 -1.8669,14.3298 -1.17699,21.0786 -1.17699,21.0785 1.07558,16.5438 1.07557,16.5439 2.25631,10 2.2563,10 3.73147,8.2823 3.73146,8.2824 3.67026,4.812 3.67027,4.8119 5.51729,3.796 5.5173,3.796 6.58584,2.0222 6.58584,2.0221 5.14897,0.8426 5.14897,0.8425 3.18436,3.1844 3.18436,3.1844 v 4.5795 4.5796 l -2.37407,2.9318 -2.37408,2.9319 -5.95925,1.1082 -5.95926,1.1081 -54,0.6576 -54,0.6575 z m 176.26883,-227.6386 7.60216,-2.7557 5.93349,-3.4772 5.9335,-3.4773 6.00007,-5.2815 6.00007,-5.2814 5.07679,-7.6485 5.07679,-7.6485 3.30205,-8.6868 3.30204,-8.6868 0.54673,-29.6223 0.54672,-29.6222 -1.60371,-9.5079 -1.60371,-9.5079 -5.24975,-10.4887 -5.24975,-10.4887 -7.8179,-7.8178 -7.81789,-7.8179 -9.44691,-4.9643 -9.4469,-4.9642 -9.00969,-1.9092 -9.0097,-1.9092 -17.66666,-0.023 -17.66667,-0.023 -2.66667,2.6666 -2.66666,2.6667 v 85.2465 85.2466 l 1.41675,3.7263 1.41674,3.7263 1.58326,1.0915 1.58325,1.0916 22,-0.5481 22,-0.548 z m 2328.26123,223.041 -3.3486,-3.3486 0.4092,-5.6292 0.4093,-5.6292 8.6325,-4.6888 8.6325,-4.6889 8.2704,-8.2116 8.2705,-8.2116 5.3039,-11.1217 5.3038,-11.1217 2.1732,-8.9382 2.1733,-8.9381 1.3112,-14.942 1.3112,-14.9419 -1.3816,-19.5596 -1.3815,-19.5597 -3.2825,-20.9643 -3.2824,-20.9644 -3.1209,-6.2626 -3.121,-6.2626 -5.5687,-4.251 -5.5687,-4.251 -6.3376,-0.8218 -6.3376,-0.8218 -3.1149,-0.6481 -3.1148,-0.6481 -3.2185,-3.2185 -3.2185,-3.2185 v -5.3195 -5.3196 l 3,-3.4774 3,-3.4774 71.1298,-25.2636 71.1298,-25.2637 h 3.9032 3.9032 l 1.1126,3 1.1127,3 0.7559,120 0.756,120 0.8101,2 0.8102,2 19.4123,13.3334 19.4123,13.3333 1.2093,2.2457 1.2093,2.2457 v 3.1885 3.1886 l -3.086,2.8991 -3.0859,2.8991 h -94.9747 -94.9746 z m -3329.1967,-20.2255 -6.6667,-0.4268 -13.2058,-1.3495 -13.2059,-1.3496 -13.4608,-2.7254 -13.4608,-2.7254 -13.9044,-4.6338 -13.9044,-4.6338 -15.429,-8 -15.4289,-8.0001 -12,-8.919 -12,-8.9189 -10.7284,-10.7051 -10.7284,-10.7051 -26.0344,-32.6667 -26.0344,-32.6666 -16.7263,-22 -16.7263,-22 -14.3079,-20 -14.3079,-20 -15.6531,-23.3334 -15.653,-23.3333 -12.6964,-20.6667 -12.6963,-20.6666 -9.1275,-16 -9.1276,-16 -0.059,-8.02 -0.059,-8.0199 4.3077,-8.6467 4.3076,-8.6468 7.5154,-8.6666 7.5154,-8.6667 10.3564,-12.8754 10.3564,-12.8754 8.0345,-11.3051 8.0346,-11.3051 7.9416,-13.1529 7.9416,-13.1528 6.0098,-12 6.0098,-12 4.7291,-12.6666 4.7291,-12.6667 3.3365,-13.3333 3.3365,-13.3334 1.5679,-10.6035 1.5678,-10.6036 -0.032,-19.3964 -0.032,-19.3965 -2.1547,-13.3251 -2.1547,-13.3252 -2.6397,-10.3389 -2.6398,-10.3389 -3.455,-9.6692 -3.455,-9.6693 -6.7733,-13.2578 -6.7733,-13.25768 -7.6028,-10.07561 -7.6028,-10.07561 -8.4745,-8.10556 -8.4745,-8.10556 -8.2104,-6.02929 -8.2104,-6.0293 -11.7896,-6.05056 -11.7896,-6.05057 -9.4416,-3.37141 -9.4416,-3.37141 -13.8917,-3.10984 -13.8918,-3.10984 h -28 -28 l -9.5928,1.77469 -9.5929,1.77469 -3.3234,3.32345 -3.3235,3.32345 -0.6998,6.90186 -0.6998,6.90186 -1.4977,140.66664 -1.4978,140.6667 -1.3511,4.419 -1.3512,4.4191 -8.9505,8.9505 -8.9505,8.9504 -9.2511,4.8443 -9.2512,4.8442 -7.8494,2.2673 -7.8494,2.2673 -12.8173,-0.5339 -12.8172,-0.534 -8.4347,-4.5202 -8.4347,-4.5202 -4.731,-5.4269 -4.731,-5.4269 -3.9319,-8.2734 -3.9319,-8.2733 -1.805,-10.3933 -1.8049,-10.3933 -2.0835,-24.6667 -2.0834,-24.6667 -1.3962,-28.6666 -1.3963,-28.6667 0.154,-78 0.154,-78 -2.2522,-7.33334 -2.2521,-7.33333 -2.6143,-5.13255 -2.6144,-5.13255 -5.5719,-6.0855 -5.5719,-6.0855 -7.8075,-5.07265 -7.8074,-5.07265 -10.2245,-3.94298 -10.2245,-3.94298 -13.9681,-3.50618 -13.968,-3.50617 -4.7828,-1.25304 -4.7827,-1.25303 -1.5003,-3.29283 -1.5004,-3.29283 1.5184,-0.9384 1.5184,-0.9384 32.7647,-0.1686 32.7647,-0.16861 90.6666,-1.12164 90.6667,-1.12165 45.3333,1.56384 45.3333,1.56384 20.6667,1.31098 20.6667,1.31098 32,2.65975 32,2.65975 5.7141,0.47356 5.7142,0.47356 10.9525,5.65198 10.9525,5.65198 14.6667,9.7245 14.6666,9.72449 12.6667,10.61266 12.6667,10.61265 12.6666,13.21002 12.6667,13.21003 9.0956,11.30708 9.0956,11.30709 1.8627,3.51975 1.8626,3.51974 2.0418,19.44238 2.0417,19.4423 -0.011,19.0379 -0.011,19.0379 -1.3409,12 -1.3409,12 -2.7764,14 -2.7763,14 -5.3033,16 -5.3032,16 -8.4943,17.3334 -8.4944,17.3333 -9.4234,14.4329 -9.4234,14.4329 -7.8172,10.2338 -7.8171,10.2337 -12.6679,14.6667 -12.6679,14.6667 -20.8324,21.6115 -20.8324,21.6115 v 3.1582 3.1581 l 33.0523,44.5637 33.0523,44.5636 18.5241,24 18.5242,24 10.704,13.3334 10.704,13.3333 16.7187,20 16.7187,20 11.9089,13.3333 11.909,13.3334 14.5642,15.5336 14.5643,15.5336 17.1879,15.6694 17.188,15.6694 13.673,10.6863 13.673,10.6864 15.3334,10.0474 15.3333,10.0474 16.326,8.2552 16.326,8.2553 15.0074,5.2927 15.0073,5.2927 7.3333,1.6899 7.3333,1.6899 1.6667,1.322 1.6667,1.3219 v 3.1447 3.1447 l -3,0.6724 -3,0.6724 -40.4436,1.353 -40.4436,1.353 -17.5564,-0.2403 -17.5564,-0.2404 z m 3411.9999,-322.3045 -6.6667,-1.6519 -5.7992,-2.9961 -5.7992,-2.9961 -5.7939,-5.3407 -5.794,-5.3407 -3.9651,-6.2312 -3.9651,-6.2313 -2.2645,-7.8782 -2.2645,-7.8782 0.5794,-11.0397 0.5795,-11.0398 4.9312,-9.9775 4.9311,-9.9776 6.7226,-6.0441 6.7225,-6.0442 6.923,-3.3537 6.9229,-3.3537 9.3333,-1.4873 9.3334,-1.4874 9.8122,2.0727 9.8123,2.0726 6.1036,3.577 6.1036,3.5769 5.7712,5.3197 5.7711,5.3197 4.8897,9.8935 4.8896,9.8934 0.5794,11.0398 0.5795,11.0397 -2.2854,7.8613 -2.2853,7.8613 -3.2479,5.542 -3.2478,5.5421 -6.4459,6.0293 -6.4458,6.0294 -6.5104,3.2796 -6.5104,3.2797 -7.0656,1.4992 -7.0657,1.4992 -5.601,-0.1134 -5.601,-0.1134 z"
           id="path126" /></g></g></g></svg>
