<svg width="1200" height="1050" viewBox="0 0 1200 1050" fill="none" xmlns="http://www.w3.org/2000/svg">
<g id="logo-mini-letters">
<g id="light-group">
<path id="light-letter" d="M604.163 4.13L549.376 5.0636L506.087 5.57336L462.755 7.32922L426.087 9.16125L388.983 11.2101L373.28 12.1906L360.671 13.2902L358.245 15.7609L358.581 19.2062L360.776 21.4034L362.973 23.5988L375.616 26.0343L390.208 29.7687L399.54 31.9894L405.624 34.2101L413.186 36.7101L418.151 38.7218L428.403 45.4542L436.382 52.6749L441.813 60.9659L447.243 69.255L451.337 79.8429L455.104 95.3019L455.827 104.032L455.899 114.71L456.125 135.87L456.512 154.597L456.975 179.194L456.627 200.218L456.766 218.476C456.636 224.398 456.478 230.321 456.375 236.243C456.42 237.881 456.92 246.57 456.929 247.878C457.062 265.753 458.492 306.251 460.755 319.374L466.638 369.56L475.974 388.381L483.622 397.112L501.306 406.784L525.893 408.388L543.264 404.034L561.846 394.051L579.489 375.836L581.742 368.179C582.855 364.648 583.31 352.009 583.078 357.312L583.272 343.921L583.657 283.076L584.514 222.23L585.907 176.41L587.301 130.589L588.401 107.207L589.5 83.8239L592.131 77.8727L594.764 71.9215L599.635 67.6461L604.506 63.3688L613.041 62.4703L628.362 62.0114L643.315 62.1324L657.828 63.1324L666.582 63.8278L678.621 65.8395L690.582 69.2946L702.543 72.7496L714.834 78.1305L727.125 83.5094L739.375 91.5797L751.625 99.65L763.102 111.119L774.58 122.589L781.676 132.974L788.774 143.359L794.514 154.974L800.256 166.589L804.285 179.256L808.315 191.922L810.543 203.256L812.768 214.589L813.498 235.263L814.235 255.935L812.631 269.929L811.032 283.922L808.582 295.256L806.135 306.589L800.625 323.511L795.117 340.433L786.66 357.511L778.201 374.589L769.848 387.253L761.494 399.921L753.834 409.253L746.176 418.589L737.213 428.589L728.25 438.589L721.707 448.461L715.164 458.334L713.014 465.724L710.866 473.117L711.606 481.923L712.342 490.728L715.676 498.265L719.01 505.8L734.672 530.861L750.334 555.921L766.342 579.921L782.352 603.921L797.01 624.591L811.672 645.255L828.309 667.255L844.948 689.255L860.403 708.591L875.86 727.921L887.803 741.921L899.748 755.921L910.481 767.728L921.209 779.539L931.875 788.144L942.543 796.75L953.602 803.461L964.664 810.173L976.522 815.318L988.381 820.462L1001.46 824.478L1014.54 828.494L1027.88 831.128L1041.21 833.763L1055.21 835.509L1069.21 837.255L1107.88 837.155L1146.54 837.055L1169.86 834.798L1193.18 832.538L1195.7 830.016L1198.22 827.495L1197.4 824.208L1196.58 820.923L1192.89 819.495L1189.21 818.067L1175.88 814.526L1162.54 810.987L1150.96 808.679C1146.11 806.759 1141.39 804.779 1137.13 802.563L1121.5 794.956L1105.86 786.462L1094.09 778.766L1080.54 770.061L1068.32 760.227L1054.87 749.72L1035.31 731.796L1012.06 709.616L984.076 679.239L954.746 645.842L930.291 616.341L904.721 584.151L885.209 559.067L862.233 528.944L838.994 497.842L815.977 466.85L811.623 461.403L806.041 453.378L807.383 448.714L811.971 444.612L830.53 424.741L849.424 405.762L859.151 394.501L869.547 382.788L881.516 368.358L891.807 353.591L900.973 339.589L909.576 325.251L916.223 311.919L922.866 298.585L928.969 283.251L935.073 267.919L938.524 254.585L941.977 241.251L944.028 228.585L946.08 215.919L946.018 197.251L945.957 178.585L944.725 166.862L943.276 157.983L941.657 147.956L938.065 138.585L932.2 127.003L923.272 111.919L914.604 100.411L905.932 88.9031L893.303 76.95L880.67 64.9969L867.412 55.0067L858.537 48.5223L848.946 43.1688L838.7 36.9402L826.241 32.3758L810.278 27.3738L794.918 22.7801L777.803 19.284L760.719 16.2859L742.321 13.2879L722.09 10.659L702.737 9.12775L679.203 7.4754L656.545 6.25861L604.163 4.13Z" fill="#9E2907"/>
</g>
<g id="dark-group">
<path id="dark-letter" d="M254.703 213.17L158.904 214.716L70.6641 218.49L36.848 220.444L9.48907 222.231L7.1087 222.534L5.54596 224.742L4.19171 226.993L9.27081 232.279L14.054 233.531L18.8372 234.785L32.804 238.291L46.7728 241.797L56.9974 245.74L67.222 249.684L75.0286 254.756C77.6315 256.447 77.7155 256.866 81.2369 259.935L85.8753 266.266L89.4969 271.939L93.501 278.947L96.8611 285.871L100.062 295.966L101.984 304.046L103.56 374.932L103.406 452.932L104.802 481.598L106.199 510.264L108.281 534.932L110.365 559.598L112.169 569.992L113.974 580.385L117.906 588.658L121.839 596.932L126.57 602.357L131.3 607.785L139.736 612.305L148.169 616.826L160.988 617.359L173.804 617.893L181.654 615.627L189.503 613.359L198.753 608.514L208.005 603.67L216.956 594.721L225.906 585.77L227.257 581.35L228.609 576.932L230.107 436.264L235.052 297.253L235.752 291.04L237.83 284.967L240.74 280.126L244.338 276.526L249.381 273.097L258.699 272.149L286.837 271.598L314.535 273.712L332.206 277.496L342.486 280.387L352.211 283.651L361.429 287.694L374.337 293.446L384.559 300.467L393.889 306.645L401.205 312.152L407.218 318.617L416.811 327.916L423.891 336.127L430.972 346.5L438.641 359.907L444.817 372.568L449.018 383.357L451.951 392.652L454.888 402.245L457.081 413.63L459.608 427.7L459.674 439.308L460.454 458.779L459.291 478.325L457.499 494.822L455.477 502.951L452.005 518.427L448 530.422L444.409 541.079L441.152 551.134L435.611 562.398L429.266 574.933L422.597 587.82L413.182 602.177L405.616 612.344L396.31 624.184L386.154 635.923L375.932 646.856L369.756 655.589L361.705 668.138L359.875 673.104L356.169 683.559L356.228 691.578L356.287 699.598L365.416 715.598L374.543 731.598L387.24 752.264L399.936 772.932L415.588 796.264L431.242 819.598L445.551 839.598L459.857 859.598L476.584 881.598L493.311 903.598L519.346 936.264L545.379 968.932L556.107 979.637L566.836 990.342L578.836 999.26L590.836 1008.18L606.266 1016.18L621.694 1024.18L633.919 1029.71L647.376 1033.78L660.837 1037.96L673.514 1040.8L685.154 1042.82L698.471 1045.07L705.921 1045.49L715.387 1047.04L728.467 1046.94L749.828 1047.3L792.958 1046.95L831.051 1042.69L834.834 1042.69L839.961 1042.13L844.549 1037.3L843.878 1034.61L842.771 1030.6L837.298 1028.83L831.197 1026.58L823.751 1024.89L809.751 1021.5L790.156 1015.98L773.83 1007.73L757.504 999.47L742.17 989.424L726.836 979.377L713.164 968.689L699.49 958.003L682.303 942.334L665.115 926.666L650.551 911.131L635.986 895.597L624.078 882.263L612.168 868.931L595.449 848.931L578.731 828.931L568.028 815.597L557.322 802.263L538.799 778.263L520.276 754.263L487.223 709.701L454.17 665.136L452.603 661.978L454.17 658.82L475.002 637.209L495.836 615.597L508.504 600.931L521.17 586.263L528.429 577.486L536.805 565.797L546.229 551.363L555.653 536.931L564.147 519.597L572.641 502.263L577.944 486.263L583.248 470.263L586.024 456.263L588.801 442.263L590.141 430.263L591.482 418.263L591.492 399.226L591.505 380.189L589.464 360.746L589.26 358.82C588.951 357.806 588.621 356.799 588.225 355.812C587.487 353.836 586.745 351.861 585.86 349.945C585.015 348.007 584.239 346.045 583.624 344.019C583.589 343.932 583.557 343.845 583.522 343.758C583.141 343.103 582.705 342.48 582.358 341.806C580.761 339.032 579.279 336.193 577.71 333.402C576.273 330.868 574.817 328.342 573.284 325.865C570.925 322.168 568.471 318.533 566.155 314.808C564.572 312.32 562.978 309.84 561.383 307.359L552.833 298.439L540.165 285.23L527.499 274.617L514.833 264.006L500.165 254.281L494.766 250.701C493.231 250.249 491.577 249.442 489.854 248.183C487.797 246.68 487.526 246.477 486.667 245.844C484.783 245.193 482.897 244.548 480.995 243.953C474.641 241.869 468.311 239.712 461.891 237.834C454.364 235.599 446.808 233.467 439.28 231.234L415.765 226.711L395.497 224.053L370.432 219.807L348.299 218.497L303.699 215.466L254.703 213.17Z" fill="#0A0706"/>
</g>
</g>
</svg>
