<?xml version="1.0" encoding="UTF-8" standalone="no"?>
<!-- Created with Inkscape (http://www.inkscape.org/) -->

<svg
   version="1.1"
   id="svg1"
   width="1200"
   height="1050"
   viewBox="0 0 1200 1050"
   xml:space="preserve"
   xmlns="http://www.w3.org/2000/svg"
   xmlns:svg="http://www.w3.org/2000/svg"><defs
     id="defs1" /><g
     id="g1"
     transform="translate(4.8103893,165.6464)"><g
       id="g125"
       transform="translate(-311.45095,-1056.2219)"><g
         id="g126"
         transform="translate(2604.0508,233.41711)"><path
           id="path127"
           style="fill:#9e2907"
           d="m -1693.2474,661.28837 -54.7871,0.93359 -43.289,0.50977 -43.3321,1.75586 -36.6679,1.83203 -37.1036,2.04883 -15.7031,0.98047 -12.6094,1.09961 -2.4257,2.4707 0.3359,3.44531 2.1953,2.19727 2.1973,2.19531 12.6426,2.43555 14.5917,3.73437 9.3321,2.22071 6.084,2.2207 7.5625,2.5 4.9648,2.01172 10.252,6.73242 7.9785,7.2207 5.4316,8.29102 5.4297,8.28906 4.0938,10.58789 3.7675,15.45899 0.7227,8.73046 0.072,10.67774 0.2265,21.16016 0.3867,18.7266 0.4629,24.5976 -0.3476,21.0234 0.1386,18.2579 c -0.1301,5.9224 -0.2881,11.8448 -0.3912,17.7675 0.045,1.6381 0.5449,10.3271 0.5546,11.6348 0.1322,17.8745 1.5626,58.37309 3.8252,71.49619 l 5.8837,50.1858 9.336,18.8205 7.6475,8.7314 17.6845,9.6723 24.5867,1.6038 17.3708,-4.3536 18.582,-9.9833 17.6435,-18.2151 2.2528,-7.6569 c 1.1127,-3.5314 1.5676,-16.1706 1.3358,-10.867 l 0.1944,-13.3907 0.3842,-60.84559 0.8574,-60.8457 1.3926,-45.8203 1.3945,-45.82035 1.0996,-23.38282 1.0997,-23.38281 2.6308,-5.95117 2.6328,-5.95117 4.8711,-4.27539 4.8711,-4.27735 8.5352,-0.89844 15.3203,-0.45898 14.9531,0.12109 14.5137,1 8.7539,0.69532 12.0391,2.01172 11.9609,3.45507 11.9609,3.45508 12.291,5.38086 12.2911,5.37891 12.25,8.07031 12.25,8.07031 11.4765,11.46875 11.4785,11.47071 7.0957,10.38476 7.0977,10.38479 5.7402,11.6152 5.7422,11.6152 4.0293,12.6661 4.0293,12.666 2.2285,11.334 2.2246,11.3339 0.7305,20.6739 0.7363,20.6718 -1.6035,13.9942 -1.5996,13.9922 -2.4492,11.334 -2.4473,11.33389 -5.5097,16.9219 -5.5079,16.92186 -8.457,17.07814 -8.459,17.0781 -8.3535,12.6641 -8.3535,12.6679 -7.6602,9.3321 -7.6582,9.3359 -8.9629,10 -8.9628,10 -6.543,9.8711 -6.543,9.8731 -2.1504,7.3906 -2.1484,7.3926 0.7402,8.8066 0.7364,8.8047 3.3339,7.5371 3.334,7.5352 15.6621,25.0605 15.6621,25.0605 16.0079,24 16.0097,24 14.6582,20.67 14.6621,20.664 16.6368,22 16.6386,22 15.4551,19.336 15.457,19.33 11.9434,14 11.9453,14 10.7324,11.8067 10.7285,11.8105 10.6661,8.6055 10.6679,8.6055 11.0586,6.7109 11.0625,6.7129 11.8574,5.1445 11.8594,5.1446 13.0801,4.0156 13.082,4.0156 13.3321,2.6348 13.3339,2.6347 14,1.7461 14,1.7461 38.6661,-0.1 38.6679,-0.1 23.3184,-2.2578 23.3183,-2.2598 2.5235,-2.5215 2.5215,-2.5214 -0.8243,-3.2871 -0.8242,-3.2852 -3.6836,-1.4277 -3.6836,-1.4278 -13.3339,-3.541 -13.3321,-3.539 -11.5859,-2.3086 c -4.8452,-1.9196 -9.5709,-3.8998 -13.8242,-6.1153 l -15.6367,-7.6074 -15.6368,-8.4941 -11.7656,-7.6954 -13.5566,-8.705 -12.2188,-9.834 -13.4512,-10.5078 -19.5546,-17.9239 -23.2481,-22.1796 -27.9883,-30.377 -29.33,-33.3965 -24.4551,-29.5019 -25.5703,-32.1895 -19.5118,-25.084 -22.9765,-30.123 -23.2383,-31.1016 -23.0176,-30.9922 -4.3535,-5.4472 -5.582,-8.0254 1.3418,-4.6641 4.5879,-4.1015 18.5586,-19.8711 18.8945,-18.9786 9.7265,-11.2617 10.3965,-11.7129 11.9688,-14.4297 10.291,-14.7675 9.166,-14.00204 8.6035,-14.33786 6.6465,-13.332 6.6426,-13.33399 6.1035,-15.334 6.1035,-15.332 3.4512,-13.334 3.4531,-13.334 2.0508,-12.666 2.0527,-12.666 -0.062,-18.668 -0.061,-18.666 -1.2324,-11.7226 -1.4493,-8.8789 -1.6191,-10.0274 -3.5918,-9.3711 -5.8652,-11.58199 -8.9278,-15.08399 -8.6679,-11.50781 -8.6719,-11.50781 -12.6289,-11.95313 -12.6328,-11.95312 -13.2578,-9.99024 -8.875,-6.48437 -9.5918,-5.35352 -10.2461,-6.22851 -12.459,-4.56446 -15.9629,-5.00195 -15.3594,-4.59375 -17.1152,-3.49609 -17.084,-2.99805 -18.3984,-2.99805 -20.2305,-2.6289 -19.3535,-1.53125 -23.5332,-1.65235 -22.6582,-1.21679 z" /><path
           id="path126"
           style="fill:#0a0706"
           d="m -2042.7076,870.3288 -95.7989,1.54567 -88.2397,3.77397 -33.816,1.9536 -27.3589,1.78727 -2.3803,0.30324 -1.5629,2.20797 -1.3541,2.25097 5.079,5.28635 4.7832,1.25196 4.7832,1.2539 13.9668,3.50586 13.9688,3.50586 10.2246,3.94336 10.2246,3.94336 7.8066,5.0723 c 2.6029,1.6907 2.6869,2.1104 6.2083,5.1789 l 4.6384,6.3312 3.6216,5.6728 4.0041,7.0077 3.3601,6.924 3.201,10.0949 1.9224,8.0809 1.5754,70.88536 -0.1543,78 1.3965,28.666 1.3964,28.666 2.0821,24.6679 2.084,24.666 1.8046,10.3945 1.8047,10.3926 3.9317,8.2734 3.9336,8.2735 4.7304,5.4258 4.7305,5.4277 8.4355,4.5195 8.4336,4.5215 12.8184,0.5332 12.8164,0.5332 7.8496,-2.2656 7.8496,-2.2676 9.25,-4.8457 9.252,-4.8437 8.9511,-8.9493 8.9493,-8.9511 1.3515,-4.42 1.3516,-4.4179 1.498,-140.6679 4.9457,-139.01116 0.6992,-6.2128 2.0782,-6.073 2.9105,-4.8411 3.5981,-3.6001 5.043,-3.4283 9.3179,-0.9479 28.1379,-0.5516 27.698,2.1139 17.671,3.7844 10.2794,2.8911 9.7254,3.2642 9.2176,4.0425 12.9081,5.7524 10.2224,7.0206 9.33,6.1785 7.3157,5.507 6.0128,6.4643 9.5936,9.2991 7.0794,8.2111 7.0813,10.37266 7.6687,13.407 6.1766,12.661 4.2011,10.7889 2.9329,9.295 2.937,9.5938 2.193,11.3843 2.5273,14.0702 0.066,11.6084 0.779,19.4711 -1.1627,19.5457 -1.7922,16.497 -2.0219,8.1285 -3.4718,15.4764 -4.0054,11.995 -3.5903,10.6574 -3.2576,10.0548 -5.541,11.2635 -6.3446,12.5356 -6.6692,12.8865 -9.4144,14.3575 -7.5665,10.1665 -9.3054,11.8403 -10.1565,11.7388 -10.2216,10.9334 -6.1765,8.7329 -8.0512,12.5493 -1.8295,4.966 -3.706,10.4542 0.059,8.0196 0.059,8.0195 9.1289,16 9.127,16 12.6973,20.666 12.6953,20.668 15.6523,23.332 15.6543,23.334 14.3086,20 14.3066,20 16.7266,22 16.7266,22 26.0351,32.666 26.0332,32.668 10.7285,10.7051 10.7286,10.705 12,8.918 12,8.9199 15.4296,8 15.4278,8 12.2256,5.5281 13.4566,4.0752 13.4609,4.1795 12.6775,2.8385 11.6403,2.0211 13.317,2.2449 7.4494,0.4258 9.4658,1.5469 13.0801,-0.096 21.3617,0.3523 43.1294,-0.3463 38.0931,-4.2634 3.7834,-3e-4 5.1263,-0.56 4.5885,-4.8232 -0.6715,-2.6969 -1.1064,-4.0082 -5.473,-1.7699 -6.101,-2.2491 -7.4459,-1.6914 -14.0006,-3.3885 -19.5943,-5.5167 -16.3262,-8.2559 -16.3262,-8.2559 -15.334,-10.0468 -15.3339,-10.0469 -13.6719,-10.6875 -13.6738,-10.6856 -17.1875,-15.6699 -17.1875,-15.6679 -14.5645,-15.5352 -14.5645,-15.5332 -11.9082,-13.334 -11.9101,-13.332 -16.7188,-20 -16.7187,-20 -10.7031,-13.334 -10.7051,-13.334 -18.5235,-24 -18.5234,-24 -33.0527,-44.5625 -33.0528,-44.5644 -1.5668,-3.1582 1.5668,-3.1583 20.8321,-21.6113 20.834,-21.6113 12.6679,-14.666 12.666,-14.668 7.2588,-8.7775 8.376,-11.6893 9.4238,-14.4336 9.4239,-14.4316 8.4941,-17.334 8.4941,-17.3339 5.3028,-16 5.3047,-16 2.7754,-14 2.7773,-14 1.3398,-12 1.3418,-12 0.01,-19.0371 0.012,-19.0371 -2.041,-19.4434 -0.2031,-1.9258 c -0.3096,-1.0138 -0.6389,-2.0206 -1.0352,-3.0078 -0.7383,-1.9757 -1.4803,-3.951 -2.3652,-5.8672 -0.8454,-1.9385 -1.6213,-3.9004 -2.2363,-5.9258 -0.035,-0.087 -0.067,-0.1747 -0.1016,-0.2617 -0.3808,-0.6546 -0.8166,-1.2773 -1.1641,-1.9512 -1.5965,-2.7748 -3.0795,-5.61366 -4.6484,-8.40426 -1.437,-2.5344 -2.8922,-5.0596 -4.4258,-7.5371 -2.359,-3.6967 -4.813,-7.3319 -7.1289,-11.0566 -1.5825,-2.4881 -3.1768,-4.9688 -4.7715,-7.4492 l -8.5508,-8.9199 -12.6679,-13.209 -12.666,-10.6133 -12.6661,-10.6113 -14.6679,-9.7246 -5.3985,-3.58012 c -1.5355,-0.45227 -3.1887,-1.25854 -4.9121,-2.51758 -2.0574,-1.50315 -2.3283,-1.70621 -3.1875,-2.33984 -1.8833,-0.65098 -3.7694,-1.29599 -5.6718,-1.89063 -6.354,-2.08418 -12.6839,-4.24048 -19.1036,-6.11914 -7.5269,-2.23517 -15.0837,-4.36696 -22.6113,-6.59961 l -23.5149,-4.52296 -20.2675,-2.65821 -25.0657,-4.24561 -22.1326,-1.31054 -44.6007,-3.03102 z" /></g></g></g></svg>
