<?xml version="1.0" encoding="UTF-8" standalone="no"?>
<!-- Created with Inkscape (http://www.inkscape.org/) -->

<svg
   version="1.1"
   id="svg1"
   width="500"
   height="500"
   viewBox="0 0 500 500"
   xml:space="preserve"
   xmlns="http://www.w3.org/2000/svg"
   xmlns:svg="http://www.w3.org/2000/svg"><defs
     id="defs1" /><g
     id="g1"><g
       id="g125"
       transform="translate(-313.45095,-1058.2219)"><path
         style="fill:#9d2907;stroke-width:0.301289"
         d="m 699.08134,1411.5371 c -0.82178,-0.096 -3.17501,-0.3806 -5.2294,-0.6324 -2.0544,-0.2518 -5.41614,-0.8421 -7.47056,-1.3117 -2.05441,-0.4697 -5.38425,-1.4396 -7.39969,-2.1552 -2.01542,-0.7157 -5.15949,-2.0513 -6.98682,-2.9681 -1.82733,-0.9166 -4.7167,-2.6455 -6.42084,-3.8419 -1.70414,-1.1964 -4.44313,-3.4298 -6.08666,-4.9632 -1.64351,-1.5336 -4.34095,-4.5101 -5.99428,-6.6144 -1.65333,-2.1044 -4.51191,-5.8675 -6.35239,-8.3625 -1.84048,-2.4951 -5.29483,-7.3554 -7.67634,-10.801 -2.38151,-3.4454 -6.42736,-9.4723 -8.9908,-13.3931 -2.56343,-3.9207 -6.50906,-10.142 -8.76806,-13.8252 -2.259,-3.683 -6.12527,-10.196 -8.59172,-14.4732 -2.46645,-4.2771 -6.45903,-11.4308 -8.8724,-15.8971 -2.41338,-4.4664 -4.80809,-9.2194 -5.32156,-10.5623 -0.53257,-1.3928 -1.02245,-3.6674 -1.14044,-5.2951 -0.14299,-1.9728 -0.021,-3.5928 0.39514,-5.2486 0.33108,-1.3173 1.42691,-3.8345 2.43519,-5.5939 1.00828,-1.7594 2.96306,-4.6569 4.34398,-6.4391 1.38091,-1.7822 3.47627,-4.6012 4.65636,-6.2645 1.18009,-1.6634 3.19877,-4.8713 4.48597,-7.1286 1.28719,-2.2574 3.40664,-6.5945 4.70989,-9.638 1.30326,-3.0435 3.06392,-8.0011 3.91258,-11.017 0.84868,-3.0158 1.85174,-7.1358 2.22905,-9.1556 0.3773,-2.0197 0.88777,-5.7127 1.13438,-8.2065 0.27115,-2.7421 0.36714,-7.1818 0.24286,-11.233 -0.11303,-3.6842 -0.48602,-8.3512 -0.82886,-10.371 -0.34284,-2.0198 -1.13135,-5.5193 -1.75222,-7.7767 -0.62089,-2.2573 -1.85268,-5.7979 -2.73731,-7.8677 -0.88464,-2.0701 -2.50307,-5.2778 -3.59652,-7.1287 -1.09346,-1.8508 -3.435,-5.0375 -5.20343,-7.0816 -1.76841,-2.044 -4.75958,-4.8931 -6.64703,-6.3313 -1.88743,-1.4382 -4.98131,-3.3994 -6.87526,-4.3581 -1.89396,-0.9588 -4.95133,-2.2471 -6.79418,-2.863 -1.84283,-0.6159 -4.86841,-1.4128 -6.72349,-1.7711 -1.8551,-0.3582 -5.81016,-0.7652 -8.78905,-0.9045 -3.62388,-0.1692 -5.9431,-0.086 -7.00856,0.2512 -0.87581,0.2771 -2.20652,1.1277 -2.95714,1.8899 -0.7506,0.7624 -1.69631,2.253 -2.10157,3.3127 -0.57674,1.5079 -0.80031,3.4325 -1.02891,8.8566 -0.16064,3.8116 -0.4951,14.804 -0.74324,24.4277 -0.24814,9.6235 -0.47148,26.2462 -0.49628,36.9392 -0.0249,10.6928 0.0747,21.0941 0.22113,23.1138 0.25016,3.4504 0.2342,3.3981 -0.26403,-0.8641 -0.29166,-2.495 -0.68302,-4.9251 -0.86969,-5.4004 -0.18668,-0.4753 -1.62992,-2.7111 -3.2072,-4.9685 -1.5773,-2.2573 -4.58346,-6.127 -6.68037,-8.5992 -2.09689,-2.4722 -5.15725,-5.8048 -6.80077,-7.4056 -1.64352,-1.601 -4.83719,-4.352 -7.09702,-6.1135 -2.25985,-1.7615 -5.70565,-4.1106 -7.65733,-5.22 -3.22083,-1.8309 -3.91069,-2.0546 -7.47056,-2.4228 -3.92204,-0.4056 -3.92204,-0.4056 -0.35044,-0.1933 2.69883,0.1605 3.66924,0.072 3.97116,-0.3619 0.21974,-0.3159 0.67104,-3.2127 1.00286,-6.4376 0.33182,-3.2248 0.79049,-9.4262 1.01928,-13.7809 0.30909,-5.8835 0.30623,-9.4763 -0.0112,-13.9853 -0.23493,-3.3371 -0.74329,-7.7429 -1.12967,-9.7907 -0.3864,-2.0477 -1.21863,-5.2669 -1.8494,-7.1537 -0.63078,-1.8868 -1.8315,-4.6395 -2.66826,-6.117 -0.83676,-1.4776 -2.52716,-3.7392 -3.75643,-5.0259 -1.22926,-1.2866 -3.29084,-2.9406 -4.58124,-3.6754 -1.29042,-0.7347 -3.3589,-1.636 -4.59664,-2.0027 -1.23775,-0.3668 -3.80329,-0.8326 -5.70121,-1.0352 -2.37227,-0.2532 -3.64312,-0.5908 -4.06622,-1.0802 -0.47284,-0.5468 -0.52123,-0.8852 -0.20885,-1.4597 0.32352,-0.5952 1.2001,-0.8092 4.28925,-1.047 2.13544,-0.1645 8.50503,-0.5979 14.15464,-0.9632 5.6496,-0.3654 15.73486,-0.8882 22.41168,-1.1621 7.13964,-0.2929 18.37043,-0.3933 27.26752,-0.2437 8.32033,0.1399 17.90133,0.4635 21.29109,0.7191 3.38976,0.2558 8.63072,0.7521 11.64659,1.103 3.01585,0.3509 7.55421,1.0433 10.08524,1.5387 2.53104,0.4953 6.78702,1.5385 9.45774,2.318 2.67073,0.7795 6.53674,2.1465 8.59115,3.038 2.0544,0.8914 5.24806,2.4971 7.09703,3.5681 1.84896,1.0711 4.75686,3.0209 6.462,4.3327 1.70514,1.3119 4.69257,4.1282 6.63875,6.2585 1.94617,2.1303 4.63151,5.5512 5.96741,7.602 1.3359,2.0507 3.25092,5.6728 4.2556,8.0489 1.00467,2.3762 2.16888,5.6229 2.58712,7.2149 0.41824,1.592 1.02618,4.5082 1.35097,6.4807 0.35472,2.154 0.59702,6.001 0.60682,9.6344 0.01,3.4751 -0.22827,7.7949 -0.55855,10.1529 -0.31618,2.2574 -1.00991,6.0484 -1.54165,8.4248 -0.53174,2.3761 -1.73628,6.556 -2.67675,9.2887 -0.94046,2.7327 -2.54754,6.9126 -3.57127,9.2888 -1.02373,2.3761 -2.94616,6.4109 -4.27205,8.9661 -1.32591,2.555 -3.84914,6.9294 -5.6072,9.7207 -1.75806,2.7914 -4.3944,6.7174 -5.85854,8.7246 -1.46414,2.0072 -4.97328,6.4166 -7.79808,9.7987 -4.92742,5.8995 -5.13602,6.2224 -5.13602,7.9503 0,0.9905 0.25234,2.416 0.56075,3.1678 0.30843,0.7517 3.44821,5.7388 6.97731,11.0822 3.52911,5.3435 9.29926,13.8954 12.82257,19.0042 3.52331,5.1089 9.41822,13.46 13.09981,18.5583 3.6816,5.0981 10.3068,14.0412 14.72268,19.8736 4.41588,5.8324 10.63512,13.6912 13.82054,17.4643 3.1854,3.7729 7.38849,8.4084 9.34018,10.3007 1.95167,1.8926 5.22937,4.7425 7.28379,6.3333 2.05439,1.5909 5.46671,3.9195 7.58292,5.1747 2.11623,1.2553 5.56203,3.0272 7.65735,3.9374 2.0953,0.9103 5.49052,2.1714 7.54493,2.8024 2.05439,0.6312 4.19965,1.3555 4.76723,1.6098 0.60189,0.2696 1.12823,0.9059 1.26298,1.527 0.15927,0.7339 0.012,1.318 -0.47397,1.8801 -0.57548,0.6656 -1.83682,0.9403 -6.86591,1.495 -3.38849,0.3737 -10.61523,0.7481 -16.05938,0.832 -5.44416,0.084 -10.57083,0.074 -11.39262,-0.021 z"
         id="path126" /><path
         style="fill:#211611;stroke-width:0.301289"
         d="m 593.37294,1479.0338 c -0.82175,-0.08 -2.92285,-0.3508 -4.66909,-0.6001 -1.74624,-0.2492 -4.43564,-0.7429 -5.97644,-1.0971 -1.54081,-0.3541 -4.48234,-1.2303 -6.53674,-1.9471 -2.0544,-0.7168 -5.92043,-2.5458 -8.59115,-4.0644 -3.06126,-1.7406 -6.30534,-4.0257 -8.7779,-6.1831 -2.15712,-1.882 -5.26985,-5.0501 -6.91718,-7.0402 -1.64731,-1.9899 -5.68608,-7.5066 -8.97505,-12.2588 -3.28896,-4.7524 -8.4281,-12.3347 -11.4203,-16.8495 -2.9922,-4.5147 -7.58048,-11.6727 -10.19617,-15.9065 -2.61568,-4.2337 -6.99395,-11.6216 -9.72947,-16.4174 -2.73552,-4.7957 -6.74548,-12.1495 -8.91102,-16.3417 -2.16554,-4.1919 -4.47114,-8.845 -5.12359,-10.3399 -1.01476,-2.3252 -1.16418,-3.0711 -1.03355,-5.1598 0.0912,-1.4581 0.55368,-3.3897 1.14806,-4.7948 0.54746,-1.2942 2.20388,-3.9995 3.68094,-6.0118 1.47705,-2.0123 4.03415,-5.6029 5.68243,-7.9791 1.64828,-2.3761 4.49394,-6.9451 6.32367,-10.1529 1.82974,-3.2079 4.53977,-8.6554 6.02231,-12.1059 1.48253,-3.4504 3.30689,-8.4079 4.05412,-11.0168 0.74723,-2.609 1.73748,-6.785 2.20057,-9.28 0.71455,-3.8498 0.84417,-5.8767 0.85663,-13.3932 0.0113,-6.8077 -0.13932,-9.7563 -0.65097,-12.7451 -0.36609,-2.1386 -1.00973,-5.3464 -1.43029,-7.1286 -0.42056,-1.7821 -1.42089,-5.1844 -2.22296,-7.5606 -0.80207,-2.3762 -2.18871,-5.7366 -3.08142,-7.4676 -0.89272,-1.7309 -2.68986,-4.7135 -3.99366,-6.6282 -1.30378,-1.9145 -3.70608,-4.8029 -5.33843,-6.4186 -1.63234,-1.6156 -4.26615,-3.8308 -5.8529,-4.9225 -1.58676,-1.0917 -4.06146,-2.5639 -5.49935,-3.2716 -1.4379,-0.7078 -4.08581,-1.78 -5.88428,-2.3829 -1.79846,-0.6027 -5.19227,-1.3873 -7.54182,-1.7437 -2.34954,-0.3563 -5.93556,-0.6476 -7.96892,-0.6476 -2.03335,0 -5.68008,0.3006 -8.10381,0.6681 -2.42375,0.3675 -4.77967,0.9507 -5.23539,1.296 -0.45571,0.3454 -1.00711,1.0138 -1.22531,1.4855 -0.26269,0.5677 -0.59367,17.1005 -0.97953,48.9281 -0.56066,46.2455 -0.61041,48.1228 -1.31036,49.4423 -0.40017,0.7544 -1.73547,2.4509 -2.96733,3.7701 -1.23187,1.3191 -3.01282,2.9223 -3.95768,3.5629 -0.94484,0.6404 -2.78124,1.6108 -4.08087,2.1565 -1.29963,0.5456 -3.42641,1.118 -4.72619,1.2721 -1.39892,0.1657 -3.27267,0.066 -4.59198,-0.2457 -1.22579,-0.2891 -3.0312,-1.0256 -4.01198,-1.6365 -0.98079,-0.611 -2.54736,-2.0556 -3.48126,-3.2106 -0.93391,-1.1548 -2.11278,-3.1474 -2.61971,-4.4282 -0.50693,-1.2807 -1.15577,-3.6561 -1.44189,-5.2786 -0.2861,-1.6226 -0.78308,-6.3524 -1.1044,-10.5106 -0.32131,-4.1585 -0.78037,-11.3519 -1.02013,-15.9854 -0.24164,-4.6698 -0.45548,-20.8448 -0.4798,-36.2911 -0.0437,-27.7911 -0.0462,-27.873 -0.88021,-30.2881 -0.45999,-1.3319 -1.36544,-3.3456 -2.01212,-4.4748 -0.64668,-1.1292 -2.03042,-2.8407 -3.07499,-3.8033 -1.04457,-0.9625 -3.27238,-2.4989 -4.95069,-3.4143 -1.6783,-0.9152 -5.29218,-2.3499 -8.03084,-3.1882 -2.73866,-0.8383 -5.48017,-1.6687 -6.09226,-1.8453 -0.62669,-0.1809 -1.35666,-0.8236 -1.67092,-1.4712 -0.30693,-0.6325 -0.44185,-1.2844 -0.29983,-1.4487 0.14202,-0.1643 4.59185,-0.3552 9.88853,-0.4242 5.29668,-0.07 17.84269,-0.3209 27.88002,-0.5597 11.45555,-0.2725 24.45768,-0.2905 34.92486,-0.049 9.17133,0.212 19.78476,0.5895 23.58542,0.8389 3.80065,0.2494 10.35605,0.7596 14.56757,1.1342 4.21154,0.3745 9.84854,0.916 12.5267,1.2032 4.81723,0.5169 4.90919,0.5469 8.59114,2.8175 2.04696,1.2624 5.31859,3.5651 7.27028,5.1171 1.95168,1.552 4.89322,4.1256 6.53674,5.7188 1.64352,1.5933 4.70388,4.9197 6.80077,7.3918 2.09691,2.4723 5.08576,6.3177 6.64188,8.5452 1.55614,2.2276 2.98802,4.3931 3.18198,4.8123 0.19395,0.4192 0.62277,3.2626 0.95293,6.3187 0.34624,3.205 0.60394,8.8478 0.6089,13.3332 0.005,4.9486 -0.21692,9.6455 -0.61153,12.9154 -0.34109,2.8262 -1.11624,7.3639 -1.72257,10.0838 -0.60633,2.7199 -1.78171,6.9549 -2.61198,9.411 -0.83026,2.4562 -2.35677,6.3757 -3.39226,8.7098 -1.03548,2.3341 -3.15023,6.4797 -4.69946,9.2123 -1.54922,2.7326 -3.6695,6.2322 -4.71171,7.7767 -1.04222,1.5445 -3.32733,4.7524 -5.078,7.1286 -1.75068,2.3762 -5.89824,7.5283 -9.21682,11.4489 -3.31857,3.9209 -6.15343,7.5791 -6.29968,8.1297 -0.1927,0.7252 0.0171,1.4986 0.76195,2.8083 0.56531,0.9939 6.18617,9.7782 12.49077,19.5205 6.3046,9.7425 14.28549,21.7964 17.73529,26.7865 3.44982,4.9899 8.01329,11.4413 10.14107,14.3362 2.12778,2.8951 6.19654,8.2416 9.0417,11.8811 2.84517,3.6395 7.62845,9.3694 10.62954,12.7327 3.00111,3.3637 7.52791,8.0407 10.05958,10.3937 2.53166,2.3529 6.5308,5.758 8.88695,7.5669 2.35618,1.8089 6.04888,4.3638 8.206,5.6775 2.15712,1.3138 5.68331,3.1951 7.83595,4.1809 2.15265,0.9856 5.57421,2.2954 7.60346,2.9105 3.00877,0.9121 3.76342,1.3058 4.08982,2.1344 0.31437,0.7981 0.2741,1.162 -0.18772,1.6961 -0.48278,0.5585 -2.18182,0.7447 -9.49783,1.0413 -4.90042,0.1986 -13.028,0.3388 -18.06129,0.3114 -5.03329,-0.028 -9.82379,-0.1157 -10.64555,-0.1965 z"
         id="path125" /></g></g></svg>
